<svg width="46" height="45" viewBox="0 0 46 45" fill="none" xmlns="http://www.w3.org/2000/svg">
<path d="M27.4203 38.0077C26.4255 37.0134 26.4255 35.4578 27.4203 34.4796L35.4907 26.4129C36.4855 25.4186 38.0418 25.4186 39.0205 26.4129L40.5127 27.9044L42.1332 26.2846C44.5399 23.8791 44.5399 19.9981 42.1332 17.5925L26.2811 1.8281C23.8744 -0.577464 19.9916 -0.577464 17.5849 1.8281L1.79697 17.6406C-0.609731 20.0462 -0.609731 23.9272 1.79697 26.3327L17.5688 42.0972C19.9755 44.5027 23.8583 44.5027 26.265 42.0972L28.8803 39.4831L27.4203 38.0077Z" fill="#1F8ECE"/>
<path d="M41.7802 26.477L40.5127 27.744L39.9992 27.2628C39.2933 26.5572 38.2985 26.1242 37.3037 26.1242C36.2448 26.1242 35.3302 26.5412 34.6082 27.2628L28.3187 33.5494C26.8266 35.0408 26.8266 37.5105 28.3187 39.002L28.8161 39.4991L26.618 41.6962C24.0027 44.3102 19.8311 44.3102 17.28 41.6962L2.08573 26.477C-0.529552 23.863 -0.529552 19.6934 2.08573 17.1435L17.296 2.00448C19.9113 -0.609565 24.0829 -0.609565 26.634 2.00448L41.7802 17.1435C44.3955 19.7575 44.3955 23.9271 41.7802 26.477Z" fill="#1F8ECE"/>
<path d="M45.31 38.072L39.0847 44.2943C38.7959 44.583 38.5231 44.7915 38.1701 44.8556C38.1059 44.8556 38.0257 44.9198 37.9615 44.9198C37.753 44.9839 37.5444 44.9839 37.4 44.9839C37.1914 44.9839 36.9828 44.9839 36.8384 44.9198C36.7742 44.9198 36.694 44.8556 36.6298 44.8556C36.2769 44.7113 35.9881 44.5028 35.7153 44.2943L29.49 38.072C28.4952 37.0777 28.4952 35.5221 29.49 34.5438L35.7153 28.3214C36.0041 28.0328 36.2769 27.8243 36.6298 27.7601C36.694 27.7601 36.7742 27.696 36.8384 27.696C37.047 27.6318 37.2556 27.6318 37.4 27.6318C37.6086 27.6318 37.8171 27.6318 37.9615 27.696C38.0257 27.696 38.1059 27.7601 38.1701 27.7601C38.5231 27.9045 38.8119 28.1129 39.0847 28.3214L45.31 34.5438C46.2245 35.4579 46.2245 37.0937 45.31 38.072Z" fill="#FED406"/>
<path d="M32.8593 32.6353V34.7521H32.1533V35.8106H32.8593V38.2162C32.8593 38.2162 32.8593 39.5633 34.4798 39.4189C34.4798 39.4189 35.5387 39.3548 35.7473 39.2105L35.5387 37.9435C35.5387 37.9435 34.544 38.3605 34.6242 37.5266V35.8266H36.3891V34.7682H34.6884V32.7154L32.8593 32.6353Z" fill="#1F8ECE"/>
<path d="M37.1113 34.5435V35.8104H39.2292L36.8867 38.1518V39.4187H41.7001V38.0716H39.0848L41.4915 35.666V34.6076H37.1113V34.5435Z" fill="#1F8ECE"/>
<path d="M7.74951 18.4263H10.3648V21.5375H13.1886V18.4263H15.8841V27.407H13.1886V23.7987H10.3648V27.407H7.74951V18.4263Z" fill="white"/>
<path d="M17.2321 18.4263H19.4944V27.407H17.1519L17.2321 18.4263Z" fill="white"/>
<path d="M20.9702 24.3602L20.0557 26.0601C20.0557 26.0601 23.3127 29.0269 27.1314 26.7657C27.1314 26.7657 28.7519 25.2101 27.4202 23.3659C27.4202 23.3659 26.5698 22.3716 23.5213 21.5216C23.5213 21.5216 22.3821 20.6075 23.8743 20.2547C23.8743 20.2547 26.1366 19.966 28.9604 22.5961L31.303 21.8103C31.303 21.8103 27.6929 19.0519 25.6392 18.4906C25.6392 18.4906 22.5265 17.6406 21.1788 19.6292C19.831 21.6018 21.0344 23.0932 22.7993 23.5904C24.5642 24.0875 25.8478 24.3762 25.206 25.5629C25.222 25.4186 23.8743 26.5572 20.9702 24.3602Z" fill="white"/>
<path d="M28.9766 22.9487V27.2626H31.3191V24.7929C31.3191 24.7929 36.2769 25.8514 36.3411 21.7459C36.3411 21.7459 36.8384 18.0734 32.6668 18.4262H28.9926V19.5649L31.2549 21.1846V20.1262L33.453 20.2705C33.453 20.2705 34.3034 20.3346 34.3034 21.5374C34.3034 21.5374 34.3676 22.8845 33.0359 22.8043H29.0087L28.9766 22.9487Z" fill="white"/>
</svg>
