<svg width="50" height="35" viewBox="0 0 50 35" fill="none" xmlns="http://www.w3.org/2000/svg">
<path d="M0 0V28.3857H7.21545V16.2785L16.7683 28.3857H26.1433L16.4634 14.1928L14.4309 13.6333L25.4573 0H16.3618L7.36789 11.8019V0H0Z" fill="#737373"/>
<path d="M44.2158 13.3535H43.5129C45.6979 12.8956 47.3323 10.9456 47.3323 8.62253V7.33381C47.3323 3.28114 44.0549 0 40.0068 0H28.5823V12.8702C28.5823 13.0652 28.684 13.2432 28.8364 13.3535H28.5823V28.3857H42.4204C46.604 28.3857 50 24.9858 50 20.7975V19.1442C50 15.9479 47.4086 13.3535 44.2158 13.3535ZM35.9163 5.77379H38.0336C39.5241 5.77379 40.7351 6.9862 40.7351 8.47839V8.48687C40.7351 9.97907 39.5241 11.1915 38.0336 11.1915H35.9163V5.77379ZM42.6829 19.7038C42.6829 21.3656 41.3364 22.7136 39.6765 22.7136H35.9163V16.6855H39.6765C41.3364 16.6855 42.6829 18.0335 42.6829 19.6953V19.7038Z" fill="#737373"/>
<path d="M23.8821 26.1728C30.2291 26.1728 35.3743 21.0218 35.3743 14.6676C35.3743 8.31349 30.2291 3.16245 23.8821 3.16245C17.5351 3.16245 12.3899 8.31349 12.3899 14.6676C12.3899 21.0218 17.5351 26.1728 23.8821 26.1728Z" fill="white"/>
<path d="M26.8801 5.18876C26.8801 5.18876 18.9532 3.56091 16.2093 11.8019C16.0569 12.2682 15.9637 12.76 15.896 13.2432C15.7351 14.3793 15.752 15.5494 15.9891 16.677C16.3025 18.1946 17.0223 19.5935 18.064 20.7381C18.3858 21.0857 18.733 21.4588 19.1819 21.6453C20.1389 22.0523 21.2822 22.4932 22.3323 22.3745C22.942 22.3066 23.357 21.8997 23.5433 21.3316C23.7127 20.8144 23.7805 20.0514 23.5349 19.5427C23.4248 19.3138 23.2639 19.1103 23.0775 18.9407C22.4 18.2964 21.46 17.9572 20.5792 17.7113C20.5792 17.7113 17.5813 17.457 17.1748 15.117C17.1748 15.117 17.124 13.3365 17.6829 12.7769C17.6829 12.7769 17.124 14.9135 20.1219 15.5239C23.1199 16.1344 24.8983 16.3887 26.067 19.5427C26.067 19.5427 26.4227 14.7609 30.3353 14.2013C30.3353 14.2013 34.2479 14.0995 34.2479 11.556C34.2479 11.556 35.7215 14.5574 32.4695 15.5748C32.4695 15.5748 28.8109 16.3718 28.7601 18.0844C28.7601 18.0844 28.2012 21.1197 32.2662 19.3392L33.4857 18.627C33.4857 18.627 31.3008 23.8667 26.4735 24.6806C26.4735 24.6806 18.5975 27.0715 14.5325 18.7288C14.5325 18.7288 11.941 12.5734 17.1748 7.38466C17.1748 7.37618 20.8333 3.66265 26.8801 5.18876Z" fill="#4B9F46"/>
<path d="M20.503 14.0911C21.2467 14.0911 21.8496 13.4875 21.8496 12.743C21.8496 11.9985 21.2467 11.395 20.503 11.395C19.7594 11.395 19.1565 11.9985 19.1565 12.743C19.1565 13.4875 19.7594 14.0911 20.503 14.0911Z" fill="#4B9F46"/>
<path d="M24.7967 11.0134C25.5404 11.0134 26.1433 10.4099 26.1433 9.66535C26.1433 8.92084 25.5404 8.31729 24.7967 8.31729C24.0531 8.31729 23.4502 8.92084 23.4502 9.66535C23.4502 10.4099 24.0531 11.0134 24.7967 11.0134Z" fill="#4B9F46"/>
<path d="M30.9197 13.15C31.6633 13.15 32.2662 12.5464 32.2662 11.8019C32.2662 11.0574 31.6633 10.4539 30.9197 10.4539C30.176 10.4539 29.5731 11.0574 29.5731 11.8019C29.5731 12.5464 30.176 13.15 30.9197 13.15Z" fill="#4B9F46"/>
<path d="M23.2469 6.30792C23.4417 6.24009 23.9075 6.44357 24.0938 6.49444C24.6951 6.65553 25.2879 6.88445 25.8214 7.2151C26.4058 7.5712 26.9308 8.06294 27.1764 8.7073C27.4728 9.48731 27.3712 10.6828 26.7445 11.2678C25.8299 12.1156 24.5172 12.7515 23.2554 12.4887C23.2554 12.4887 22.9081 14.8457 21.5023 14.905C21.5023 14.905 25.3895 15.7274 25.8892 17.7537C25.8892 17.7537 27.2188 14.0148 28.6331 12.0308C29.3529 11.0219 29.6239 9.71623 29.192 8.52925C28.7432 7.29141 27.6083 6.29096 26.3126 6.05356C25.2879 5.87552 24.2293 5.99421 23.2469 6.30792Z" fill="#4B9F46"/>
<path d="M0 34.1849V31.0903H0.914634V32.4977L1.99018 31.0903H3.06572L1.81233 32.5994L3.17581 34.1849H2.02405L0.914634 32.7944V34.1849H0Z" fill="#4B9F46"/>
<path d="M2.93024 34.1849L4.09894 31.0903H5.25917L6.43633 34.1849H5.51323L5.34385 33.6338H4.03119L3.85334 34.1849H2.93024ZM4.22597 33.0318H5.14907L4.80185 32.0144C4.79338 31.9975 4.77644 31.9466 4.7595 31.8618C4.7341 31.7685 4.70869 31.6753 4.68329 31.599C4.65788 31.6668 4.64094 31.7431 4.624 31.8194C4.5986 31.8872 4.58166 31.9551 4.56472 32.0144L4.22597 33.0318Z" fill="#4B9F46"/>
<path d="M6.63959 34.1849V31.0903H7.6135C7.79982 31.0903 7.96073 31.0903 8.08776 31.0988C8.21479 31.1072 8.32489 31.1157 8.40957 31.1327C8.55354 31.1666 8.68058 31.2174 8.79914 31.2938C8.92617 31.3785 9.01933 31.4888 9.07861 31.6159C9.14636 31.7431 9.18024 31.8872 9.18024 32.0483C9.18024 32.2857 9.11249 32.4807 8.98545 32.6333C8.85842 32.786 8.67211 32.8877 8.41804 32.9301L9.34115 34.1764H8.29101L7.51188 32.964V34.1764H6.63959V34.1849ZM7.51188 32.557H7.68125C7.88451 32.557 8.02848 32.5231 8.12163 32.4638C8.21479 32.3959 8.25713 32.2942 8.25713 32.167C8.25713 32.0144 8.21479 31.9042 8.1301 31.8364C8.04541 31.7685 7.90144 31.7346 7.69819 31.7346H7.51188V32.557Z" fill="#4B9F46"/>
<path d="M9.17175 34.1849L10.3405 31.0903H11.5007L12.6779 34.1849H11.7547L11.5854 33.6338H10.2727L10.0949 34.1849H9.17175ZM10.476 33.0318H11.3991L11.0518 32.0144C11.0434 31.9975 11.0264 31.9466 11.0095 31.8618C10.9841 31.7685 10.9587 31.6753 10.9417 31.599C10.9163 31.6668 10.8994 31.7431 10.8825 31.8194C10.8571 31.8872 10.8401 31.9551 10.8232 32.0144L10.476 33.0318Z" fill="#4B9F46"/>
<path d="M12.8896 34.1849V31.0903H13.8212C14.1938 31.0903 14.4648 31.0988 14.6257 31.1242C14.7781 31.1496 14.9052 31.1835 15.0237 31.2429C15.1508 31.3107 15.2439 31.3955 15.3117 31.4972C15.3794 31.6075 15.4133 31.7262 15.4133 31.8703C15.4133 32.0483 15.3625 32.1925 15.2693 32.2942C15.1677 32.3959 15.0153 32.4722 14.7951 32.5316C15.0322 32.5486 15.2185 32.6249 15.3625 32.7605C15.498 32.8962 15.5657 33.0827 15.5657 33.3116C15.5657 33.4727 15.5234 33.6168 15.4472 33.744C15.371 33.8712 15.2609 33.9729 15.1169 34.0408C15.0068 34.0916 14.8628 34.134 14.6934 34.1679C14.5071 34.1934 14.2277 34.2018 13.855 34.2018H12.8896V34.1849ZM13.7534 32.3281H13.9397C14.1684 32.3281 14.3293 32.3027 14.414 32.2603C14.4987 32.2094 14.541 32.1331 14.541 32.0229C14.541 31.9042 14.4987 31.8279 14.4224 31.777C14.3378 31.7262 14.1768 31.7007 13.9567 31.7007H13.7534V32.3281ZM13.7534 33.5575H14.0752C14.2954 33.5575 14.4479 33.5321 14.541 33.4812C14.6342 33.4303 14.6765 33.354 14.6765 33.2353C14.6765 33.1081 14.6342 33.0149 14.5495 32.964C14.4648 32.9131 14.3124 32.8877 14.0837 32.8877H13.7449V33.5575H13.7534Z" fill="#4B9F46"/>
<path d="M19.4868 32.6418C19.4868 32.8623 19.4445 33.0742 19.3513 33.2692C19.2666 33.4557 19.1311 33.6338 18.9533 33.7864C18.7839 33.939 18.5806 34.0577 18.3605 34.134C18.1233 34.2188 17.8947 34.2612 17.666 34.2612C17.4374 34.2612 17.2002 34.2188 16.9716 34.134C16.7429 34.0492 16.5481 33.9305 16.3788 33.7864C16.2094 33.6423 16.0823 33.4642 15.9807 33.2607C15.8876 33.0573 15.8452 32.8538 15.8452 32.6333C15.8452 32.4129 15.8876 32.2094 15.9807 32.0059C16.0739 31.8025 16.2094 31.6244 16.3788 31.4803C16.5481 31.3277 16.7429 31.209 16.9716 31.1242C17.1918 31.0479 17.4204 31.0055 17.666 31.0055C17.9116 31.0055 18.1487 31.0479 18.3605 31.1242C18.5806 31.209 18.7754 31.3192 18.9448 31.4803C19.1142 31.6329 19.2497 31.8109 19.3428 32.0059C19.4445 32.2179 19.4868 32.4214 19.4868 32.6418ZM17.6745 33.5575C17.9285 33.5575 18.1403 33.4727 18.3181 33.2947C18.4028 33.2099 18.4706 33.1081 18.5044 33.0064C18.5468 32.8962 18.5637 32.7775 18.5637 32.6503C18.5637 32.3959 18.479 32.1755 18.3096 32.0059C18.1403 31.8364 17.9285 31.7431 17.6745 31.7431C17.412 31.7431 17.2002 31.8279 17.0393 32.0059C16.8699 32.1755 16.7853 32.3959 16.7853 32.6503C16.7853 32.9216 16.8699 33.1336 17.0309 33.3031C17.2002 33.4727 17.412 33.5575 17.6745 33.5575Z" fill="#4B9F46"/>
<path d="M20.7487 34.1849V31.0903H22.832V31.7685H21.6548V32.3027H22.7642V32.9725H21.6548V33.4897H22.832V34.1849H20.7487Z" fill="#4B9F46"/>
<path d="M22.9336 34.1849L24.1023 31.0903H25.2625L26.4397 34.1849H25.5166L25.3472 33.6338H24.0345L23.8567 34.1849H22.9336ZM24.2293 33.0318H25.1524L24.8052 32.0144C24.7967 31.9975 24.7798 31.9466 24.7629 31.8618C24.7375 31.7685 24.712 31.6753 24.6866 31.599C24.6612 31.6668 24.6443 31.7431 24.6274 31.8194C24.602 31.8872 24.585 31.9551 24.5681 32.0144L24.2293 33.0318Z" fill="#4B9F46"/>
<path d="M27.8709 34.1849V31.0903H28.8025C29.1751 31.0903 29.4461 31.0988 29.607 31.1242C29.7595 31.1496 29.8865 31.1835 30.0051 31.2429C30.1321 31.3107 30.2252 31.3955 30.293 31.4972C30.3607 31.6075 30.3946 31.7262 30.3946 31.8703C30.3946 32.0483 30.3438 32.1925 30.2507 32.2942C30.149 32.3959 29.9966 32.4722 29.7764 32.5316C30.0135 32.5486 30.1998 32.6249 30.3438 32.7605C30.4793 32.8962 30.5471 33.0827 30.5471 33.3116C30.5471 33.4727 30.5047 33.6168 30.4285 33.744C30.3523 33.8712 30.2422 33.9729 30.0982 34.0408C29.9881 34.0916 29.8441 34.134 29.6663 34.1679C29.48 34.1934 29.2005 34.2018 28.8279 34.2018H27.8709V34.1849ZM28.7347 32.3281H28.921C29.1497 32.3281 29.3106 32.3027 29.3953 32.2603C29.48 32.2094 29.5223 32.1331 29.5223 32.0229C29.5223 31.9042 29.48 31.8279 29.4038 31.777C29.3191 31.7262 29.1582 31.7007 28.938 31.7007H28.7347V32.3281ZM28.7347 33.5575H29.0565C29.2767 33.5575 29.4292 33.5321 29.5223 33.4812C29.6155 33.4303 29.6578 33.354 29.6578 33.2353C29.6578 33.1081 29.6155 33.0149 29.5308 32.964C29.4461 32.9131 29.2937 32.8877 29.065 32.8877H28.7263V33.5575H28.7347Z" fill="#4B9F46"/>
<path d="M34.4681 32.6418C34.4681 32.8623 34.4258 33.0742 34.3326 33.2692C34.2479 33.4557 34.1124 33.6338 33.9346 33.7864C33.7652 33.939 33.562 34.0577 33.3418 34.134C33.1047 34.2188 32.876 34.2612 32.6473 34.2612C32.4187 34.2612 32.1815 34.2188 31.9529 34.134C31.7242 34.0492 31.5294 33.9305 31.3601 33.7864C31.1907 33.6423 31.0637 33.4642 30.962 33.2607C30.8689 33.0573 30.8265 32.8538 30.8265 32.6333C30.8265 32.4129 30.8689 32.2094 30.962 32.0059C31.0552 31.8025 31.1907 31.6244 31.3601 31.4803C31.5294 31.3277 31.7242 31.209 31.9529 31.1242C32.1731 31.0479 32.4017 31.0055 32.6473 31.0055C32.8929 31.0055 33.1216 31.0479 33.3418 31.1242C33.562 31.209 33.7568 31.3192 33.9261 31.4803C34.0955 31.6329 34.231 31.8109 34.3242 32.0059C34.4258 32.2179 34.4681 32.4214 34.4681 32.6418ZM32.6558 33.5575C32.9099 33.5575 33.1216 33.4727 33.2994 33.2947C33.3841 33.2099 33.4434 33.1081 33.4857 33.0064C33.5281 32.8962 33.545 32.7775 33.545 32.6503C33.545 32.3959 33.4603 32.1755 33.291 32.0059C33.1216 31.8364 32.9099 31.7431 32.6558 31.7431C32.3933 31.7431 32.1816 31.8279 32.0206 32.0059C31.8513 32.1755 31.7666 32.3959 31.7666 32.6503C31.7666 32.9216 31.8513 33.1336 32.0122 33.3031C32.1815 33.4727 32.3933 33.5575 32.6558 33.5575Z" fill="#4B9F46"/>
<path d="M35.7977 34.1849H34.9254V31.0903H35.8994C36.272 31.0903 36.543 31.1072 36.7039 31.1411C36.8563 31.1751 36.9834 31.2344 37.0935 31.3107C37.2205 31.404 37.3137 31.5227 37.3814 31.6583C37.4492 31.8025 37.483 31.9551 37.483 32.1331C37.483 32.3196 37.4492 32.4807 37.3814 32.6164C37.3221 32.752 37.229 32.8707 37.0935 32.964C37.0003 33.0318 36.8817 33.0827 36.7547 33.1081C36.6362 33.1336 36.4244 33.1505 36.128 33.1505H35.9671H35.7977V34.1849ZM35.7977 32.4807H35.9756C36.1958 32.4807 36.3482 32.4553 36.4414 32.3959C36.5261 32.3451 36.5769 32.2518 36.5769 32.1162C36.5769 31.989 36.5345 31.8957 36.4498 31.8364C36.3651 31.777 36.2127 31.7516 35.9925 31.7516H35.8062V32.4807H35.7977Z" fill="#4B9F46"/>
<path d="M37.8303 34.1849V31.0903H38.7534V32.2942H39.9898V31.0903H40.9129V34.1849H39.9898V32.9216H38.7534V34.1849H37.8303Z" fill="#4B9F46"/>
<path d="M41.5227 34.1849V31.0903H43.606V31.7685H42.4288V32.3027H43.5383V32.9725H42.4288V33.4897H43.606V34.1849H41.5227Z" fill="#4B9F46"/>
<path d="M44.0972 34.1849V31.0903H45.0203V33.4642H46.1721V34.1849H44.0972Z" fill="#4B9F46"/>
<path d="M50 32.6418C50 32.8623 49.9577 33.0742 49.8645 33.2692C49.7798 33.4557 49.6443 33.6338 49.4665 33.7864C49.2971 33.939 49.0938 34.0577 48.8736 34.134C48.6365 34.2188 48.4079 34.2612 48.1792 34.2612C47.9505 34.2612 47.7134 34.2188 47.4848 34.134C47.2561 34.0492 47.0613 33.9305 46.8919 33.7864C46.7226 33.6423 46.5955 33.4642 46.4939 33.2607C46.4007 33.0573 46.3584 32.8538 46.3584 32.6333C46.3584 32.4129 46.4007 32.2094 46.4939 32.0059C46.5871 31.8025 46.7226 31.6244 46.8919 31.4803C47.0613 31.3277 47.2561 31.209 47.4848 31.1242C47.7049 31.0479 47.9336 31.0055 48.1792 31.0055C48.4248 31.0055 48.6535 31.0479 48.8736 31.1242C49.0938 31.209 49.2886 31.3192 49.458 31.4803C49.6274 31.6329 49.7629 31.8109 49.856 32.0059C49.9577 32.2179 50 32.4214 50 32.6418ZM48.1877 33.5575C48.4417 33.5575 48.6535 33.4727 48.8313 33.2947C48.916 33.2099 48.9753 33.1081 49.0176 33.0064C49.06 32.8962 49.0769 32.7775 49.0769 32.6503C49.0769 32.3959 48.9922 32.1755 48.8228 32.0059C48.6535 31.8364 48.4417 31.7431 48.1877 31.7431C47.9251 31.7431 47.7134 31.8279 47.5525 32.0059C47.3831 32.1755 47.2984 32.3959 47.2984 32.6503C47.2984 32.9216 47.3831 33.1336 47.544 33.3031C47.7134 33.4727 47.9251 33.5575 48.1877 33.5575Z" fill="#4B9F46"/>

</svg>
