<svg width="108" height="76" viewBox="0 0 108 76" fill="none" xmlns="http://www.w3.org/2000/svg">
<circle cx="59" cy="40" r="36" fill="#4B9F46" fill-opacity="0.05"/>
<path d="M108 15.6993C108 22.3711 103.766 28.3129 97.4418 30.5176C97.3436 30.5516 97.244 30.5857 97.1444 30.6168V14.6687H76.5083C76.5142 14.5695 76.5217 14.4703 76.5306 14.3726H97.1444V11.2573C97.1444 10.8487 96.8113 10.517 96.4008 10.517H77.3544C77.3886 10.4178 77.4243 10.3186 77.463 10.2209C80.5026 2.09655 89.5811 -2.03445 97.7392 0.991989C103.909 3.27959 108 9.14443 108 15.6993Z" fill="#F2F2F2"/>
<path d="M96.4007 10.2209H23.9804C23.4064 10.2209 22.9395 10.6859 22.9395 11.2574V60.1188C22.9395 60.6903 23.4064 61.1552 23.9804 61.1552H96.4007C96.9748 61.1552 97.4417 60.6903 97.4417 60.1188V11.2574C97.4417 10.6844 96.9762 10.2209 96.4007 10.2209ZM97.1443 60.1188C97.1443 60.5274 96.8112 60.8591 96.4007 60.8591H23.9804C23.57 60.8591 23.2369 60.5274 23.2369 60.1188V11.2574C23.2369 10.8487 23.57 10.5171 23.9804 10.5171H96.4007C96.8112 10.5171 97.1443 10.8487 97.1443 11.2574V60.1188Z" fill="#3F3D56"/>
<path d="M97.293 14.3726H23.0881V14.6687H97.293V14.3726Z" fill="#3F3D56"/>
<path d="M43.3122 20.4373H30.226C29.652 20.4373 29.1851 20.9022 29.1851 21.4737V34.5034C29.1851 35.0749 29.652 35.5399 30.226 35.5399H43.3122C43.8862 35.5399 44.3532 35.0749 44.3532 34.5034V21.4737C44.3532 20.9007 43.8877 20.4373 43.3122 20.4373ZM44.0558 34.5034C44.0558 34.9121 43.7227 35.2437 43.3122 35.2437H30.226C29.8156 35.2437 29.4825 34.9121 29.4825 34.5034V21.4737C29.4825 21.0651 29.8156 20.7334 30.226 20.7334H43.3122C43.7227 20.7334 44.0558 21.0651 44.0558 21.4737V34.5034Z" fill="#3F3D56"/>
<path d="M66.8079 20.5114H53.7217C53.1879 20.5128 52.7566 20.9422 52.7551 21.4738V34.5035C52.7566 35.035 53.1879 35.4644 53.7217 35.4659H66.8079C67.3418 35.4644 67.7731 35.035 67.7745 34.5035V21.4738C67.7745 20.9422 67.3418 20.5128 66.8079 20.5114Z" fill="#4B9F46"/>
<path d="M90.3038 20.5114H77.2176C76.6837 20.5128 76.2525 20.9422 76.251 21.4738V34.5035C76.2525 35.035 76.6837 35.4644 77.2176 35.4659H90.3038C90.8376 35.4644 91.2689 35.035 91.2704 34.5035V21.4738C91.2704 20.9422 90.8376 20.5128 90.3038 20.5114Z" fill="#E6E6E6"/>
<path d="M43.3123 40.0558H30.2261C29.6923 40.0573 29.261 40.4867 29.2595 41.0182V54.0479C29.261 54.5795 29.6923 55.0088 30.2261 55.0103H43.3123C43.8462 55.0088 44.2775 54.5795 44.2789 54.0479V41.0182C44.2789 40.4867 43.8462 40.0573 43.3123 40.0558Z" fill="#E6E6E6"/>
<path d="M66.8079 40.0558H53.7217C53.1879 40.0573 52.7566 40.4867 52.7551 41.0182V54.0479C52.7566 54.5795 53.1879 55.0088 53.7217 55.0103H66.8079C67.3418 55.0088 67.7731 54.5795 67.7745 54.0479V41.0182C67.7745 40.4867 67.3418 40.0573 66.8079 40.0558Z" fill="#4B9F46"/>
<path d="M90.3038 40.0558H77.2176C76.6837 40.0573 76.2525 40.4867 76.251 41.0182V54.0479C76.2525 54.5795 76.6837 55.0088 77.2176 55.0103H90.3038C90.8376 55.0088 91.2689 54.5795 91.2704 54.0479V41.0182C91.2704 40.4867 90.8376 40.0573 90.3038 40.0558Z" fill="#E6E6E6"/>
<path d="M40.1151 42.2027H27.0289C26.495 42.2027 26.0623 41.7718 26.0623 41.2403V28.2106C26.0623 27.679 26.495 27.2482 27.0289 27.2482H40.1151C40.6489 27.2482 41.0817 27.679 41.0817 28.2106V41.2403C41.0817 41.7718 40.6489 42.2012 40.1151 42.2027Z" fill="#4B9F46"/>
<path d="M4.53708 21.4383C4.55493 21.5834 4.57575 21.7344 4.59657 21.8884C4.59657 21.8884 4.59805 21.9047 4.60251 21.9328C4.67092 22.3963 5.27616 26.2415 6.4331 25.8847C6.43458 25.8847 6.43756 25.8832 6.43905 25.8832C6.51935 25.8269 6.60114 25.7736 6.68441 25.7233C7.4562 25.2436 8.30978 24.9371 9.21838 24.9208C10.3114 24.9001 11.5085 25.2835 12.4364 24.7076L12.4974 24.6424C11.5471 24.6424 10.7753 23.8754 10.7753 22.9278C10.7753 22.5384 10.9092 22.1609 11.1531 21.8573C12.0007 20.8016 13.858 20.9645 14.6001 19.8333C15.2291 18.8738 14.6477 17.5575 13.8105 16.7743C12.1687 15.2388 9.54256 14.8613 7.53353 15.8725C5.52301 16.8824 4.26941 19.2114 4.53708 21.4383Z" fill="#2F2E41"/>
<path d="M11.6869 25.4049C13.704 25.4049 15.3392 23.7768 15.3392 21.7684C15.3392 19.7601 13.704 18.132 11.6869 18.132C9.66983 18.132 8.03467 19.7601 8.03467 21.7684C8.03467 23.7768 9.66983 25.4049 11.6869 25.4049Z" fill="#A0616A"/>
<path d="M17.9326 46.9559C17.1043 46.91 16.4693 46.2023 16.5154 45.3775L15.1592 40.7653L17.0939 38.8035L18.2092 43.9769C18.2969 43.9872 18.3832 44.0065 18.4664 44.0316C19.2561 44.2745 19.6977 45.1066 19.4553 45.8928C19.2561 46.5561 18.6255 46.9959 17.9326 46.9559Z" fill="#A0616A"/>
<path d="M4.05534 50.5375L7.88901 51.032L2.48796 68.6976L0.696045 68.363L4.05534 50.5375Z" fill="#A0616A"/>
<path d="M3.86341 68.4268C5.06496 68.6519 5.85608 69.8038 5.63154 71.0002L0 69.9474L0.408944 67.7812L3.86341 68.4268Z" fill="#2F2E41"/>
<path d="M10.6533 52.9552L14.5331 52.9537L14.261 69.3134H12.4378L10.6533 52.9552Z" fill="#A0616A"/>
<path d="M15.5638 68.7954C16.7862 68.7954 17.778 69.783 17.778 71.0001H12.0469V68.7954H15.5638Z" fill="#2F2E41"/>
<path d="M15.2916 55.1747C14.7012 55.1347 0.817941 54.1427 0.649902 50.8172V50.8053L0.652876 50.795C0.661799 50.7594 1.61799 47.1526 6.27549 38.7691L5.36689 35.6361C4.61146 33.0479 5.39068 30.2554 7.38039 28.4268C9.30317 26.5967 12.1108 26.0296 14.5986 26.9669C14.7027 27.0054 14.8068 27.0454 14.9228 27.0928C14.9481 27.109 17.5252 28.7215 17.027 31.8664C16.5363 34.9609 15.2187 47.0741 15.2068 47.1866L15.3749 55.1821L15.2916 55.1747Z" fill="#4B9F46"/>
<path d="M13.9709 43.3949L19.601 42.736L16.4558 30.3696L13.9709 43.3949Z" fill="#4B9F46"/>
<path d="M7.9842 42.231C7.2258 42.5686 6.33653 42.2295 5.99896 41.4744L2.6709 37.9948L3.4873 35.3682L6.85998 39.4577C6.94325 39.4266 7.02802 39.4044 7.11427 39.3896C7.92769 39.2445 8.70394 39.7835 8.84968 40.5934C8.97608 41.2715 8.61918 41.9496 7.9842 42.231Z" fill="#A0616A"/>
<path d="M0.941202 37.7535L0.927819 37.7402C-0.243993 36.1115 0.108443 33.8491 1.72043 32.6512L7.81593 28.156L10.2131 27.8154L12.1626 33.4685L4.58601 35.765L7.38022 38.71L4.44474 40.6008L0.941202 37.7535Z" fill="#4B9F46"/>
<path d="M14.9168 19.6394C15.0774 19.1685 14.3918 18.8206 14.0766 18.4341C13.745 18.0581 13.3137 17.7827 12.8319 17.639C11.4058 17.1756 9.84139 17.4539 8.66512 18.3808C8.33797 18.6237 8.07922 18.9464 7.91266 19.3166C7.7476 19.6942 7.78031 20.128 7.99743 20.4774C8.23685 20.8239 8.67999 20.9868 9.10381 20.9927C9.52762 20.9764 9.94549 20.8935 10.3425 20.7484L9.79678 21.3999C11.6303 21.2385 13.4029 20.6566 14.9748 19.7016L14.9168 19.6394Z" fill="#2F2E41"/>
<path d="M4.59644 21.8883C4.59644 21.8883 4.59792 21.9046 4.60238 21.9327C4.67079 22.3962 5.27603 26.2414 6.43297 25.8846C6.43445 25.8846 6.43743 25.8831 6.43892 25.8831C6.54301 25.8505 6.62331 25.7957 6.68428 25.7232C7.35941 24.9399 5.80542 22.0689 5.80542 22.0689L4.59644 21.8883Z" fill="#2F2E41"/>
</svg>
