<svg width="111" height="77" viewBox="0 0 111 77" fill="none" xmlns="http://www.w3.org/2000/svg">
<circle cx="60" cy="41" r="36" fill="#4B9F46" fill-opacity="0.05"/>
<path d="M63.6812 34.69H2.27714C1.56743 34.6885 0.993371 34.1145 0.991943 33.4048V1.56035C0.993371 0.850631 1.56743 0.276574 2.27714 0.275146H63.6812C64.3909 0.276574 64.965 0.850631 64.9664 1.56035V33.4048C64.965 34.1145 64.3909 34.6885 63.6812 34.69ZM2.27714 0.560747C1.72594 0.560747 1.27754 1.00914 1.27754 1.56035V33.4048C1.27754 33.956 1.72594 34.4044 2.27714 34.4044H63.6812C64.2324 34.4044 64.6808 33.956 64.6808 33.4048V1.56035C64.6808 1.00914 64.2324 0.560747 63.6812 0.560747H2.27714Z" fill="#3F3D56"/>
<path d="M20.9839 15.4832H11.2735C10.5638 15.4818 9.98971 14.9077 9.98828 14.198V6.20122C9.98971 5.4915 10.5638 4.91744 11.2735 4.91602H20.9839C21.6936 4.91744 22.2677 5.4915 22.2691 6.20122V14.198C22.2677 14.9077 21.6936 15.4818 20.9839 15.4832ZM11.2735 5.20162C10.7223 5.20162 10.2739 5.65001 10.2739 6.20122V14.198C10.2739 14.7492 10.7223 15.1976 11.2735 15.1976H20.9839C21.5351 15.1976 21.9835 14.7492 21.9835 14.198V6.20122C21.9835 5.65001 21.5351 5.20162 20.9839 5.20162H11.2735Z" fill="#3F3D56"/>
<path d="M9.4885 18.4819C8.97585 18.4819 8.5603 18.8975 8.5603 19.4101C8.5603 19.9228 8.97585 20.3383 9.4885 20.3383H56.4697C56.9824 20.3383 57.3979 19.9228 57.3979 19.4101C57.3979 18.8975 56.9824 18.4819 56.4697 18.4819H9.4885Z" fill="#E6E6E6"/>
<path d="M25.3393 8.77173C24.8267 8.77173 24.4111 9.18728 24.4111 9.69993C24.4111 10.2126 24.8267 10.6281 25.3393 10.6281H45.4741C45.9868 10.6281 46.4023 10.2126 46.4023 9.69993C46.4023 9.18728 45.9868 8.77173 45.4741 8.77173H25.3393Z" fill="#4B9F46"/>
<path d="M25.3393 13.6272C24.8267 13.6272 24.4111 14.0427 24.4111 14.5554C24.4111 15.0681 24.8267 15.4836 25.3393 15.4836H56.0414C56.554 15.4836 56.9696 15.0681 56.9696 14.5554C56.9696 14.0427 56.554 13.6272 56.0414 13.6272H25.3393Z" fill="#4B9F46"/>
<path d="M9.4885 23.3372C8.97585 23.3372 8.5603 23.7527 8.5603 24.2654C8.5603 24.778 8.97585 25.1936 9.4885 25.1936H56.4697C56.9824 25.1936 57.3979 24.778 57.3979 24.2654C57.3979 23.7527 56.9824 23.3372 56.4697 23.3372H9.4885Z" fill="#E6E6E6"/>
<path d="M9.4885 28.1924C8.97585 28.1924 8.5603 28.6079 8.5603 29.1206C8.5603 29.6332 8.97585 30.0488 9.4885 30.0488H56.4697C56.9824 30.0488 57.3979 29.6332 57.3979 29.1206C57.3979 28.6079 56.9824 28.1924 56.4697 28.1924H9.4885Z" fill="#E6E6E6"/>
<path d="M16.0145 14.1882C18.207 14.1882 19.9844 12.4109 19.9844 10.2184C19.9844 8.02589 18.207 6.24854 16.0145 6.24854C13.822 6.24854 12.0447 8.02589 12.0447 10.2184C12.0447 12.4109 13.822 14.1882 16.0145 14.1882Z" fill="#CCCCCC"/>
<path d="M16.1174 14.608C17.7491 14.608 19.0719 13.2853 19.0719 11.6535C19.0719 10.0218 17.7491 8.69897 16.1174 8.69897C14.4856 8.69897 13.1628 10.0218 13.1628 11.6535C13.1628 13.2853 14.4856 14.608 16.1174 14.608Z" fill="#E6E6E6"/>
<path d="M13.1685 9.76978C14.3223 10.4738 15.6232 10.9036 16.9698 11.0221L16.5685 10.5423C16.8598 10.6509 17.1669 10.7108 17.4782 10.7237C17.7938 10.7323 18.0951 10.5923 18.2907 10.3438C18.4506 10.0854 18.4735 9.7655 18.3521 9.48847C18.2293 9.21429 18.0394 8.97724 17.7995 8.79874C16.9355 8.11473 15.7874 7.91053 14.7393 8.25182C14.3851 8.35749 14.0695 8.56027 13.8253 8.83873C13.5826 9.1229 13.4983 9.50989 13.6011 9.86831" fill="#CCCCCC"/>
<path d="M110.767 63.0217H65.0293C64.9351 63.0217 64.8594 62.9461 64.8594 62.8518C64.8594 62.7576 64.9351 62.6819 65.0293 62.6819H65.0307H110.768C110.862 62.6819 110.938 62.7576 110.938 62.8518C110.938 62.9461 110.862 63.0203 110.767 63.0217C110.768 63.0217 110.767 63.0217 110.767 63.0217Z" fill="#3F3D56"/>
<path d="M88.2428 42.2585C90.8454 42.2585 92.9552 40.1487 92.9552 37.5461C92.9552 34.9436 90.8454 32.8337 88.2428 32.8337C85.6402 32.8337 83.5304 34.9436 83.5304 37.5461C83.5304 40.1487 85.6402 42.2585 88.2428 42.2585Z" fill="#2F2E41"/>
<path d="M90.8661 64.2866L91.2288 65.9988L98.009 65.4147L97.472 62.8857L90.8661 64.2866Z" fill="#A0616A"/>
<path d="M90.3391 69.6386L89.1981 64.2564L91.2773 63.8152L91.977 67.1182C92.2212 68.2663 91.4872 69.3958 90.3391 69.6386Z" fill="#2F2E41"/>
<path d="M86.6191 64.1953L85.8565 65.7704L79.4163 63.5784L80.5415 61.2522L86.6191 64.1953Z" fill="#A0616A"/>
<path d="M84.8614 66.6784L86.3322 63.6396L88.2457 64.5664L85.8481 69.5187C84.7914 69.0061 84.3502 67.7352 84.8614 66.6784Z" fill="#2F2E41"/>
<path d="M73.9299 61.0823C74.7625 61.238 75.5636 60.6882 75.7192 59.8557C75.7364 59.7671 75.7449 59.6772 75.7449 59.5858L86.365 49.794L83.7275 47.7505L74.1113 58.0235C73.2616 58.0735 72.6119 58.8032 72.6619 59.6543C72.7047 60.3669 73.2288 60.9566 73.9299 61.0823Z" fill="#A0616A"/>
<path d="M88.3657 42.7565C90.3026 42.7565 91.8729 41.1863 91.8729 39.2494C91.8729 37.3124 90.3026 35.7422 88.3657 35.7422C86.4287 35.7422 84.8585 37.3124 84.8585 39.2494C84.8585 41.1863 86.4287 42.7565 88.3657 42.7565Z" fill="#A0616A"/>
<path d="M80.6746 50.9694L81.6742 47.9705L86.815 43.8293C86.815 43.8293 89.3854 44.1149 92.6698 42.2585L93.7408 42.2885C94.4862 42.31 95.0731 42.9297 95.0517 43.6751C95.0517 43.6965 95.0502 43.718 95.0488 43.7408C94.7789 47.238 94.2563 56.243 95.74 59.3232C95.74 59.3232 87.886 61.3224 84.316 57.1812C84.316 57.1812 85.744 55.6104 84.316 52.7544L82.4596 53.3256L80.6746 50.9694Z" fill="#4B9F46"/>
<path d="M84.7441 57.1811C84.7441 57.1811 75.4621 56.3243 74.4625 59.0375C73.4629 61.7507 74.6053 63.0359 76.3189 63.6071C78.0325 64.1783 82.1737 64.8923 82.1737 64.8923L84.0301 62.6075L88.8853 62.8931C88.8853 62.8931 94.2946 66.0304 95.7911 69.3862C96.4452 70.8657 97.8589 71.8667 99.4725 71.9909C100.672 72.0737 101.737 71.6211 101.737 69.7475C101.737 65.4635 95.7397 59.3231 95.7397 59.3231L84.7441 57.1811Z" fill="#2F2E41"/>
<path d="M77.6755 61.3935C77.6755 61.3935 80.1031 60.6795 83.9587 62.5359L77.6755 61.3935Z" fill="#2F2E41"/>
<path d="M84.8671 37.0133C86.2365 37.8502 87.7816 38.3585 89.3796 38.4999L88.904 37.9301C89.251 38.0586 89.6152 38.13 89.9836 38.1443C90.3577 38.1557 90.7162 37.9872 90.9475 37.6931C91.1374 37.3875 91.1646 37.0076 91.0218 36.6778C90.8761 36.3536 90.6505 36.0709 90.3663 35.8581C89.341 35.047 87.9773 34.8028 86.7349 35.2098C86.3151 35.3354 85.9395 35.5768 85.6496 35.9052C85.3612 36.2422 85.2612 36.702 85.384 37.1276" fill="#2F2E41"/>
<path d="M88.6869 33.3562C87.5802 32.2337 86.2421 31.3684 84.7656 30.82C83.8174 30.4687 82.7864 30.2517 81.7939 30.4516C80.8014 30.6515 79.8661 31.337 79.5891 32.3094C79.3634 33.1048 79.5962 33.9602 79.9475 34.7099C80.2988 35.4596 80.7672 36.1522 81.0499 36.929C82.0095 39.5565 80.6586 42.4639 78.0311 43.425C77.3671 43.6677 76.6588 43.7691 75.9534 43.722C76.9273 43.852 77.8255 44.3103 78.7765 44.5531C79.7276 44.7959 80.8514 44.7802 81.5597 44.0976C82.308 43.3764 82.3237 42.2026 82.2865 41.1645C82.2323 39.6208 82.1794 38.0757 82.1252 36.5306C82.0981 35.7423 82.0738 34.9298 82.3579 34.1944C82.6421 33.459 83.3176 32.8149 84.1044 32.8221C84.7013 32.8278 85.2297 33.1891 85.7095 33.5461C86.1893 33.9031 86.6948 34.2829 87.2903 34.3372C87.8857 34.3915 88.564 33.9502 88.5198 33.3547" fill="#2F2E41"/>
<path d="M89.9892 56.6653C90.0678 56.6653 90.1477 56.6725 90.2248 56.6853L95.0743 51.5231L94.5802 49.8752L96.9693 48.8042L98.453 52.4299L91.4772 57.9791C91.5786 58.8002 90.996 59.5485 90.1749 59.6513C89.3538 59.7541 88.6055 59.1701 88.5027 58.349C88.4013 57.5279 88.9839 56.7796 89.805 56.6768C89.8664 56.6696 89.9278 56.6653 89.9892 56.6653Z" fill="#A0616A"/>
<path d="M93.1694 42.4723C93.8506 42.1696 94.6488 42.4766 94.9516 43.1578C94.9587 43.1749 94.9659 43.192 94.973 43.2092L97.4534 49.4695L93.5978 52.0399L93.1694 42.4723Z" fill="#4B9F46"/>
<path d="M89.1296 57.1967C84.233 54.3064 78.0655 54.7249 73.603 58.2477C73.4445 58.402 73.266 58.5362 73.0746 58.6476C72.9047 58.7218 72.7019 58.6604 72.532 58.6176C71.4081 58.3348 70.23 57.9007 69.4018 57.0554C68.6878 56.3256 68.188 55.2104 68.5478 54.1951C68.8606 53.404 69.6417 52.9013 70.4914 52.9456C71.481 53.0341 71.8851 54.1322 71.6695 54.9933C71.4138 56.0101 70.4242 56.6912 69.4846 57.0182C67.7525 57.6208 65.7433 57.201 64.3124 56.08C63.5556 55.4931 62.9815 54.702 62.6588 53.7995C62.2661 52.6885 62.2418 51.4847 62.446 50.3323C62.873 47.9233 64.1782 45.8555 65.4048 43.7849C66.5458 41.8571 67.6868 39.7922 67.8296 37.5103C67.9438 35.6939 67.4669 33.6875 66.1131 32.3966C65.7932 32.091 65.4305 31.8354 65.035 31.6355C64.7894 31.5113 64.5723 31.8811 64.8193 32.0054C66.5715 32.8921 67.3498 34.8585 67.4126 36.7349C67.4911 39.074 66.4201 41.1988 65.272 43.1695C64.0097 45.3329 62.5988 47.4592 62.0847 49.9525C61.8405 51.1363 61.802 52.3772 62.1304 53.5496C62.4046 54.5478 62.9572 55.4474 63.7226 56.1443C65.1506 57.4338 67.2198 58.0207 69.1033 57.578C70.1144 57.341 71.124 56.7897 71.7166 55.9158C72.2921 55.0676 72.3492 53.8195 71.6109 53.0427C70.9583 52.3558 69.9087 52.4015 69.1448 52.8713C68.2665 53.4111 67.8853 54.3721 68.0438 55.3775C68.2223 56.4999 69.0091 57.4438 69.9459 58.0378C70.4799 58.3663 71.0526 58.6276 71.6495 58.8147C71.9479 58.916 72.2521 59.0017 72.5591 59.0703C72.7619 59.126 72.9761 59.126 73.1789 59.0703C73.3731 58.9846 73.5501 58.8661 73.7015 58.719C73.9571 58.5091 74.2213 58.3106 74.4926 58.1221C75.0181 57.7565 75.5693 57.4295 76.142 57.141C79.6049 55.3903 83.6604 55.2432 87.2418 56.7369C87.8173 56.9754 88.3756 57.2553 88.9111 57.5723C89.0154 57.628 89.1453 57.5894 89.201 57.4852C89.2567 57.3809 89.2239 57.2567 89.1296 57.1967Z" fill="#3F3D56"/>
</svg>
