<svg width="83" height="78" viewBox="0 0 83 78" fill="none" xmlns="http://www.w3.org/2000/svg">
<circle cx="46" cy="42" r="36" fill="#4B9F46" fill-opacity="0.05"/>
<path d="M56.3787 20.2765H22.3176C21.7578 20.2765 21.3025 19.8199 21.3025 19.2586V1.01789C21.3025 0.456565 21.7578 0 22.3176 0H56.3787C56.9385 0 57.3938 0.456565 57.3938 1.01789V19.2586C57.3938 19.8215 56.9401 20.2765 56.3787 20.2765Z" fill="#E6E6E6"/>
<path d="M28.1355 12.7651C30.2041 12.7651 31.881 11.0836 31.881 9.00938C31.881 6.93515 30.2041 5.25366 28.1355 5.25366C26.0668 5.25366 24.3899 6.93515 24.3899 9.00938C24.3899 11.0836 26.0668 12.7651 28.1355 12.7651Z" fill="white"/>
<path d="M52.2526 5.6462H36.96C36.6434 5.6462 36.3877 5.38977 36.3877 5.07237C36.3877 4.75496 36.6434 4.49854 36.96 4.49854H52.2526C52.5692 4.49854 52.8249 4.75496 52.8249 5.07237C52.8249 5.38977 52.5692 5.6462 52.2526 5.6462Z" fill="white"/>
<path d="M44.2469 8.2712H36.96C36.6434 8.2712 36.3877 8.01477 36.3877 7.69737C36.3877 7.37996 36.6434 7.12354 36.96 7.12354H44.2469C44.5634 7.12354 44.8191 7.37996 44.8191 7.69737C44.8191 8.01477 44.5634 8.2712 44.2469 8.2712Z" fill="white"/>
<path d="M49.3787 10.895H36.96C36.6434 10.895 36.3877 10.6386 36.3877 10.3212C36.3877 10.0037 36.6434 9.74731 36.96 9.74731H49.3787C49.6953 9.74731 49.951 10.0037 49.951 10.3212C49.951 10.6386 49.6953 10.895 49.3787 10.895Z" fill="white"/>
<path d="M52.2526 13.519H36.96C36.6434 13.519 36.3877 13.2626 36.3877 12.9452C36.3877 12.6278 36.6434 12.3713 36.96 12.3713H52.2526C52.5692 12.3713 52.8249 12.6278 52.8249 12.9452C52.8249 13.2626 52.5692 13.519 52.2526 13.519Z" fill="white"/>
<path d="M51.7738 18.2655H49.2414C48.6613 18.2671 48.1888 17.7949 48.1873 17.2132C48.1857 16.6316 48.6566 16.1578 49.2367 16.1562C49.2383 16.1562 49.2398 16.1562 49.2398 16.1562H51.7722C52.3523 16.1562 52.8232 16.6285 52.8232 17.2117C52.8248 17.7933 52.3539 18.2655 51.7738 18.2655Z" fill="white"/>
<path d="M2.50277 20.5723H0.734458C0.329025 20.5723 0 20.2423 0 19.8358C0 19.4293 0.329025 19.0994 0.734458 19.0994H2.50277C2.9082 19.0994 3.23723 19.4293 3.23723 19.8358C3.23723 20.2423 2.9082 20.5723 2.50277 20.5723Z" fill="white"/>
<path d="M46.4002 41.6974H1.92726C1.19592 41.6958 0.603366 41.1017 0.601807 40.3684V16.5519C0.603366 15.8186 1.19592 15.2245 1.92726 15.2229H46.4002C47.1315 15.2245 47.7241 15.8186 47.7257 16.5519V40.3684C47.7257 41.1017 47.1331 41.6974 46.4002 41.6974Z" fill="#4B9F46"/>
<path d="M9.52296 31.8893C12.2237 31.8893 14.4131 29.694 14.4131 26.9859C14.4131 24.2778 12.2237 22.0825 9.52296 22.0825C6.82221 22.0825 4.63281 24.2778 4.63281 26.9859C4.63281 29.694 6.82221 31.8893 9.52296 31.8893Z" fill="white"/>
<path d="M41.0128 22.5951H21.0467C20.6335 22.5951 20.2998 22.2589 20.2998 21.8461C20.2998 21.4333 20.6351 21.0972 21.0467 21.0972H41.0128C41.426 21.0972 41.7597 21.4333 41.7597 21.8461C41.7597 22.2589 41.426 22.5951 41.0128 22.5951Z" fill="white"/>
<path d="M30.5604 26.0223H21.0467C20.6335 26.0223 20.2998 25.6862 20.2998 25.2734C20.2998 24.8606 20.6351 24.5244 21.0467 24.5244H30.5604C30.9736 24.5244 31.3073 24.8606 31.3073 25.2734C31.3073 25.6862 30.9736 26.0223 30.5604 26.0223Z" fill="white"/>
<path d="M37.261 29.4486H21.0467C20.6335 29.4486 20.2998 29.1124 20.2998 28.6996C20.2998 28.2869 20.6351 27.9507 21.0467 27.9507H37.261C37.6742 27.9507 38.0079 28.2869 38.0079 28.6996C38.0079 29.1124 37.6742 29.4486 37.261 29.4486Z" fill="white"/>
<path d="M41.0128 32.8744H21.0467C20.6335 32.8744 20.2998 32.5382 20.2998 32.1254C20.2998 31.7126 20.6351 31.3765 21.0467 31.3765H41.0128C41.426 31.3765 41.7597 31.7126 41.7597 32.1254C41.7597 32.5382 41.426 32.8744 41.0128 32.8744Z" fill="white"/>
<path d="M40.3874 39.0726H37.0816C36.3237 39.0726 35.7078 38.4581 35.7078 37.6966C35.7078 36.9367 36.3206 36.3191 37.08 36.3191H37.0816H40.3874C41.1452 36.3191 41.7612 36.9336 41.7612 37.695C41.7612 38.4549 41.1484 39.0726 40.389 39.0726H40.3874Z" fill="white"/>
<path d="M72.0843 73.2601H70.118L69.1824 57.937H72.0843V73.2601Z" fill="#A0616A"/>
<path d="M68.7145 72.6973H72.5053V75.0911H66.3271C66.3271 73.7699 67.3953 72.6973 68.7145 72.6973Z" fill="#2F2E41"/>
<path d="M81.8926 71.1885L80.0869 71.9671L72.3337 57.5338L75.0002 56.3845L81.8926 71.1885Z" fill="#A0616A"/>
<path d="M78.5745 72.0045L82.0581 70.5034L83 72.7034L77.3239 75.1504C76.8031 73.9339 77.3629 72.5267 78.5745 72.0045Z" fill="#2F2E41"/>
<path d="M82.1811 57.9603C82.1811 57.9603 78.2843 38.0372 77.6699 36.3579C77.3315 35.4401 77.1085 34.7725 77.1085 34.7725L65.6566 35.4292L65.5631 36.3579L64.0193 59.6583C64.0193 59.6583 64.5651 58.1776 65.0547 57.9056C65.5443 57.6335 65.4929 59.6552 65.4929 59.6552" fill="#2F2E41"/>
<path d="M65.7455 35.4213H75.7691C75.4884 34.4112 75.7691 33.4747 76.1714 32.757C76.4521 32.2519 76.806 31.7922 77.2208 31.3904L77.2894 31.3294L80.7917 30.5508L80.9804 30.5101C80.9804 30.5101 81.0085 24.1292 78.7552 23.2551C77.5171 22.7814 76.3554 22.1293 75.3028 21.3225C75.1999 21.2412 75.072 21.1943 74.941 21.1896L70.0244 21.0098C69.8731 21.0051 69.725 21.0552 69.6081 21.1505C68.7956 21.8057 66.2102 23.1222 64.8208 23.8102C64.314 24.0604 64.0926 24.667 64.3187 25.1861C64.8738 26.4636 65.8173 28.601 65.9155 28.601C66.0558 28.5979 65.7455 35.4213 65.7455 35.4213Z" fill="#4B9F46"/>
<path d="M72.5413 25.0739L77.2521 37.287C77.2521 37.287 74.0679 38.0235 70.996 34.2584L69.8873 31.8317L67.3892 22.5847L72.5413 25.0739Z" fill="#F6F8FB"/>
<path d="M73.7903 18.5347C77.3213 18.5347 80.1837 15.6646 80.1837 12.124C80.1837 8.58353 77.3213 5.71338 73.7903 5.71338C70.2594 5.71338 67.397 8.58353 67.397 12.124C67.397 15.6646 70.2594 18.5347 73.7903 18.5347Z" fill="#2F2E41"/>
<path d="M69.736 33.6033C70.0947 34.0552 70.7075 34.2162 71.2408 34.002L74.6652 35.3467L75.8066 32.759L71.9472 32.2586C71.6556 31.5972 70.8853 31.2986 70.2272 31.591C69.5676 31.8834 69.2698 32.6558 69.5614 33.3156C69.6066 33.4188 69.6659 33.5157 69.736 33.6033Z" fill="#A0616A"/>
<path d="M72.822 20.0811C75.0818 20.0811 76.9137 18.2442 76.9137 15.9783C76.9137 13.7124 75.0818 11.8755 72.822 11.8755C70.5622 11.8755 68.7302 13.7124 68.7302 15.9783C68.7302 18.2442 70.5622 20.0811 72.822 20.0811Z" fill="#A0616A"/>
<path d="M78.5759 13.2608C76.4006 14.4491 73.9509 15.0417 71.4746 14.9807C70.5265 14.9557 69.4802 14.7837 68.8798 14.0457C68.2015 13.2139 68.3715 11.9161 69.0248 11.0655C69.6782 10.215 70.7012 9.7365 71.7225 9.41128C72.6878 9.10325 73.7232 8.90624 74.7134 9.12045C76.7234 9.55669 78.0005 11.544 77.5639 13.5594C77.5249 13.7361 77.475 13.9113 77.4111 14.0801" fill="#2F2E41"/>
<path d="M78.3124 11.1861C80.2931 11.1861 81.8989 9.57602 81.8989 7.58988C81.8989 5.60374 80.2931 3.99365 78.3124 3.99365C76.3316 3.99365 74.7258 5.60374 74.7258 7.58988C74.7258 9.57602 76.3316 11.1861 78.3124 11.1861Z" fill="#2F2E41"/>
<path d="M79.5974 28.8154L80.9774 30.5103L81.2581 35.1119C81.2581 35.1119 81.6199 37.4557 78.9487 36.8913C76.2775 36.3268 72.8391 35.2292 72.8391 35.2292C72.8391 35.2292 74.6682 32.5696 73.8527 31.8081L77.6825 33.0512C77.6825 33.0512 78.3296 32.9089 77.8228 32.3444C77.316 31.78 77.2256 30.7636 77.2256 30.7636L79.5974 28.8154Z" fill="#4B9F46"/>
<path d="M72.51 32.7991C71.9643 32.982 71.3623 32.7866 71.0302 32.3144L67.4265 31.5795L67.8678 28.7854L71.3795 30.4647C71.9814 30.0675 72.7907 30.2364 73.1868 30.8399C73.5829 31.4435 73.4145 32.255 72.8125 32.6521C72.7174 32.7131 72.6161 32.7631 72.51 32.7991Z" fill="#A0616A"/>
<path d="M67.7525 26.3386C67.7525 26.3386 67.1272 27.1439 66.3958 27.3425C65.6645 27.541 66.1323 28.0117 66.1323 28.0117L70.0213 29.0514C68.9236 29.2469 69.0218 32.4757 69.0218 32.4757C69.0218 32.4757 65.5397 31.5266 62.9902 30.5478C60.4406 29.569 62.0125 27.7975 62.0125 27.7975L64.7382 24.0855L66.8153 23.4116L67.7525 26.3386Z" fill="#4B9F46"/>
</svg>
