<svg width="100" height="75" viewBox="0 0 100 75" fill="none" xmlns="http://www.w3.org/2000/svg">
<circle cx="54" cy="39" r="36" fill="#4B9F46" fill-opacity="0.05"/>
<path d="M95.0945 46.1115C94.673 45.4271 94.8881 44.5301 95.5756 44.1105C95.6483 44.0657 95.7268 44.0281 95.8067 43.9962L95.6003 38.8296L97.9114 40.2185L97.753 44.9121C97.9986 45.6818 97.5713 46.505 96.798 46.7495C96.1497 46.9535 95.4462 46.6888 95.0945 46.1115Z" fill="#A0616A"/>
<path d="M98.1788 42.7618L96.125 43.0888C95.7689 43.1452 95.4331 42.9036 95.3764 42.5491C95.375 42.5434 95.375 42.5376 95.3735 42.5318L94.5043 36.0167L90.2106 30.1672C89.5681 29.2904 89.76 28.062 90.6394 27.4211C90.6728 27.3965 90.7062 27.3734 90.7411 27.3517C91.6597 26.7671 92.8807 27.0348 93.4665 27.9492L97.8518 34.7811L98.7254 42.0413C98.7312 42.0876 98.7312 42.1339 98.7268 42.1802C98.6992 42.4768 98.4725 42.7155 98.1788 42.7618Z" fill="#4B9F46"/>
<path d="M91.0957 66.943H89.3152L88.4663 60.101L91.0972 60.1024L91.0957 66.943Z" fill="#A0616A"/>
<path d="M88.0419 66.4366H91.478V68.591H85.8776C85.8776 67.4002 86.8471 66.4366 88.0419 66.4366Z" fill="#2F2E41"/>
<path d="M98.6148 63.9076L97.2834 65.0867L92.321 60.2152L94.0464 58.7959L98.6148 63.9076Z" fill="#A0616A"/>
<path d="M95.9942 65.5494L98.5626 63.2765L100 64.8854L95.8154 68.5907C95.0218 67.7009 95.1017 66.3394 95.9942 65.5494Z" fill="#2F2E41"/>
<path d="M73.1883 27.8203C73.9746 27.638 74.761 28.1241 74.9441 28.9068C74.963 28.9908 74.9761 29.0747 74.9805 29.1615L79.9704 30.5982L77.9166 32.3416L73.4935 30.7096C72.6824 30.698 72.0327 30.0339 72.0443 29.2266C72.0531 28.5509 72.5269 27.9693 73.1883 27.8203Z" fill="#A0616A"/>
<path d="M88.7454 22.8624C90.717 22.8624 92.3153 21.2715 92.3153 19.309C92.3153 17.3465 90.717 15.7556 88.7454 15.7556C86.7738 15.7556 85.1755 17.3465 85.1755 19.309C85.1755 21.2715 86.7738 22.8624 88.7454 22.8624Z" fill="#A0616A"/>
<path d="M91.3153 65.6625L88.8355 65.4643C88.5041 65.4382 88.2454 65.1677 88.2338 64.8363L87.5419 44.0266C87.5303 43.6938 87.773 43.4059 88.1059 43.3596L93.0508 42.6724C93.4083 42.6232 93.7383 42.8706 93.7892 43.2265C93.7979 43.2931 93.7979 43.3596 93.7863 43.4262L91.8938 54.4582C91.888 54.4886 91.8865 54.519 91.8865 54.5494L92.0231 65.0027C92.0275 65.363 91.7382 65.6581 91.3778 65.6625C91.3749 65.6625 91.3719 65.6625 91.369 65.6625C91.3501 65.6639 91.3327 65.6639 91.3153 65.6625Z" fill="#2F2E41"/>
<path d="M94.4913 63.1665L85.9707 53.7273C85.8471 53.5899 85.7875 53.4062 85.8064 53.2239L86.882 43.1814C86.9184 42.8342 87.2251 42.5766 87.5754 42.6012L92.8052 42.9485C93.1657 42.9731 93.4389 43.2827 93.4142 43.6415C93.4098 43.6979 93.3997 43.7529 93.3808 43.8064L90.247 53.0329C90.1859 53.2123 90.231 53.4105 90.3632 53.5465L97.6004 61.0121C97.8518 61.2711 97.8431 61.6835 97.5844 61.9323C97.5481 61.967 97.5074 61.9989 97.4623 62.0249L95.3082 63.2923C95.0422 63.4486 94.7006 63.3965 94.4913 63.1665Z" fill="#2F2E41"/>
<path d="M88.1059 25.0571C88.1059 25.0571 90.2862 23.1762 91.3036 24.189C91.3036 24.189 96.0276 27.155 93.9927 35.2572C93.9927 35.2572 95.7369 43.0701 95.0101 43.3595C94.2834 43.6488 86.943 44.734 86.3616 43.8659C85.7802 42.9978 85.4895 29.6869 88.1059 25.0571Z" fill="#4B9F46"/>
<path d="M75.4063 31.7905L75.7435 29.7476C75.8016 29.3931 76.1388 29.1529 76.4949 29.2108C76.5008 29.2123 76.5066 29.2123 76.5124 29.2137L82.9966 30.4507L89.9285 28.2429C90.9663 27.913 92.0782 28.4816 92.4096 29.5161C92.4227 29.5551 92.4329 29.5942 92.4431 29.6333C92.7105 30.6851 92.0695 31.7529 91.0128 32.0191L83.1158 34.0027L75.9193 32.5342C75.8728 32.5255 75.8292 32.511 75.7856 32.4922C75.5138 32.3721 75.3568 32.0828 75.4063 31.7905Z" fill="#4B9F46"/>
<path d="M90.2775 22.1909C90.603 21.44 90.8792 20.4388 90.2542 19.9063C89.8908 19.5982 89.369 19.5982 88.8922 19.5591C87.5521 19.4506 86.1727 18.8371 85.5186 17.6695C84.8645 16.5019 85.2294 14.7643 86.4649 14.2362C87.2977 13.8803 88.2527 14.1234 89.1234 14.3693L91.7412 15.1086C92.5188 15.3286 93.3357 15.5702 93.8953 16.1504C94.7877 17.0763 94.7209 18.6404 94.0116 19.7125C93.3022 20.7846 92.2339 21.9015 91.0115 22.3081L90.2775 22.1909Z" fill="#2F2E41"/>
<path d="M71.8044 0.408936H1.01747C0.456409 0.408936 0 0.86324 0 1.42172V53.5076C0 54.066 0.456409 54.5203 1.01747 54.5203H71.8044C72.3655 54.5203 72.8219 54.066 72.8219 53.5076V1.42172C72.8219 0.86324 72.3655 0.408936 71.8044 0.408936ZM72.5312 53.5076C72.5312 53.9069 72.2056 54.231 71.8044 54.231H1.01747C0.616297 54.231 0.290706 53.9069 0.290706 53.5076V1.42172C0.290706 1.02239 0.616297 0.698301 1.01747 0.698301H71.8044C72.2056 0.698301 72.5312 1.02239 72.5312 1.42172V53.5076Z" fill="#3F3D56"/>
<path d="M72.6764 4.46558H0.145264V4.75494H72.6764V4.46558Z" fill="#3F3D56"/>
<path d="M43.8704 45.4485C43.7905 45.4485 43.7251 45.3834 43.7251 45.3039V39.3719C43.7251 39.2923 43.7905 39.2272 43.8704 39.2272C43.9504 39.2272 44.0158 39.2923 44.0158 39.3719V45.3039C44.0158 45.3849 43.9518 45.4485 43.8704 45.4485Z" fill="#3F3D56"/>
<path d="M43.6713 37.0572C43.6452 37.0572 43.6205 37.05 43.5987 37.037L35.3397 32.2479C35.2699 32.2074 35.2467 32.1192 35.2874 32.0497C35.3281 31.9817 35.4167 31.9571 35.485 31.9976L43.744 36.7867C43.8138 36.8272 43.837 36.9154 43.7963 36.9849C43.7716 37.0312 43.7237 37.0587 43.6713 37.0572Z" fill="#3F3D56"/>
<path d="M27.1549 37.057C27.0749 37.057 27.0095 36.9919 27.0095 36.9123C27.0095 36.8603 27.0371 36.8125 27.0822 36.7865L35.3397 31.9975C35.4095 31.957 35.4981 31.9801 35.5388 32.0496C35.5795 32.119 35.5563 32.2073 35.4865 32.2478L27.2276 37.0368C27.2057 37.0512 27.181 37.057 27.1549 37.057Z" fill="#3F3D56"/>
<path d="M52.2472 44.2913C52.2211 44.2913 52.1964 44.2841 52.1746 44.2711L43.9156 39.4821C43.8458 39.4416 43.8226 39.3533 43.8633 39.2839C43.904 39.2159 43.9927 39.1913 44.061 39.2318L52.3199 44.0208C52.3897 44.0613 52.4129 44.1495 52.3722 44.219C52.3475 44.2653 52.2996 44.2928 52.2472 44.2913Z" fill="#3F3D56"/>
<path d="M35.7308 44.2913C35.6509 44.2913 35.5854 44.2262 35.5854 44.1466C35.5854 44.0946 35.6131 44.0468 35.6581 44.0208L43.9156 39.2318C43.9854 39.1913 44.0741 39.2159 44.1148 39.2839C44.1555 39.3533 44.1308 39.4416 44.0624 39.4806L35.8035 44.2696C35.7817 44.2855 35.757 44.2913 35.7308 44.2913Z" fill="#3F3D56"/>
<path d="M35.4399 29.6782C35.36 29.6782 35.2946 29.613 35.2946 29.5335L35.2815 24.2685C35.2815 24.1889 35.3469 24.1238 35.4268 24.1238C35.5068 24.1238 35.5722 24.1889 35.5722 24.2685L35.5853 29.5335C35.5853 29.613 35.5213 29.6782 35.4399 29.6782C35.4414 29.6782 35.4414 29.6782 35.4399 29.6782Z" fill="#3F3D56"/>
<path d="M37.3209 32.4155H33.533C33.1725 32.4155 32.8789 32.1232 32.8789 31.7644V29.8286C32.8789 29.4697 33.1725 29.1775 33.533 29.1775H37.3194C37.6799 29.1775 37.9735 29.4697 37.9735 29.8286V31.7644C37.9735 32.1232 37.6814 32.4155 37.3209 32.4155Z" fill="#4B9F46"/>
<path d="M31.0533 22.5742H22.995C22.915 22.5742 22.8496 22.509 22.8496 22.4295C22.8496 22.3499 22.915 22.2848 22.995 22.2848H31.0519C31.1318 22.2848 31.1972 22.3499 31.1972 22.4295C31.1972 22.509 31.1333 22.5742 31.0533 22.5742Z" fill="#3F3D56"/>
<path d="M35.4268 20.5082C35.3469 20.5082 35.2815 20.4431 35.2815 20.3636V15.3546C35.2815 15.2751 35.3469 15.21 35.4268 15.21C35.5068 15.21 35.5722 15.2751 35.5722 15.3546V20.3621C35.5722 20.4431 35.5068 20.5082 35.4268 20.5082Z" fill="#3F3D56"/>
<path d="M19.861 22.5745C19.8349 22.5745 19.8102 22.5673 19.7869 22.5543L11.964 17.9389C11.8957 17.8984 11.8724 17.8087 11.9131 17.7407C11.9538 17.6727 12.0425 17.6495 12.1123 17.69L19.9352 22.3054C20.0049 22.3459 20.0267 22.4356 19.986 22.5036C19.9599 22.547 19.9119 22.5745 19.861 22.5745Z" fill="#3F3D56"/>
<path d="M12.0382 27.1896C11.9582 27.1896 11.8928 27.1245 11.8928 27.045C11.8928 26.9943 11.9204 26.9466 11.964 26.9205L19.7869 22.3051C19.8567 22.2646 19.9454 22.2878 19.9861 22.3558C20.0268 22.4238 20.0035 22.5135 19.9352 22.554L12.1123 27.1694C12.0905 27.1824 12.0643 27.1896 12.0382 27.1896Z" fill="#3F3D56"/>
<path d="M22.4134 24.9083H20.4685C20.1081 24.9083 19.8145 24.616 19.8145 24.2572V20.4882C19.8145 20.1294 20.1081 19.8372 20.4685 19.8372H22.4134C22.7738 19.8372 23.0675 20.1294 23.0675 20.4882V24.2572C23.0675 24.616 22.7753 24.9083 22.4134 24.9083Z" fill="#CCCCCC"/>
<path d="M37.3209 15.7453H33.533C33.1725 15.7453 32.8789 15.453 32.8789 15.0942V13.1569C32.8789 12.7981 33.1725 12.5059 33.533 12.5059H37.3194C37.6799 12.5059 37.9735 12.7981 37.9735 13.1569V15.0928C37.9735 15.453 37.6814 15.7439 37.3209 15.7453Z" fill="#CCCCCC"/>
<path d="M11.512 20.4232H9.56717C9.2067 20.4232 8.91309 20.1309 8.91309 19.7721V16.0031C8.91309 15.6443 9.2067 15.3521 9.56717 15.3521H11.512C11.8725 15.3521 12.1661 15.6443 12.1661 16.0031V19.7721C12.1661 20.1309 11.8739 20.4232 11.512 20.4232Z" fill="#CCCCCC"/>
<path d="M11.512 29.5381H9.56717C9.2067 29.5381 8.91309 29.2458 8.91309 28.887V25.118C8.91309 24.7592 9.2067 24.4669 9.56717 24.4669H11.512C11.8725 24.4669 12.1661 24.7592 12.1661 25.118V28.887C12.1661 29.2458 11.8739 29.5381 11.512 29.5381Z" fill="#4B9F46"/>
<path d="M47.859 22.5742H39.8021C39.7221 22.5742 39.6567 22.509 39.6567 22.4295C39.6567 22.3499 39.7221 22.2848 39.8021 22.2848H47.859C47.939 22.2848 48.0044 22.3499 48.0044 22.4295C48.0044 22.509 47.939 22.5742 47.859 22.5742Z" fill="#3F3D56"/>
<path d="M50.9928 22.5745C50.9128 22.5745 50.8474 22.5094 50.8474 22.4298C50.8474 22.3792 50.875 22.3315 50.9186 22.3054L58.7401 17.69C58.8099 17.6495 58.8985 17.6727 58.9392 17.7407C58.9799 17.8087 58.9567 17.8984 58.8883 17.9389L51.0669 22.5543C51.0451 22.5673 51.0189 22.5745 50.9928 22.5745Z" fill="#3F3D56"/>
<path d="M58.8158 27.1896C58.7896 27.1896 58.7649 27.1824 58.7416 27.1694L50.9202 22.554C50.8504 22.5134 50.8286 22.4252 50.8693 22.3557C50.91 22.2863 50.9986 22.2646 51.0684 22.3051L58.8899 26.9205C58.9597 26.961 58.9815 27.0493 58.9408 27.1187C58.9146 27.1621 58.8666 27.1896 58.8158 27.1896Z" fill="#3F3D56"/>
<path d="M50.3853 24.9083H48.4405C48.08 24.9083 47.7864 24.616 47.7864 24.2572V20.4882C47.7864 20.1294 48.08 19.8372 48.4405 19.8372H50.3853C50.7458 19.8372 51.0394 20.1294 51.0394 20.4882V24.2572C51.0379 24.616 50.7458 24.9083 50.3853 24.9083Z" fill="#CCCCCC"/>
<path d="M61.2867 20.4232H59.3418C58.9814 20.4232 58.6877 20.1309 58.6877 19.7721V16.0031C58.6877 15.6443 58.9814 15.3521 59.3418 15.3521H61.2867C61.6472 15.3521 61.9408 15.6443 61.9408 16.0031V19.7721C61.9393 20.1309 61.6472 20.4232 61.2867 20.4232Z" fill="#CCCCCC"/>
<path d="M61.2867 29.5381H59.3418C58.9814 29.5381 58.6877 29.2458 58.6877 28.887V25.118C58.6877 24.7592 58.9814 24.4669 59.3418 24.4669H61.2867C61.6472 24.4669 61.9408 24.7592 61.9408 25.118V28.887C61.9393 29.2458 61.6472 29.5381 61.2867 29.5381Z" fill="#4B9F46"/>
<path d="M28.8905 39.7948H25.1026C24.7421 39.7948 24.4485 39.5025 24.4485 39.1437V37.2078C24.4485 36.849 24.7421 36.5568 25.1026 36.5568H28.889C29.2495 36.5568 29.5431 36.849 29.5431 37.2078V39.1437C29.5431 39.5025 29.251 39.7948 28.8905 39.7948Z" fill="#CCCCCC"/>
<path d="M45.7237 39.7948H41.9373C41.5768 39.7948 41.2832 39.5025 41.2832 39.1437V37.2078C41.2832 36.849 41.5768 36.5568 41.9373 36.5568H45.7237C46.0842 36.5568 46.3778 36.849 46.3778 37.2078V39.1437C46.3778 39.5025 46.0857 39.7948 45.7237 39.7948Z" fill="#4B9F46"/>
<path d="M38.0199 46.8841H34.2334C33.873 46.8841 33.5793 46.5919 33.5793 46.2331V44.2972C33.5793 43.9384 33.873 43.6461 34.2334 43.6461H38.0199C38.3804 43.6461 38.674 43.9384 38.674 44.2972V46.2331C38.674 46.5919 38.3818 46.8841 38.0199 46.8841Z" fill="#4B9F46"/>
<path d="M54.1542 46.8841H50.3677C50.0072 46.8841 49.7136 46.5919 49.7136 46.2331V44.2972C49.7136 43.9384 50.0072 43.6461 50.3677 43.6461H54.1542C54.5146 43.6461 54.8083 43.9384 54.8083 44.2972V46.2331C54.8083 46.5919 54.5161 46.8841 54.1542 46.8841Z" fill="#CCCCCC"/>
<path d="M45.7237 46.8841H41.9373C41.5768 46.8841 41.2832 46.5919 41.2832 46.2331V44.2972C41.2832 43.9384 41.5768 43.6461 41.9373 43.6461H45.7237C46.0842 43.6461 46.3778 43.9384 46.3778 44.2972V46.2331C46.3778 46.5919 46.0857 46.8841 45.7237 46.8841Z" fill="#CCCCCC"/>
<path d="M40.0302 24.9471H30.8235C30.463 24.9471 30.1694 24.6548 30.1694 24.296V20.5632C30.1694 20.2044 30.463 19.9121 30.8235 19.9121H40.0302C40.3906 19.9121 40.6843 20.2044 40.6843 20.5632V24.2946C40.6843 24.6548 40.3906 24.9456 40.0302 24.9471Z" fill="#4B9F46"/>
</svg>
