<svg width="103" height="77" viewBox="0 0 103 77" fill="none" xmlns="http://www.w3.org/2000/svg">
<g clip-path="url(#clip0_1601_6757)">
<path opacity="0.1" d="M46.7134 75.4599C55.2185 75.4599 62.1134 74.7704 62.1134 73.9199C62.1134 73.0694 55.2185 72.3799 46.7134 72.3799C38.2082 72.3799 31.3134 73.0694 31.3134 73.9199C31.3134 74.7704 38.2082 75.4599 46.7134 75.4599Z" fill="#4B9F46"/>
<path opacity="0.1" d="M83.375 76.82C89.6036 76.82 94.6529 76.134 94.6529 75.2877C94.6529 74.4414 89.6036 73.7554 83.375 73.7554C77.1464 73.7554 72.0972 74.4414 72.0972 75.2877C72.0972 76.134 77.1464 76.82 83.375 76.82Z" fill="#4B9F46"/>
<path opacity="0.1" d="M1.45452 33.2942H10.868V46.8384H2.14368C2.12049 46.9774 2.09823 47.1174 2.07411 47.2574H10.868V58.1805C10.8523 58.1756 10.8383 58.1697 10.8235 58.1639C10.5749 58.0601 10.3282 57.9504 10.0815 57.8329L9.9238 57.7575C9.67646 57.6341 9.42912 57.5036 9.18178 57.3659C9.09552 57.3179 9.00926 57.268 8.92393 57.217C7.55079 56.4051 6.30338 55.3762 5.22494 54.1661C5.1934 54.1338 5.16372 54.0995 5.13218 54.0682C4.98192 53.8959 4.83444 53.7216 4.69161 53.5434L4.53392 53.3476C4.36511 53.1292 4.20187 52.905 4.04326 52.6778C4.02007 52.6445 3.99781 52.6113 3.9737 52.5799C3.32864 51.6358 2.79304 50.6135 2.37834 49.5349C2.36536 49.5026 2.35423 49.4673 2.34217 49.437C2.21479 49.091 2.10194 48.7418 2.00362 48.3893C1.96095 48.2414 1.92014 48.0956 1.8849 47.9418C1.87191 47.8968 1.86078 47.8527 1.85058 47.8087C1.32374 45.638 1.2616 43.383 1.2616 41.1438C1.2616 40.8824 1.2616 40.62 1.2616 40.3605C1.2616 39.4548 1.2718 38.5433 1.28664 37.6327C1.28664 37.3967 1.29592 37.1617 1.30055 36.9248C1.31354 36.3236 1.33209 35.7224 1.3562 35.1212C1.36177 34.9538 1.36919 34.7873 1.37754 34.6209C1.37754 34.5249 1.38218 34.429 1.39145 34.333C1.41371 33.9845 1.43226 33.6388 1.45452 33.2942Z" fill="#4B9F46"/>
<path opacity="0.1" d="M10.868 18.2138H5.70447C6.54383 16.8269 7.46094 15.4943 8.45089 14.2229C9.21795 13.2281 10.0277 12.2588 10.868 11.3247V18.2138Z" fill="#4B9F46"/>
<path opacity="0.1" d="M10.8681 18.6328V32.8751H1.48425C1.48425 32.834 1.49075 32.7919 1.49353 32.7508C1.50188 32.6382 1.51022 32.5256 1.5195 32.4139C1.5297 32.2827 1.54083 32.1505 1.55289 32.0223C1.56495 31.894 1.57793 31.7374 1.59185 31.5954C1.60576 31.4534 1.61874 31.3095 1.63451 31.1675C1.65028 31.0255 1.66419 30.8836 1.68089 30.7426C1.69758 30.6016 1.71243 30.4586 1.73005 30.3176C1.74396 30.2001 1.7588 30.0836 1.77364 29.9661C1.79498 29.8007 1.81724 29.6342 1.84135 29.4697C1.84135 29.4452 1.84784 29.4198 1.85155 29.3963C2.02085 28.1921 2.25152 26.9985 2.54256 25.8205C2.84722 24.5849 3.23626 23.3741 3.70662 22.1978C4.20652 20.9672 4.79184 19.7773 5.45779 18.6377L10.8681 18.6328Z" fill="#4B9F46"/>
<path opacity="0.1" d="M13.1155 33.2932V46.8383H33.2216V33.2932H13.1155ZM13.1155 47.2564V58.8884C13.2305 58.9138 13.3446 58.9383 13.4577 58.9589C13.6117 58.9902 13.7648 59.0186 13.9215 59.0431C13.9512 59.048 13.9818 59.0529 14.0143 59.0558C14.0755 59.0666 14.1385 59.0754 14.1998 59.0842C14.3547 59.1067 14.5086 59.1253 14.6635 59.14C14.7368 59.1478 14.811 59.1547 14.8852 59.1606L15.0642 59.1752C15.1616 59.1831 15.2581 59.189 15.3536 59.1919C15.413 59.1919 15.4723 59.1978 15.5335 59.1997C15.5799 59.1997 15.6263 59.1997 15.6745 59.1997C15.7228 59.1997 15.7914 59.1997 15.8498 59.1997C15.9296 59.1997 16.0094 59.1997 16.0882 59.1997H16.1949C16.2746 59.1997 16.3544 59.1997 16.4333 59.1919H16.4388C16.4935 59.1919 16.5492 59.1919 16.6048 59.1841C16.6203 59.185 16.6358 59.185 16.6512 59.1841C16.6976 59.1841 16.744 59.1841 16.7885 59.1772H16.821L17.1317 59.1517C17.2337 59.142 17.3367 59.1292 17.4406 59.1175L17.652 59.091C18.5124 58.9638 19.3632 58.7727 20.1981 58.5192C22.0736 57.967 23.9082 57.1945 25.7828 56.6286C28.2064 55.8991 30.8842 55.5408 33.2262 56.4327V47.2564H13.1155ZM33.2216 18.2137V0.181289C31.0203 0.156113 28.825 0.427898 26.689 0.990042C21.5977 2.34025 17.0297 5.2688 13.1155 9.00904V18.2128H14.1246V18.6309H13.1155V32.8751H33.2216V18.6318H18.2679V18.2137H33.2216ZM59.0468 12.1226C57.7872 12.0756 56.535 11.6546 55.4025 11.0045C53.2367 9.761 51.5069 7.84095 49.5739 6.2205C45.5577 2.84548 40.5769 0.808905 35.4671 0.303679V18.2137H64.1695L64.241 18.1344L59.0468 12.1226ZM61.6615 11.6331L64.4339 14.8446V10.791C63.5054 10.9124 62.692 11.2013 61.6652 11.6292L61.6615 11.6331ZM64.4339 61.7768V47.2564H58.5264C58.5107 47.1947 58.4949 47.1321 58.4764 47.0694C58.494 47.1321 58.5088 47.1947 58.5255 47.2564H35.4708V57.7575C35.6897 57.9288 35.9058 58.109 36.1201 58.2921C36.351 58.4879 36.5792 58.6945 36.8083 58.8972L37.0393 59.0989C37.1496 59.1968 37.261 59.2947 37.3732 59.3867C37.5958 59.5773 37.8206 59.7653 38.0475 59.9507C38.1597 60.0486 38.2747 60.1367 38.3888 60.2288C40.2 61.6906 42.1106 63.0097 44.1052 64.1756C44.5523 64.4367 45.0034 64.6916 45.4585 64.9403C45.7618 65.1038 46.0669 65.2664 46.373 65.424C46.8331 65.6609 47.2968 65.8894 47.7643 66.1094C52.0742 68.1517 56.6316 69.5531 61.3063 70.2736C62.3445 70.4355 63.3867 70.5627 64.433 70.6554V61.7758H64.5257L64.4339 61.7768ZM35.4708 18.6318V32.8751H64.4376V18.6318H35.4708ZM35.4708 33.2932V46.8383H64.4376V33.2932H35.4708ZM66.6859 10.7734V15.295L70.2245 11.1964C69.0521 10.9967 67.8726 10.854 66.6859 10.7685V10.7734ZM66.6859 33.2981V46.8383H94.8597V33.2932L66.6859 33.2981ZM94.7567 62.8518L94.856 47.2564H66.6859V70.8111C68.5006 70.8916 70.3182 70.8687 72.1305 70.7426H72.1621C73.0278 70.6851 73.8894 70.6016 74.7471 70.4919H74.7666C79.3421 69.9298 83.8162 68.6696 88.0488 66.7507M100.292 35.5236C100.186 35.2602 100.076 34.9988 99.9639 34.7403C99.7543 34.2508 99.5326 33.7749 99.3044 33.2991H97.1061V46.8383H102.664C102.661 43.0041 101.742 39.0876 100.295 35.5187L100.292 35.5236ZM97.1061 47.2613V60.6753C98.6718 59.091 99.9945 57.2787 100.947 55.2069C102.093 52.7121 102.617 50.0107 102.659 47.2594L97.1061 47.2613ZM97.1061 29.3512V32.8761H99.0985C98.4958 31.6627 97.8316 30.4844 97.1089 29.3463L97.1061 29.3512ZM77.999 13.4307C77.8525 13.372 77.7059 13.3123 77.5584 13.2545C76.0031 12.6482 74.4136 12.1439 72.7993 11.7447L67.3844 18.0179L67.2805 18.1344L67.35 18.2147H86.6223C83.9382 16.2644 81.0445 14.6569 78.0018 13.4259L77.999 13.4307ZM87.1871 18.6367H67.0811L66.6859 19.0186V32.8751H70.1493H70.1549H94.8634V26.1632C92.6282 23.3097 90.0485 20.7776 87.1899 18.6318L87.1871 18.6367Z" fill="#4B9F46"/>
<path opacity="0.1" d="M10.8681 25.8167V32.8751H1.48425C1.48425 32.834 1.49075 32.7919 1.49353 32.7508C1.50188 32.6382 1.51022 32.5256 1.5195 32.414C1.5297 32.2828 1.54083 32.1506 1.55289 32.0223C1.56495 31.8941 1.57793 31.7374 1.59185 31.5954C1.60576 31.4534 1.61874 31.3095 1.63451 31.1675C1.65028 31.0256 1.66419 30.8836 1.68089 30.7426C1.69758 30.6016 1.71243 30.4587 1.73005 30.3177C1.74396 30.2002 1.7588 30.0837 1.77364 29.9662C1.79498 29.8007 1.81724 29.6342 1.84135 29.4697C1.84135 29.4453 1.84784 29.4198 1.85155 29.3963C2.02085 28.1922 2.25152 26.9985 2.54256 25.8206L10.8681 25.8167Z" fill="#4B9F46"/>
<path opacity="0.1" d="M1.45452 33.2942H10.868V46.8384H2.14368C2.12049 46.9774 2.09823 47.1174 2.07411 47.2574H10.868V58.1805C10.8523 58.1756 10.8383 58.1697 10.8235 58.1639C10.5749 58.0601 10.3282 57.9504 10.0815 57.8329L9.9238 57.7575C9.67646 57.6341 9.42912 57.5036 9.18178 57.3659C9.09552 57.3179 9.00926 57.268 8.92393 57.217C7.55079 56.4051 6.30338 55.3762 5.22494 54.1661C5.1934 54.1338 5.16372 54.0995 5.13218 54.0682C4.98192 53.8959 4.83444 53.7216 4.69161 53.5434L4.53392 53.3476C4.36511 53.1292 4.20187 52.905 4.04326 52.6778C4.02007 52.6445 3.99781 52.6113 3.9737 52.5799C3.32864 51.6358 2.79304 50.6135 2.37834 49.5349C2.36536 49.5026 2.35423 49.4673 2.34217 49.437C2.21479 49.091 2.10194 48.7418 2.00362 48.3893C1.96095 48.2414 1.92014 48.0956 1.8849 47.9418C1.87191 47.8968 1.86078 47.8527 1.85058 47.8087C1.32374 45.638 1.2616 43.383 1.2616 41.1438C1.2616 40.8824 1.2616 40.62 1.2616 40.3605C1.2616 39.4548 1.2718 38.5433 1.28664 37.6327C1.28664 37.3967 1.29592 37.1617 1.30055 36.9248C1.31354 36.3236 1.33209 35.7224 1.3562 35.1212C1.36177 34.9538 1.36919 34.7873 1.37754 34.6209C1.37754 34.5249 1.38218 34.429 1.39145 34.333C1.41371 33.9845 1.43226 33.6388 1.45452 33.2942Z" fill="#4B9F46"/>
<path opacity="0.1" d="M20.1935 20.6714V32.8752H13.1155V20.6714H14.1246V16.5396H18.267V20.6714H20.1935Z" fill="#4B9F46"/>
<path opacity="0.1" d="M20.1934 33.2932H13.1163V46.8374H20.1934V33.2932Z" fill="#4B9F46"/>
<path opacity="0.1" d="M13.1155 47.2573H20.1935V58.5172C19.3585 58.7705 18.5077 58.9612 17.6474 59.088L17.4359 59.1154C17.332 59.1282 17.2291 59.139 17.127 59.1497C17.025 59.1605 16.9193 59.1683 16.8163 59.1752H16.7839C16.7393 59.1752 16.6911 59.181 16.6475 59.182H16.6002C16.5446 59.182 16.4889 59.1879 16.4333 59.1899C16.3544 59.1948 16.2756 59.1957 16.1949 59.1967C16.1606 59.1967 16.1281 59.1967 16.0938 59.1967C16.014 59.1967 15.9352 59.1967 15.8554 59.1967H15.6801C15.6328 59.1967 15.5873 59.1967 15.5382 59.1967L15.3592 59.1899C15.2664 59.1899 15.1662 59.1791 15.0698 59.1722L14.8917 59.1585L14.67 59.137C14.5142 59.1223 14.3593 59.1037 14.2063 59.0812L14.0207 59.0538L13.928 59.0401C13.7731 59.0146 13.6201 58.9872 13.4642 58.9559C13.3501 58.9353 13.237 58.9098 13.122 58.8854L13.1155 47.2573Z" fill="#4B9F46"/>
<path opacity="0.1" d="M64.4376 19.23H58.6016V32.874H64.4376V19.23Z" fill="#4B9F46"/>
<path opacity="0.1" d="M64.4385 33.2932V46.8384H35.4708V40.996H50.9003V44.4425H58.6016V33.2932H64.4385Z" fill="#4B9F46"/>
<path opacity="0.1" d="M64.5304 61.7796H64.4376V70.6652C63.3926 70.5718 62.3507 70.4448 61.3118 70.2843C56.6349 69.5615 52.0756 68.1571 47.7643 66.1113C46.5196 65.5199 45.3002 64.8743 44.1061 64.1746C42.1116 63.0081 40.2007 61.689 38.3888 60.2277C37.9337 59.8596 37.4845 59.4829 37.0411 59.0978C36.7341 58.8305 36.429 58.5564 36.1201 58.29C35.9058 58.107 35.6897 57.9268 35.4708 57.7545V47.2573H58.5246C58.5088 47.1947 58.4931 47.132 58.4764 47.0703C58.494 47.132 58.5107 47.1947 58.5265 47.2573H64.4376V61.7738C64.4691 61.7747 64.4997 61.7777 64.5304 61.7796Z" fill="#4B9F46"/>
<path opacity="0.1" d="M79.6583 18.2136H75.8555V16.9663H77.5603V13.2505C77.7081 13.3073 77.8552 13.3657 78.0018 13.4258V16.9663H79.6583V18.2136Z" fill="#4B9F46"/>
<path opacity="0.1" d="M88.8205 32.8751H70.1512C70.1512 32.8751 70.1512 32.8751 70.1577 32.88L70.1493 32.8751H66.6859V19.2311H67.6672V29.316H72.1518V23.3434H75.8564V18.6328H79.6593V23.3473H83.3638V29.3199H88.8205V32.8751Z" fill="#4B9F46"/>
<path opacity="0.1" d="M66.6859 33.2932V46.8384H88.8205V33.2932H66.6859ZM94.829 62.7824L94.8597 52.061H88.8205V47.2633H66.6859V70.8111C68.5006 70.8916 70.3181 70.8687 72.1305 70.7426H72.1621C73.0278 70.6852 73.8894 70.6016 74.7471 70.492H74.7666C79.3421 69.9298 83.8162 68.6696 88.0488 66.7507" fill="#4B9F46"/>
<path opacity="0.1" d="M97.4994 47.2573H102.663C102.618 50.0077 102.094 52.7091 100.95 55.2039C99.9973 57.2767 98.6737 59.089 97.1099 60.6723V52.056H97.4994V47.2573Z" fill="#4B9F46"/>
<path opacity="0.1" d="M102.666 46.8384H97.4994V35.5188H100.295C101.742 39.0877 102.661 43.0042 102.666 46.8384Z" fill="#4B9F46"/>
<path opacity="0.1" d="M64.4385 23.0232H61.3118V27.301H64.4385V23.0232Z" fill="#4B9F46"/>
<path opacity="0.1" d="M64.4385 31.8901H61.3118V32.8751H64.4385V31.8901Z" fill="#4B9F46"/>
<path opacity="0.1" d="M64.4385 33.2932H61.3118V36.1669H64.4385V33.2932Z" fill="#4B9F46"/>
<path opacity="0.1" d="M64.4385 40.7571H61.3118V45.0349H64.4385V40.7571Z" fill="#4B9F46"/>
<path opacity="0.1" d="M64.4385 49.624H61.3118V53.9018H64.4385V49.624Z" fill="#4B9F46"/>
<path opacity="0.1" d="M64.4375 61.774C64.4691 61.774 64.4997 61.774 64.5303 61.7798H64.4375V62.7736H61.3118V58.491H64.4375V61.774Z" fill="#4B9F46"/>
<path opacity="0.1" d="M64.4375 67.3557V70.6602C63.3925 70.5669 62.3506 70.4399 61.3118 70.2794V67.3557H64.4375Z" fill="#4B9F46"/>
<path opacity="0.1" d="M48.8709 46.5242H35.4708V46.8385H48.8709V46.5242Z" fill="#4B9F46"/>
<path opacity="0.1" d="M48.8709 47.2563H35.4708V48.4607H48.8709V47.2563Z" fill="#4B9F46"/>
<path opacity="0.1" d="M48.8709 52.4084H35.4708V54.3452H48.8709V52.4084Z" fill="#4B9F46"/>
<path opacity="0.1" d="M48.8699 58.293V60.2297H38.3888C37.9337 59.8628 37.4842 59.4862 37.0402 59.0998C36.7332 58.8325 36.4289 58.5583 36.1191 58.293H48.8699Z" fill="#4B9F46"/>
<path opacity="0.1" d="M48.8699 64.1765V66.1113H47.7633C46.5198 65.5192 45.3007 64.8733 44.1061 64.1736L48.8699 64.1765Z" fill="#4B9F46"/>
<path opacity="0.1" d="M74.7694 34.6062H72.1315V37.3908H74.7694V34.6062Z" fill="#4B9F46"/>
<path opacity="0.1" d="M17.6539 21.6318H15.016V24.4165H17.6539V21.6318Z" fill="#4B9F46"/>
<path opacity="0.1" d="M17.6539 28.0999H15.016V30.8845H17.6539V28.0999Z" fill="#4B9F46"/>
<path opacity="0.1" d="M17.6539 34.5681H15.016V37.3527H17.6539V34.5681Z" fill="#4B9F46"/>
<path opacity="0.1" d="M17.6539 41.0352H15.016V43.8198H17.6539V41.0352Z" fill="#4B9F46"/>
<path opacity="0.1" d="M17.6539 47.5032H15.016V50.2878H17.6539V47.5032Z" fill="#4B9F46"/>
<path opacity="0.1" d="M17.6539 53.9712H15.016V56.7558H17.6539V53.9712Z" fill="#4B9F46"/>
<path opacity="0.1" d="M84.8396 34.6062H82.2017V37.3908H84.8396V34.6062Z" fill="#4B9F46"/>
<path opacity="0.1" d="M74.7694 41.4746H72.1315V44.2592H74.7694V41.4746Z" fill="#4B9F46"/>
<path opacity="0.1" d="M84.8396 41.4746H82.2017V44.2592H84.8396V41.4746Z" fill="#4B9F46"/>
<path opacity="0.1" d="M74.7694 48.3423H72.1315V51.1269H74.7694V48.3423Z" fill="#4B9F46"/>
<path opacity="0.1" d="M84.8396 48.3423H82.2017V51.1269H84.8396V48.3423Z" fill="#4B9F46"/>
<path opacity="0.1" d="M74.7694 55.2107H72.1315V57.9953H74.7694V55.2107Z" fill="#4B9F46"/>
<path opacity="0.1" d="M84.8396 55.2107H82.2017V57.9953H84.8396V55.2107Z" fill="#4B9F46"/>
<path opacity="0.1" d="M74.7694 62.0793H72.1315V64.864H74.7694V62.0793Z" fill="#4B9F46"/>
<path opacity="0.1" d="M84.8396 62.0793H82.2017V64.864H84.8396V62.0793Z" fill="#4B9F46"/>
<path opacity="0.1" d="M72.1315 70.7425V68.9468H74.7684V70.4869L72.1315 70.7425Z" fill="#4B9F46"/>
<path opacity="0.1" d="M1.84033 29.3943V30.9873H10.868V29.3943H1.84033ZM2.74004 30.8874H2.00358V29.4922H2.7456L2.74004 30.8874ZM3.63881 30.8874H2.89679V29.4922H3.63881V30.8874ZM4.53574 30.8874H3.79371V29.4922H4.53574V30.8874ZM5.43451 30.8874H4.69342V29.4922H5.43544L5.43451 30.8874ZM6.33236 30.8874H5.59034V29.4922H6.33236V30.8874ZM7.23114 30.8874H6.48912V29.4922H7.23114V30.8874ZM8.12992 30.8874H7.38789V29.4922H8.12992V30.8874ZM9.02777 30.8874H8.28574V29.4922H9.02777V30.8874ZM9.92562 30.8874H9.18359V29.4922H9.92562V30.8874ZM10.8235 30.8874H10.0814V29.4922H10.8235V30.8874Z" fill="#4B9F46"/>
<path opacity="0.1" d="M1.84033 34.0295V35.6226H10.868V34.0295H1.84033ZM2.74004 35.5217H2.00358V34.1304H2.7456L2.74004 35.5217ZM3.63881 35.5217H2.89679V34.1304H3.63881V35.5217ZM4.53574 35.5217H3.79371V34.1304H4.53574V35.5217ZM5.43451 35.5217H4.69342V34.1304H5.43544L5.43451 35.5217ZM6.33236 35.5217H5.59034V34.1304H6.33236V35.5217ZM7.23114 35.5217H6.48912V34.1304H7.23114V35.5217ZM8.12992 35.5217H7.38789V34.1304H8.12992V35.5217ZM9.02777 35.5217H8.28574V34.1304H9.02777V35.5217ZM9.92562 35.5217H9.18359V34.1304H9.92562V35.5217ZM10.8235 35.5217H10.0814V34.1304H10.8235V35.5217Z" fill="#4B9F46"/>
<path opacity="0.1" d="M1.84033 38.6665V40.2625H10.868V38.6665H1.84033ZM2.74004 40.1587H2.00358V38.7664H2.7456L2.74004 40.1587ZM3.63881 40.1587H2.89679V38.7664H3.63881V40.1587ZM4.53574 40.1587H3.79371V38.7664H4.53574V40.1587ZM5.43451 40.1587H4.69342V38.7664H5.43544L5.43451 40.1587ZM6.33236 40.1587H5.59034V38.7664H6.33236V40.1587ZM7.23114 40.1587H6.48912V38.7664H7.23114V40.1587ZM8.12992 40.1587H7.38789V38.7664H8.12992V40.1587ZM9.02777 40.1587H8.28574V38.7664H9.02777V40.1587ZM9.92562 40.1587H9.18359V38.7664H9.92562V40.1587ZM10.8235 40.1587H10.0814V38.7664H10.8235V40.1587Z" fill="#4B9F46"/>
<path opacity="0.1" d="M1.84033 43.3037V44.8948H10.868V43.3037H1.84033ZM2.74004 44.7959H2.00358V43.4026H2.7456L2.74004 44.7959ZM3.63881 44.7959H2.89679V43.4026H3.63881V44.7959ZM4.53574 44.7959H3.79371V43.4026H4.53574V44.7959ZM5.43451 44.7959H4.69342V43.4026H5.43544L5.43451 44.7959ZM6.33236 44.7959H5.59034V43.4026H6.33236V44.7959ZM7.23114 44.7959H6.48912V43.4026H7.23114V44.7959ZM8.12992 44.7959H7.38789V43.4026H8.12992V44.7959ZM9.02777 44.7959H8.28574V43.4026H9.02777V44.7959ZM9.92562 44.7959H9.18359V43.4026H9.92562V44.7959ZM10.8235 44.7959H10.0814V43.4026H10.8235V44.7959Z" fill="#4B9F46"/>
<path opacity="0.1" d="M1.87939 47.9399C1.91557 48.0897 1.95638 48.2396 1.99905 48.3874V48.0398H2.74107V49.4321H2.34409C2.35614 49.4644 2.3682 49.4997 2.38026 49.53H10.8681V47.9399H1.87939ZM3.6417 49.4321H2.89968V48.0398H3.6417V49.4321ZM4.53862 49.4321H3.7966V48.0398H4.53862V49.4321ZM5.4374 49.4321H4.69352V48.0398H5.43555L5.4374 49.4321ZM6.33525 49.4321H5.59323V48.0398H6.33525V49.4321ZM7.23403 49.4321H6.492V48.0398H7.23403V49.4321ZM8.13281 49.4321H7.39078V48.0398H8.13281V49.4321ZM9.03065 49.4321H8.28863V48.0398H9.03065V49.4321ZM9.9285 49.4321H9.18648V48.0398H9.9285V49.4321ZM10.8264 49.4321H10.0843V48.0398H10.8264V49.4321Z" fill="#4B9F46"/>
<path opacity="0.1" d="M3.97559 52.5769C3.99877 52.6082 4.02103 52.6435 4.04515 52.6748H4.53581V53.3436C4.58868 53.4101 4.64063 53.4767 4.69442 53.5394V52.6709H5.43645V54.0681H5.13593C5.16561 54.1004 5.19436 54.1347 5.22868 54.166H10.8708V52.5769H3.97559ZM6.33244 54.0681H5.59042V52.6768H6.33244V54.0681ZM7.23122 54.0681H6.48919V52.6768H7.23122V54.0681ZM8.13 54.0681H7.38797V52.6768H8.13V54.0681ZM9.02784 54.0681H8.28582V52.6768H9.02784V54.0681ZM9.92569 54.0681H9.18367V52.6768H9.92569V54.0681ZM10.8235 54.0681H10.0815V52.6768H10.8235V54.0681Z" fill="#4B9F46"/>
<path opacity="0.1" d="M8.92761 57.2131C9.01202 57.264 9.09828 57.311 9.18547 57.362V57.313H9.92749V57.7536L10.0852 57.831V57.313H10.8272V58.1599C10.8414 58.1674 10.8563 58.1733 10.8717 58.1776V57.2131H8.92761Z" fill="#4B9F46"/>
<path opacity="0.1" d="M58.4763 47.0695C58.4939 47.1322 58.5088 47.1949 58.5255 47.2565C58.5106 47.1949 58.4949 47.1322 58.4763 47.0695ZM14.1283 18.2109V18.629H18.2716V18.2109H14.1283ZM58.4763 47.0695C58.4939 47.1322 58.5088 47.1949 58.5255 47.2565C58.5106 47.1949 58.4949 47.1322 58.4763 47.0695ZM58.4763 47.0695C58.4939 47.1322 58.5088 47.1949 58.5255 47.2565C58.5106 47.1949 58.4949 47.1322 58.4763 47.0695Z" fill="#4B9F46"/>
<path opacity="0.1" d="M30.2867 75.9733C36.2403 75.9733 41.0667 75.2838 41.0667 74.4333C41.0667 73.5828 36.2403 72.8933 30.2867 72.8933C24.3331 72.8933 19.5067 73.5828 19.5067 74.4333C19.5067 75.2838 24.3331 75.9733 30.2867 75.9733Z" fill="#4B9F46"/>
<path d="M63.8911 46.1787H63.3096V60.001H63.8911V46.1787Z" fill="#535461"/>
<path d="M67.5456 59.9588L67.5095 60.5815L67.4575 61.4627L67.4362 61.8289L67.3852 62.7101L67.3629 63.0763L67.311 63.9575L66.7248 73.9514C66.6993 74.3814 66.5195 74.7849 66.2221 75.08C65.9247 75.375 65.532 75.5393 65.1238 75.5395H62.076C61.6679 75.5393 61.2753 75.375 60.978 75.0799C60.6808 74.7848 60.5012 74.3813 60.476 73.9514L59.8926 63.9506L59.8406 63.0694L59.8193 62.7032L59.7674 61.822L59.746 61.4558L59.6941 60.5746L59.657 59.9519C59.6505 59.832 59.6674 59.7121 59.7064 59.5993C59.7455 59.4866 59.8059 59.3834 59.8841 59.2963C59.9623 59.2091 60.0565 59.1396 60.161 59.0923C60.2655 59.0449 60.378 59.0206 60.4918 59.0208H66.7257C66.839 59.0218 66.9509 59.0473 67.0545 59.0958C67.158 59.1442 67.2511 59.2146 67.328 59.3024C67.4048 59.3903 67.4637 59.4939 67.5012 59.6068C67.5386 59.7197 67.5537 59.8395 67.5456 59.9588Z" fill="#3F3D56"/>
<path d="M67.5094 60.5815L67.4574 61.4598H59.7422L59.6903 60.5815H67.5094Z" fill="#9D9CB5"/>
<path d="M67.4361 61.8259L67.3851 62.7052H59.8155L59.7635 61.8259H67.4361Z" fill="#9D9CB5"/>
<path d="M67.3629 63.0725L67.3119 63.9508H59.8889L59.8369 63.0725H67.3629Z" fill="#9D9CB5"/>
<path d="M58.8027 51.3592C62.1891 53.946 63.6027 57.9918 63.6027 57.9918C63.6027 57.9918 59.5215 57.8439 56.1342 55.2571C52.7468 52.6702 51.3361 48.6255 51.3361 48.6255C51.3361 48.6255 55.4153 48.7724 58.8027 51.3592Z" fill="#4B9F46"/>
<path d="M51.3334 48.6255C51.3334 48.6255 55.5703 51.1076 56.9292 53.1627C58.288 55.2179 63.6027 57.9918 63.6027 57.9918" stroke="#535461" stroke-width="2" stroke-miterlimit="10"/>
<path d="M60.9889 46.1482C62.8319 47.5552 63.6027 49.7572 63.6027 49.7572C63.6027 49.7572 61.3812 49.6769 59.5373 48.2699C57.6934 46.8629 56.9244 44.6599 56.9244 44.6599C56.9244 44.6599 59.1449 44.7402 60.9889 46.1482Z" fill="#4B9F46"/>
<path d="M56.9244 44.6599C56.9244 44.6599 59.2303 46.0111 59.9695 47.1293C60.7088 48.2474 63.6027 49.7572 63.6027 49.7572" stroke="#535461" stroke-width="2" stroke-miterlimit="10"/>
<path d="M66.2786 49.6459C64.161 52.1025 63.713 55.313 63.713 55.313C63.713 55.313 66.6987 54.5395 68.8144 52.0819C70.9301 49.6244 71.38 46.4148 71.38 46.4148C71.38 46.4148 68.3961 47.1893 66.2786 49.6459Z" fill="#4B9F46"/>
<path d="M71.3818 46.4155C71.3818 46.4155 68.6234 48.9338 67.9221 50.6688C67.2209 52.4038 63.713 55.3128 63.713 55.3128" stroke="#535461" stroke-width="2" stroke-miterlimit="10"/>
<path d="M92.8933 46.3673C92.8933 46.3673 91.3619 38.3249 91.9481 37.3242C91.9481 37.3242 91.9695 36.394 91.9342 35.2083C91.9342 35.1633 91.9342 35.1182 91.9342 35.0722C92.0374 35.1448 92.1449 35.2102 92.2561 35.268C92.7962 35.561 93.4163 35.6455 94.0091 35.5069L93.5454 34.9616C93.4341 34.8313 93.3181 34.6904 93.294 34.518C93.2699 34.3457 93.3367 34.192 93.3942 34.0383C93.8348 32.8633 93.8579 31.3858 93.0092 30.489C92.2923 29.735 92.1179 28.7618 91.3397 28.0735C90.7711 27.5692 90.4585 26.83 90.1636 26.1152C89.9141 25.5111 89.6627 24.9021 89.5199 24.2617C89.4086 23.7614 89.3641 23.2435 89.211 22.7549C89.058 22.2663 88.7714 21.7914 88.3234 21.5731C88.1638 21.4957 87.9867 21.4517 87.841 21.3489C87.65 21.2128 87.535 20.9915 87.3968 20.7976C86.6946 19.8185 84.3433 20.3952 83.2303 20.7927C82.9277 20.8928 82.6475 21.0567 82.4066 21.2744L82.4168 21.2568C82.4252 21.2421 82.4354 21.2275 82.4447 21.2128C82.3228 21.3168 82.2176 21.4407 82.133 21.5799C81.9707 21.8512 81.903 22.1674 81.7676 22.4611C81.6043 22.8087 80.6963 23.779 81.0868 24.1697C81.1141 24.1959 81.1455 24.2171 81.1795 24.2324C81.3261 24.2968 81.4875 24.3138 81.6433 24.2813L81.6266 24.3234C81.4932 24.6681 81.4249 25.037 81.4253 25.4093C81.4253 27.018 82.6821 28.3222 84.2339 28.3222C84.5256 28.3225 84.8156 28.2752 85.0937 28.1821C85.1002 28.2193 85.1058 28.2566 85.1123 28.2938C85.1123 28.3085 85.1169 28.3231 85.1187 28.3378L85.0696 28.4103C85.0671 28.4058 85.0643 28.4016 85.0612 28.3976L83.605 30.5457C83.3824 30.7112 82.1006 31.6903 82.0282 32.4247C81.9522 33.2285 81.8761 34.1695 81.8761 34.1695L81.8659 34.3712C81.8023 34.4273 81.7278 34.4682 81.6478 34.491C81.5677 34.5138 81.4839 34.518 81.4021 34.5033C80.9476 34.425 80.9476 36.2658 80.9476 36.2658C80.9476 36.2658 80.6453 36.5595 80.4375 36.3049C80.2297 36.0504 79.6806 36.913 79.6806 36.913L76.2395 37.0696L76.1607 37.0745L75.9751 36.4684C75.9552 36.4045 75.9121 36.3515 75.8553 36.3209C75.7986 36.2902 75.7326 36.2845 75.6718 36.3049C75.6575 36.3099 75.6435 36.3161 75.6301 36.3235L75.6171 36.3314L75.593 36.349L75.5809 36.3607C75.5743 36.3671 75.5681 36.374 75.5624 36.3813L75.5513 36.395L75.5457 36.4009C75.5243 36.4321 75.5101 36.4683 75.5043 36.5064C75.4985 36.5444 75.5012 36.5834 75.5123 36.6202L75.6718 37.1401C75.0077 37.2811 74.3288 37.6786 74.8825 38.7733L72.0758 38.226L72.9839 39.0308L77.6716 40.052C77.6095 40.1695 77.6503 40.3399 77.8441 40.5798C78.6789 41.6147 80.2 41.8957 80.8122 41.9682C80.9739 42.3499 81.1758 42.7112 81.4142 43.0452L81.3613 44.0762C81.3613 44.0762 79.8114 51.9346 79.5276 52.3331C79.6709 52.1617 79.802 51.9795 79.9199 51.7878C79.4701 53.4023 78.8412 55.6122 78.6761 55.9431C78.4108 56.4719 78.165 58.6112 78.4674 58.7483C78.5602 58.7904 78.8254 58.7699 79.2039 58.7395V58.9167L79.1872 65.6325C79.1872 65.6325 79.2632 69.7517 79.0546 70.1443C78.8459 70.5369 78.7902 71.3604 78.7902 71.3604C78.7902 71.3604 77.9554 72.9847 77.2941 73.6378C77.2896 73.6429 77.2846 73.6475 77.2793 73.6515L77.2588 73.4988C77.2588 73.4988 76.464 74.5582 74.7054 74.4985C74.7054 74.4985 73.647 75.225 75.2164 75.2641C76.7858 75.3033 78.7902 75.2054 78.7902 75.2054C78.7902 75.2054 80.1898 72.9534 81.3622 73.2471V74.9537H81.7212V73.2197C81.8877 73.104 82.0301 72.9539 82.14 72.7783C82.2498 72.6028 82.3248 72.4055 82.3603 72.1985C82.391 71.9851 82.3685 71.767 82.295 71.5655C82.2214 71.3641 82.0995 71.1864 81.941 71.05C81.8698 70.9821 81.8128 70.8993 81.7733 70.807C81.7339 70.7147 81.713 70.6147 81.7119 70.5134L81.6989 70.5252C81.6989 70.4909 81.6906 70.4557 81.6869 70.4194C81.5839 69.5382 81.455 67.72 81.9104 66.3747C82.5346 64.53 82.7239 61.9608 82.2694 60.4314C82.1227 59.9426 82.0023 59.4454 81.9086 58.9422C81.8974 58.8786 81.8872 58.8178 81.878 58.7611C82.1886 58.8054 82.4963 58.8708 82.799 58.9569C83.8517 59.2633 86.1548 59.3201 88.1212 59.3035C88.1258 59.3603 88.1314 59.42 88.1379 59.4797C88.1729 59.8949 88.2462 60.3054 88.3568 60.7056C88.6035 61.4889 88.7166 64.9422 88.7166 64.9422C88.7166 64.9422 89.0348 67.7817 88.8613 68.9371C88.7686 69.5794 88.6758 70.2246 88.623 70.8728V70.8855C88.623 70.8855 88.1017 72.4521 87.7205 73.303C87.7112 73.3245 87.701 73.346 87.6917 73.3666C87.5901 73.3764 87.49 73.3997 87.394 73.4361C87.394 73.4361 86.8829 74.5131 86.3737 74.6913C85.8645 74.8695 86.0333 75.456 87.1862 75.2406C88.3391 75.0252 90.0801 74.849 90.0801 74.849L90.1552 73.7504L90.5096 73.2824L90.4168 74.378L90.7943 74.2997L90.7442 72.9671L91.3239 72.2014C91.3239 72.2014 92.0242 71.5435 90.9835 70.2491V70.2775C90.9724 70.2589 90.9622 70.2393 90.9501 70.2207V70.2148C90.7776 69.9328 90.6403 69.407 90.8917 68.4739C91.3462 66.7879 91.6105 65.2575 91.6105 65.2575C91.6105 65.2575 92.6252 61.1579 91.4055 59.2183H91.4593C91.3343 58.9454 91.246 58.6554 91.1969 58.3567C91.1907 58.3214 91.1851 58.2852 91.1802 58.248C92.0826 58.1932 92.9684 58.0208 93.691 57.6488C93.6882 57.6449 93.2532 47.9163 92.8933 46.3673ZM81.4355 39.582V39.6016L81.25 39.6114L81.4355 39.582ZM80.7992 39.6751C80.7687 39.6822 80.7402 39.6966 80.7158 39.7172C80.636 39.8363 80.5859 39.9747 80.5701 40.1196L80.2807 40.051C80.2807 40.051 80.0776 40.005 79.7854 39.9531L79.6472 39.8063C80.0275 39.773 80.4227 39.724 80.7992 39.6751Z" fill="url(#paint0_linear_1601_6757)"/>
<path d="M90.374 72.981L90.2637 74.3684L90.6338 74.2901L90.5781 72.7852L90.374 72.981Z" fill="#1D2366"/>
<path d="M81.9308 66.3933C81.4846 67.7347 81.6108 69.5451 81.711 70.4243C81.7481 70.7494 81.7824 70.9472 81.7824 70.9472C81.7824 70.9472 81.1155 72.551 81.0598 72.6117C81.0042 72.6724 79.0972 73.9012 79.0972 73.9012L77.7643 74.7227C77.7643 74.7227 76.412 74.097 77.0603 73.8816C77.1928 73.8255 77.3121 73.7396 77.41 73.63C78.0593 72.9788 78.8746 71.3604 78.8746 71.3604C78.8746 71.3604 78.9302 70.5389 79.1343 70.1482C79.3383 69.7575 79.2641 65.6521 79.2641 65.6521L79.2799 58.9598V58.0874L81.8167 58.107C81.8327 58.4032 81.8693 58.6977 81.9261 58.9882C82.0172 59.4896 82.1352 59.9852 82.2795 60.4725C82.7266 61.999 82.5411 64.5555 81.9308 66.3933Z" fill="#FFB0B1"/>
<path opacity="0.1" d="M81.7824 70.9472C81.7824 70.9472 81.1155 72.551 81.0598 72.6117C81.0042 72.6724 79.0972 73.9012 79.0972 73.9012L77.7643 74.7227C77.7643 74.7227 76.412 74.097 77.0603 73.8816C77.1928 73.8255 77.3121 73.7396 77.41 73.6299L77.4675 74.0578L77.9118 74.0382L81.7147 70.4263C81.7481 70.7494 81.7824 70.9472 81.7824 70.9472Z" fill="black"/>
<path d="M81.736 70.5173L77.9118 74.1538L77.4675 74.1734L77.3747 73.488C77.3747 73.488 76.5975 74.5435 74.8704 74.4847C74.8704 74.4847 73.8334 75.2083 75.3704 75.2475C76.9073 75.2866 78.8699 75.1887 78.8699 75.1887C78.8699 75.1887 80.2408 72.9367 81.3882 73.2305V74.9312H81.7406V73.2148C81.9045 73.0984 82.0444 72.9481 82.1518 72.7731C82.2592 72.5981 82.332 72.402 82.3658 72.1965C82.3963 71.9849 82.3747 71.7685 82.3031 71.5682C82.2314 71.3679 82.1122 71.1905 81.9567 71.0529C81.8873 70.9842 81.8319 70.9013 81.794 70.8092C81.756 70.7171 81.7363 70.6178 81.736 70.5173Z" fill="#1D2366"/>
<path d="M90.7266 68.4849C90.4799 69.415 90.6144 69.9389 90.7832 70.2199V70.2257C90.9997 70.5727 91.1503 70.9608 91.2265 71.3684L91.2414 71.4565L89.5013 74.1344L88.5571 74.526C88.5571 74.526 87.0387 73.9787 87.3161 73.822C87.3856 73.7839 87.4941 73.5802 87.6184 73.2992C87.9894 72.4522 88.5014 70.8896 88.5014 70.8896V70.8768C88.5552 70.2316 88.6406 69.5883 88.7352 68.948C88.9049 67.7956 88.5933 64.9669 88.5933 64.9669C88.5933 64.9669 88.482 61.5272 88.2408 60.7449C88.1319 60.3472 88.0596 59.9393 88.0247 59.5269C87.9746 59.0373 87.9635 58.6339 87.9635 58.6339C87.9635 58.6339 88.9634 57.1652 90.7962 58.7514C90.9427 58.8779 91.0717 59.0256 91.1792 59.1901C92.4453 61.0915 91.4259 65.2802 91.4259 65.2802C91.4259 65.2802 91.1709 66.8037 90.7266 68.4849Z" fill="#FFB0B1"/>
<path opacity="0.1" d="M91.2441 71.4564L89.504 74.1343L88.5598 74.526C88.5598 74.526 87.0414 73.9786 87.3188 73.822C87.3883 73.7838 87.4968 73.5801 87.6211 73.2991C88.2639 73.2932 88.5969 73.9395 88.5969 73.9395L89.4113 73.8024C89.4113 73.8024 90.4853 71.5739 90.7265 71.4378C90.9677 71.3017 90.7636 70.4205 90.7636 70.4205V70.1963C90.7701 70.2041 90.7757 70.2129 90.7831 70.2208V70.2266C90.9996 70.5736 91.1502 70.9617 91.2264 71.3693L91.2441 71.4564Z" fill="black"/>
<path d="M88.6526 73.9971C88.6526 73.9971 88.1888 73.0983 87.3003 73.4302C87.3003 73.4302 86.8003 74.5072 86.3004 74.6815C85.8004 74.8558 85.9674 75.4432 87.0971 75.2288C88.2269 75.0144 89.9298 74.8372 89.9298 74.8372L90.004 73.7415L91.1523 72.1975C91.1523 72.1975 91.8368 71.5424 90.8184 70.2529V70.4772C90.8184 70.4772 91.0224 71.3584 90.7813 71.4945C90.5401 71.6306 89.4698 73.86 89.4698 73.86L88.6526 73.9971Z" fill="#1D2366"/>
<path opacity="0.1" d="M81.8195 58.105C81.8355 58.4012 81.8721 58.6957 81.9289 58.9862C80.8845 58.8247 79.9153 58.905 79.2799 58.9578V58.0854L81.8195 58.105Z" fill="black"/>
<path opacity="0.1" d="M91.2822 59.4339C91.2822 59.4339 89.7981 59.5102 88.0284 59.5259C87.9783 59.0363 87.9672 58.6329 87.9672 58.6329C87.9672 58.6329 88.967 57.1643 90.7998 58.7504C90.9464 58.877 91.0754 59.0246 91.1829 59.1891C91.2117 59.2726 91.2448 59.3543 91.2822 59.4339Z" fill="black"/>
<path d="M91.2822 59.2575C91.2822 59.2575 84.782 59.5894 82.8008 59.003C80.8196 58.4165 78.8561 58.9246 78.5602 58.7885C78.2643 58.6524 78.5045 56.5209 78.7642 55.9931C79.0239 55.4654 80.4486 50.1282 80.4486 50.1282L81.8195 42.5831L83.2637 42.1631L83.3657 42.1327L85.8821 41.4003L87.726 40.8628C87.726 40.8628 91.3926 55.9736 91.0781 57.0878C90.9639 57.5145 90.9455 57.9633 91.0243 58.3988C91.0724 58.6962 91.1591 58.9852 91.2822 59.2575Z" fill="#1D2366"/>
<path d="M77.0408 37.4231C77.0408 37.4231 75.7423 38.8918 76.7255 39.7103C77.7086 40.5289 78.3551 39.7887 78.3551 39.7887L77.0408 37.4231Z" fill="#C7DAF5"/>
<path opacity="0.1" d="M77.0408 37.4231C77.0408 37.4231 75.7423 38.8918 76.7255 39.7103C77.7086 40.5289 78.3551 39.7887 78.3551 39.7887L77.0408 37.4231Z" fill="black"/>
<path d="M87.5321 27.7669C87.5321 27.7669 87.38 27.9197 87.1509 28.1449C86.8244 28.467 86.3412 28.938 85.9126 29.3326C85.319 29.8779 84.8293 30.2784 85.0046 29.9367C85.1799 29.595 85.1465 28.9997 85.0593 28.4425C85.0528 28.4053 85.0473 28.3681 85.0408 28.3319C84.9686 27.9227 84.8728 27.5186 84.7542 27.1217C84.7542 27.1217 85.7132 25.8136 86.2438 25.2976C86.4413 25.1018 86.5795 25.0215 86.5879 25.1576C86.5972 25.3407 86.727 25.7451 86.8884 26.1739C86.893 26.1876 86.8977 26.2003 86.9032 26.2141C87.0108 26.5078 87.1323 26.8094 87.239 27.0698C87.4023 27.4693 87.5321 27.7669 87.5321 27.7669Z" fill="#FFB0B1"/>
<path opacity="0.1" d="M86.9032 26.2141C86.8131 26.7259 86.5944 27.2026 86.2701 27.5946C85.9457 27.9867 85.5276 28.2795 85.0593 28.4426C84.9856 27.9956 84.8836 27.5544 84.7542 27.1218C84.7542 27.1218 86.5601 24.6593 86.5879 25.1577C86.5944 25.3466 86.7354 25.7657 86.9032 26.2141Z" fill="black"/>
<path opacity="0.1" d="M84.8794 29.1005L85.1132 28.7529C85.1132 28.7529 85.268 29.7497 85.8376 29.31C86.4071 28.8704 86.4349 32.6185 86.4349 32.6185L85.8236 42.2658L81.4067 41.9867L81.532 37.3251L82.0319 34.9752L83.2683 31.5591L84.0038 30.4302L84.8794 29.1005Z" fill="black"/>
<path d="M86.4349 32.6783L85.8784 41.4013L85.82 42.3256L83.3574 42.1699L83.2646 42.164L81.4095 42.0465L81.5348 37.384L82.0347 35.0341L83.2711 31.6179L84.0066 30.489L84.8822 29.1545L85.116 28.8079C85.116 28.8079 85.2709 29.8046 85.8404 29.365L85.8524 29.3562C86.4089 28.9841 86.4349 32.6783 86.4349 32.6783Z" fill="#1D2366"/>
<path d="M82.0968 34.2175C82.0968 34.2175 81.8752 34.7071 81.4299 34.6278C80.9847 34.5485 80.9857 36.3902 80.9857 36.3902C80.9857 36.3902 80.6898 36.6839 80.4857 36.4294C80.2817 36.1748 79.7437 37.0354 79.7437 37.0354L76.373 37.1921C76.373 37.1921 77.8729 37.9157 77.5788 40.105C77.5788 40.105 82.671 39.7721 82.8379 39.2639C83.0049 38.7558 82.0968 34.2175 82.0968 34.2175Z" fill="white"/>
<path opacity="0.03" d="M82.0968 34.2175C82.0968 34.2175 81.8752 34.7071 81.4299 34.6278C80.9847 34.5485 80.9857 36.3902 80.9857 36.3902C80.9857 36.3902 80.6898 36.6839 80.4857 36.4294C80.2817 36.1748 79.7437 37.0354 79.7437 37.0354L76.373 37.1921C76.373 37.1921 77.8729 37.9157 77.5788 40.105C77.5788 40.105 82.671 39.7721 82.8379 39.2639C83.0049 38.7558 82.0968 34.2175 82.0968 34.2175Z" fill="black"/>
<path d="M72.3011 38.3425L73.1897 39.1434L80.5042 40.7659L79.5971 39.7887L72.3011 38.3425Z" fill="white"/>
<path d="M84.8933 29.4091C84.7718 29.605 84.424 30.6076 84.1336 31.4829C83.8916 32.2124 83.6894 32.8537 83.6894 32.8537C83.6894 32.8537 83.2172 36.0985 82.9761 36.685C82.7349 37.2715 82.8657 39.5587 82.8657 39.5587L81.9669 45.2072C81.9669 45.2072 81.5597 48.1201 80.9309 49.86C80.3104 51.5725 79.6194 52.3754 79.598 52.4008C79.8763 52.0033 81.3928 44.1762 81.3928 44.1762L81.8937 34.3047C81.8937 34.3047 81.9669 33.3667 82.0411 32.5648C82.1153 31.7629 83.6179 30.6683 83.6179 30.6683L85.0667 28.4937C85.2124 28.6993 85.115 29.0576 84.8933 29.4091Z" fill="white"/>
<path d="M81.1155 42.0955C81.1155 42.0955 78.9822 41.9976 77.9489 40.6876C76.9157 39.3775 80.3373 40.1647 80.3373 40.1647L81.2268 40.3801L81.1155 42.0955Z" fill="#FFB0B1"/>
<path opacity="0.1" d="M91.0781 57.0887C90.9639 57.5154 90.9455 57.9642 91.0243 58.3997C88.6971 58.574 86.2077 57.9102 86.2077 57.9102C85.7439 58.3606 84.5223 59.0244 84.5223 59.0244L83.8564 50.3102C83.4306 49.1353 83.2637 42.9796 83.2637 42.9796C83.2637 42.9796 83.3017 42.6574 83.3564 42.1747C83.3564 42.163 83.3564 42.1502 83.3611 42.1385C83.5271 40.7902 83.8564 38.2592 84.0177 37.9175C84.2404 37.4475 83.3332 36.1972 83.3332 36.1972L83.746 32.4814L83.7961 32.033C84.6661 31.6227 85.333 30.3127 85.333 30.3127L85.845 29.3659C86.4015 28.9889 86.4303 32.6831 86.4303 32.6831L85.8737 41.4061L87.7177 40.8686C87.7177 40.8686 91.3925 55.9744 91.0781 57.0887Z" fill="black"/>
<path d="M93.4665 57.691C90.9297 59.0207 86.319 57.7889 86.319 57.7889C85.8552 58.2393 84.6337 58.9032 84.6337 58.9032L83.9668 50.189C83.542 49.014 83.375 42.8583 83.375 42.8583C83.375 42.8583 83.9111 38.2653 84.1337 37.7963C84.1986 37.6592 84.1671 37.4555 84.0901 37.2362C83.7116 36.1923 83.5724 35.0687 83.6839 33.9571L83.862 32.3602L83.9111 31.9127C84.7821 31.5015 85.449 30.1914 85.449 30.1914L85.9127 29.3337L86.7661 27.7534L87.1705 27.0054L87.2391 27.071L87.7631 27.5723C87.7631 27.5723 87.9858 27.7681 88.3197 28.0618C89.0459 28.7081 90.3009 29.8458 90.9483 30.542C91.5178 31.1549 91.6977 33.539 91.7497 35.3338C91.784 36.5156 91.7636 37.4418 91.7636 37.4418C91.1894 38.4395 92.6911 46.4497 92.6911 46.4497C93.0408 47.9977 93.4665 57.691 93.4665 57.691Z" fill="white"/>
<path opacity="0.03" d="M88.597 30.1718C88.597 30.1718 86.856 33.6702 87.0582 34.9998C87.2604 36.3295 87.8355 37.8344 87.5582 38.1859C87.4629 38.3191 87.3397 38.4272 87.1982 38.5017C87.0568 38.5763 86.9009 38.6153 86.7428 38.6157C86.4646 38.6353 85.7226 39.1826 85.7226 39.2414C85.7226 39.3001 85.0371 39.3001 84.424 39.5743C83.8109 39.8484 82.9057 40.0041 82.9057 40.0041C82.9057 40.0041 81.1433 39.9454 80.9792 40.1216C80.815 40.2979 80.6462 41.3524 80.9977 42.1934C81.3493 43.0345 81.7398 43.6621 82.0347 43.7767C82.3297 43.8912 84.2014 43.2293 85.7198 43.0727C87.2382 42.916 88.8864 41.6461 88.8864 41.6461C88.8864 41.6461 90.7015 40.9607 91.0197 39.8083C91.3378 38.6559 90.6311 32.3219 90.6311 32.3219C90.6311 32.3219 90.0968 29.3699 88.597 30.1718Z" fill="black"/>
<path opacity="0.03" d="M88.3743 29.8781C88.3743 29.8781 86.6333 33.3774 86.8374 34.7061C87.0415 36.0348 87.6147 37.5407 87.3364 37.8931C87.2415 38.0265 87.1185 38.1347 86.9772 38.2093C86.8358 38.2839 86.68 38.3228 86.522 38.323C86.2438 38.3426 85.5018 38.8899 85.5018 38.9486C85.5018 39.0074 84.8163 39.0074 84.2032 39.2806C83.5901 39.5537 82.6848 39.7104 82.6848 39.7104C82.6848 39.7104 80.9225 39.6516 80.7593 39.8279C80.5961 40.0041 80.4254 41.0596 80.7778 41.8997C81.1303 42.7398 81.5199 43.3684 81.8148 43.4829C82.1098 43.5975 83.9815 42.9356 85.4999 42.7799C87.0183 42.6243 88.6665 41.3524 88.6665 41.3524C88.6665 41.3524 90.4807 40.667 90.7952 39.5155C91.1096 38.3641 90.4065 32.0282 90.4065 32.0282C90.4065 32.0282 89.8741 29.0771 88.3743 29.8781Z" fill="black"/>
<path d="M88.5423 29.9956C88.5423 29.9956 86.8013 33.495 87.0054 34.8237C87.2094 36.1523 87.7826 37.6582 87.5053 38.0097C87.4103 38.1434 87.2873 38.2518 87.1458 38.3266C87.0043 38.4014 86.8482 38.4404 86.69 38.4405C86.4117 38.4601 85.6697 39.0075 85.6697 39.0652C85.6697 39.123 84.9852 39.124 84.3712 39.3981C83.7571 39.6723 82.8528 39.828 82.8528 39.828C82.8528 39.828 81.0905 39.7692 80.9263 39.9455C80.7621 40.1217 80.5933 41.1772 80.9449 42.0173C81.2964 42.8574 81.6869 43.4859 81.9818 43.6005C82.2768 43.7151 84.1486 43.0532 85.6669 42.8965C87.1853 42.7399 88.8335 41.4699 88.8335 41.4699C88.8335 41.4699 90.6487 40.7846 90.9668 39.6321C91.285 38.4797 90.5828 32.1458 90.5828 32.1458C90.5828 32.1458 90.0412 29.1986 88.5423 29.9956Z" fill="white"/>
<path opacity="0.1" d="M88.5042 39.3813C88.5042 39.3813 87.1129 39.0876 87.5971 39.5772C88.0812 40.0667 88.0785 40.4956 88.6712 40.476C89.2638 40.4564 88.5042 39.3813 88.5042 39.3813Z" fill="black"/>
<path opacity="0.1" d="M90.8554 49.9148C90.8554 49.9148 90.2266 50.3642 91.4296 51.4001C92.6326 52.436 90.8554 49.9148 90.8554 49.9148Z" fill="black"/>
<path opacity="0.1" d="M89.6553 53.6089C89.6553 53.6676 89.4327 55.7629 90.2656 56.2868C91.0985 56.8106 89.6553 53.6089 89.6553 53.6089Z" fill="black"/>
<path d="M76.4306 37.1873C75.759 37.2117 74.3084 37.4281 75.0606 38.9095C75.7257 40.2206 76.8433 39.3443 77.4722 38.6794C77.3188 38.0596 76.946 37.5255 76.4306 37.1873Z" fill="#FFB0B1"/>
<path opacity="0.1" d="M88.3197 28.1214C87.6073 28.6355 87.01 29.0692 86.8931 29.1593C86.574 29.409 85.9656 30.8747 85.5732 31.6228C85.2607 32.2249 84.245 32.3796 83.8619 32.4178L83.9111 31.9703C84.7821 31.5591 85.4489 30.249 85.4489 30.249L87.1704 27.063L87.7631 27.6319C87.7631 27.6319 87.9857 27.8277 88.3197 28.1214Z" fill="black"/>
<path d="M88.3197 28.0628C87.6073 28.5769 87.01 29.0106 86.8931 29.1017C86.574 29.3504 85.9656 30.8161 85.5732 31.5642C85.2607 32.1663 84.245 32.321 83.8619 32.3592L83.9111 31.9117C84.7821 31.5005 85.4489 30.1905 85.4489 30.1905L87.1704 27.0044L87.7631 27.5713C87.7631 27.5713 87.9857 27.7652 88.3197 28.0628Z" fill="#DCE7FF"/>
<path d="M86.9488 25.5679C86.9492 26.1556 86.7803 26.7296 86.4646 27.2138C86.0917 27.7862 85.5368 28.1986 84.9006 28.3761C84.2644 28.5536 83.5889 28.4844 82.9968 28.1812C82.4048 27.8779 81.9353 27.3607 81.6736 26.7233C81.4118 26.0859 81.3753 25.3706 81.5704 24.7072C81.7656 24.0437 82.1796 23.4761 82.7373 23.1073C83.295 22.7385 83.9594 22.593 84.6101 22.6971C85.2607 22.8012 85.8545 23.1481 86.2835 23.6748C86.7126 24.2016 86.9487 24.8732 86.9488 25.5679Z" fill="#FFB0B1"/>
<path opacity="0.1" d="M91.7496 35.3346C91.3729 35.09 91.0661 34.7422 90.8619 34.3281C90.707 34.005 90.6041 33.6319 90.3397 33.4028C90.1014 33.1972 89.7832 33.1473 89.4864 33.0552C88.5106 32.7507 87.6926 31.8108 87.662 30.7376C87.6471 30.2324 87.7964 29.7282 87.7287 29.2278C87.6902 28.9447 87.5836 28.6767 87.4189 28.4494C87.3372 28.3408 87.2476 28.239 87.1509 28.1449C87.021 28.0157 86.8847 27.8904 86.766 27.7533C86.6912 27.6684 86.6258 27.5748 86.5712 27.4742C86.5271 27.392 86.4913 27.305 86.4645 27.2148C86.279 26.6155 86.4478 25.9047 86.2438 25.2986L86.2326 25.2653C86.1556 25.0499 85.9989 24.8345 85.7809 24.8179C85.563 24.8012 85.3765 24.9922 85.1688 25.0774C84.7337 25.2556 84.2644 24.952 83.9017 24.6426C83.5391 24.3332 83.13 23.9798 82.6691 24.0483C82.3639 24.0943 82.1227 24.3136 81.8417 24.4272C81.7783 24.4531 81.7128 24.4731 81.646 24.4869C81.8838 23.8608 82.3208 23.3416 82.8819 23.0187C83.4429 22.6957 84.093 22.589 84.7205 22.7171C85.3479 22.8451 85.9135 23.1998 86.3201 23.7202C86.7268 24.2406 86.949 24.8943 86.9487 25.5689C86.949 25.7726 86.9288 25.9757 86.8884 26.1749C86.893 26.1887 86.8977 26.2014 86.9032 26.2151C87.0108 26.5088 87.1323 26.8104 87.239 27.0708L87.7631 27.5722C87.7631 27.5722 87.9857 27.768 88.3196 28.0617C89.0458 28.7079 90.3008 29.8457 90.9482 30.5418C91.5177 31.1567 91.6958 33.5399 91.7496 35.3346Z" fill="black"/>
<path d="M81.8093 22.6385C81.9419 22.3536 82.0078 22.0344 82.1664 21.7642C82.3992 21.3725 82.8054 21.1219 83.2228 20.9701C84.3127 20.5736 86.6157 19.9978 87.304 20.9701C87.4394 21.1659 87.5516 21.3833 87.739 21.5184C87.8818 21.6212 88.0543 21.6653 88.2111 21.7426C88.6498 21.96 88.9299 22.4339 89.0793 22.9176C89.2286 23.4013 89.2731 23.9202 89.3826 24.4186C89.5226 25.0579 89.7684 25.664 90.0133 26.2662C90.3017 26.977 90.6078 27.7143 91.1643 28.2166C91.924 28.902 92.0919 29.8723 92.7968 30.6242C93.6316 31.5172 93.6047 32.9908 93.1743 34.1608C93.1177 34.3145 93.0537 34.4751 93.076 34.6386C93.0982 34.8021 93.2133 34.951 93.3218 35.0812L93.7781 35.6246C92.6985 35.8997 91.4769 35.3044 90.9742 34.2597C90.8193 33.9366 90.7163 33.5645 90.4511 33.3344C90.2136 33.1288 89.8946 33.0799 89.5987 32.9878C88.6229 32.6823 87.8048 31.7414 87.7742 30.6683C87.7594 30.1641 87.9087 29.6598 87.841 29.1604C87.8033 28.8754 87.6963 28.6055 87.5303 28.3772C87.2752 28.0256 86.8903 27.7897 86.6825 27.398C86.331 26.743 86.5981 25.8921 86.3449 25.1891C86.267 24.9737 86.1112 24.7583 85.8932 24.7417C85.6752 24.725 85.4888 24.916 85.2801 25.0011C84.846 25.1793 84.3767 24.8768 84.014 24.5664C83.6513 24.256 83.2423 23.9036 82.7804 23.9731C82.4752 24.0181 82.235 24.2374 81.954 24.352C81.7462 24.4362 81.3251 24.5116 81.1433 24.3265C80.7593 23.9535 81.6488 22.9871 81.8093 22.6385Z" fill="#591D4B"/>
<path opacity="0.1" d="M91.232 33.9366C91.0762 33.6135 90.9742 33.2414 90.7089 33.0123C90.4715 32.8067 90.1524 32.7567 89.8556 32.6647C88.8807 32.3602 88.0627 31.4193 88.0311 30.3462C88.0163 29.8419 88.1656 29.3367 88.0988 28.8373C88.06 28.5541 87.953 28.2861 87.7881 28.0589C87.5321 27.7074 87.1472 27.4715 86.9403 27.0798C86.5888 26.4258 86.8559 25.5749 86.6018 24.8709C86.5248 24.6565 86.3681 24.4411 86.151 24.4235C85.934 24.4058 85.7457 24.5987 85.5379 24.6839C85.1038 24.8621 84.6336 24.5586 84.2718 24.2492C83.9101 23.9398 83.4992 23.5863 83.0382 23.6548C82.7331 23.7009 82.4919 23.9202 82.2118 24.0338C82.004 24.118 81.582 24.1943 81.4002 24.0093C81.0181 23.6176 81.9076 22.6532 82.0671 22.3066C82.1997 22.0207 82.2656 21.7025 82.4251 21.4322C82.4335 21.4176 82.4428 21.4029 82.452 21.3882C82.3327 21.4925 82.2297 21.6161 82.1469 21.7544C81.9883 22.0246 81.9224 22.3418 81.7898 22.6287C81.6293 22.9753 80.7398 23.9427 81.1229 24.3314C81.3084 24.5175 81.7258 24.4411 81.9335 24.3569C82.2118 24.2423 82.4548 24.023 82.76 23.978C83.2237 23.9084 83.6318 24.2619 83.9936 24.5713C84.3553 24.8807 84.8284 25.1842 85.2606 25.006C85.4684 24.9208 85.6501 24.7289 85.8728 24.7466C86.0954 24.7642 86.2438 24.9786 86.3245 25.194C86.5777 25.897 86.3106 26.7479 86.6621 27.4029C86.8699 27.7877 87.2548 28.0286 87.5099 28.382C87.6758 28.6104 87.7829 28.8803 87.8206 29.1653C87.8883 29.6647 87.739 30.1689 87.7538 30.6732C87.7844 31.7502 88.6025 32.6872 89.5782 32.9927C89.8723 33.0848 90.1932 33.1337 90.4306 33.3393C90.6968 33.5694 90.8017 33.9415 90.9538 34.2646C91.4565 35.3093 92.6781 35.9046 93.7577 35.6295L93.5425 35.373C92.6066 35.3876 91.6596 34.8256 91.232 33.9366Z" fill="black"/>
<path opacity="0.1" d="M84.8377 29.4678C84.7162 29.6636 84.3684 30.6662 84.0781 31.5415C83.8063 31.4299 83.5596 30.7181 83.5596 30.7181L85.0084 28.5425C85.1568 28.7579 85.0594 29.1153 84.8377 29.4678Z" fill="black"/>
<path d="M84.8934 29.4089C84.7719 29.6047 84.424 30.6074 84.1337 31.4827C83.862 31.372 83.6152 30.6592 83.6152 30.6592L85.064 28.4846C85.2124 28.699 85.115 29.0574 84.8934 29.4089Z" fill="#DCE7FF"/>
<path d="M76.4694 39.4118L75.6662 36.7378C75.6567 36.7065 75.6531 36.6735 75.6557 36.6407C75.6583 36.608 75.667 36.5761 75.6813 36.5469C75.6956 36.5177 75.7153 36.4917 75.7391 36.4706C75.7629 36.4494 75.7905 36.4334 75.8202 36.4235C75.88 36.4038 75.9447 36.4098 76.0003 36.4403C76.0559 36.4707 76.0978 36.5231 76.117 36.586L76.9202 39.2571L76.8405 39.8162L76.4694 39.4118Z" fill="#BE8B87"/>
<path opacity="0.1" d="M75.7423 36.5028C75.8022 36.4828 75.8671 36.4887 75.923 36.5191C75.9788 36.5496 76.0209 36.6022 76.04 36.6653L76.8433 39.3364L76.783 39.7554L76.8414 39.8201L76.9212 39.261L76.1133 36.5899C76.0941 36.527 76.0522 36.4746 75.9966 36.4442C75.941 36.4137 75.8763 36.4077 75.8165 36.4274C75.7662 36.4446 75.7228 36.4791 75.6931 36.5253C75.7089 36.5164 75.7253 36.5089 75.7423 36.5028Z" fill="white"/>
<path d="M76.4695 39.4118L76.9203 39.261L76.8544 39.7192L76.8405 39.8201L76.7088 39.6752L76.4695 39.4118Z" fill="#EFC8C4"/>
<path d="M76.7087 39.6752C76.7166 39.6647 76.7264 39.6561 76.7375 39.6497C76.744 39.6454 76.7516 39.6431 76.7593 39.6431C76.767 39.6431 76.7746 39.6454 76.7811 39.6497C76.7874 39.6578 76.7927 39.6667 76.7969 39.6762C76.803 39.687 76.8113 39.6962 76.8213 39.7031C76.8312 39.7101 76.8425 39.7146 76.8544 39.7163L76.8405 39.8142L76.7087 39.6752Z" fill="#727A9C"/>
<path d="M75.6616 37.6875C75.6616 37.6875 77.2727 37.6777 76.8934 38.4013C76.514 39.1249 75.9213 39.212 75.9213 39.212L75.6616 37.6875Z" fill="#FFB0B1"/>
<path d="M62.1124 32.8303L64.96 36.7149L62.1124 40.5534L58.52 37.6398L62.1124 32.8303Z" fill="#D34957"/>
<path d="M60.4477 23.3497L61.981 21.2224C62.5505 20.4825 63.3829 20.02 64.2591 20.02H66.8C67.2381 20.02 67.6762 20.1125 68.0705 20.3437C68.4647 20.5287 68.8152 20.8524 69.0781 21.2224L70.6552 23.396C71.8819 25.1071 71.8819 27.4656 70.6552 29.1305L68.9905 31.3503L66.1428 27.4656L67.8952 25.1071C67.8952 25.1071 67.8514 25.1071 67.8514 25.0608C67.5448 24.8758 67.1943 24.7834 66.8438 24.7834H64.2591C63.9086 24.7834 63.5581 24.9221 63.2514 25.1071L69.1219 33.0151L72.539 37.6398L68.9905 40.5532L60.4477 29.0842C59.221 27.4194 59.221 25.0608 60.4477 23.3497ZM62.5943 24.2284C62.6381 24.2746 62.6381 24.3209 62.6819 24.3671C62.7696 24.2746 62.901 24.2284 63.0324 24.1822C63.4267 23.9972 63.8648 23.8585 64.3029 23.8585H66.8438C67.2819 23.8585 67.72 23.9509 68.1143 24.1822C68.2019 24.2284 68.3333 24.3209 68.421 24.3671C68.7276 23.9047 68.9028 23.2573 68.7714 22.7023C68.7276 22.3786 68.5962 22.0548 68.3771 21.7774C68.2019 21.5461 67.939 21.3149 67.6762 21.1762C67.4133 21.0374 67.1067 20.9449 66.8 20.9449H64.2591C63.6457 20.9449 63.0762 21.2687 62.6819 21.7774C62.2 22.4711 62.1124 23.4885 62.5943 24.2284Z" fill="#D34957"/>
<path d="M18.856 37.4211H26.0511V45.803H18.856V37.4211Z" fill="#FFB6B6"/>
<path d="M25.5919 22.334C25.9566 21.7092 26.127 21.4371 26.0512 21.0767C25.9179 20.4436 25.1426 20.0995 24.8264 19.9591C23.8109 19.5083 22.4943 19.5352 21.4585 20.0988C20.8362 20.4374 20.504 20.867 20.2338 21.2164C19.9916 21.5295 19.2387 22.5031 19.3152 23.7309C19.3727 24.6527 19.8347 24.7099 19.7745 25.2676C19.6233 26.6676 16.675 26.6475 15.9473 28.2013C15.2911 29.6023 16.6061 31.9298 18.5498 32.8113C21.509 34.1532 24.7122 31.5933 25.2857 31.1349C26.6677 30.0304 27.5817 28.5104 27.2759 28.2013C27.0968 28.0202 26.6253 28.3817 25.8981 28.2013C25.0689 27.9955 24.629 27.2644 24.5203 27.0837C23.8925 26.0404 24.2608 24.899 24.3672 24.5691C24.466 24.2628 24.8413 23.6198 25.5919 22.334Z" fill="#2F2E41"/>
<path d="M29.445 74.3116L31.5431 74.3114L32.5411 66.9268L29.4446 66.927L29.445 74.3116Z" fill="#FFB6B6"/>
<path d="M36.6335 74.2689C36.6988 74.3693 36.7333 74.6934 36.7333 74.8101C36.7333 75.169 36.4145 75.4599 36.0212 75.4599H29.5238C29.2555 75.4599 29.038 75.2614 29.038 75.0166V74.7698C29.038 74.7698 28.7166 74.0279 29.3783 73.1134C29.3783 73.1134 30.2008 73.8295 31.4298 72.708L31.7922 72.1089L34.4155 73.8597L35.8696 74.023C36.1878 74.0587 36.4698 74.0174 36.6335 74.2689Z" fill="#2F2E41"/>
<path d="M17.3509 74.3116L19.449 74.3114L20.447 66.9268L17.3505 66.927L17.3509 74.3116Z" fill="#FFB6B6"/>
<path d="M24.5392 74.2689C24.6046 74.3693 24.639 74.6934 24.639 74.8101C24.639 75.169 24.3202 75.4599 23.927 75.4599H17.4296C17.1613 75.4599 16.9438 75.2614 16.9438 75.0166V74.7698C16.9438 74.7698 16.6223 74.0279 17.2841 73.1134C17.2841 73.1134 18.1066 73.8295 19.3355 72.708L19.6979 72.1089L22.3213 73.8597L23.7754 74.023C24.0935 74.0587 24.3756 74.0174 24.5392 74.2689Z" fill="#2F2E41"/>
<path d="M24.0605 25.4079L23.9075 29.7385L18.3963 30.437L21.2284 24.5576L24.0605 25.4079Z" fill="#FFB6B6"/>
<path d="M22.53 26.8048C20.7545 26.8048 19.3151 25.4913 19.3151 23.8711C19.3151 22.2509 20.7545 20.9375 22.53 20.9375C24.3055 20.9375 25.7449 22.2509 25.7449 23.8711C25.7449 25.4913 24.3055 26.8048 22.53 26.8048Z" fill="#FFB6B6"/>
<path d="M18.8557 42.4505C18.8557 42.4505 15.4112 45.8731 17.5544 48.9464L17.2482 58.8649C17.2482 58.8649 15.9728 66.05 17.4525 70.7694L20.0038 70.5995L21.8409 58.3061L23.678 50.2037L27.9645 58.1664C27.9645 58.1664 27.6583 63.894 29.1892 70.0407H32.5571L32.251 55.7916L26.6632 40.9138L18.8557 42.4505Z" fill="#2F2E41"/>
<path d="M23.9075 28.0614L23.6769 27.9849L20.5396 26.9438C20.5396 26.9438 16.5593 29.7378 16.5593 31.2745C16.5593 32.8111 18.7025 38.399 18.7025 38.399C18.7025 38.399 15.7938 41.193 18.3963 41.3326C20.9988 41.4723 22.366 39.2083 26.6525 40.8847L26.9693 37.2814C26.9693 37.2814 28.8064 33.6493 27.8878 32.8111L23.9075 28.0614Z" fill="#4B9F46"/>
<path d="M19.5541 49.7082C19.5344 50.849 18.8733 51.7646 18.0777 51.753C17.282 51.7415 16.6532 50.8073 16.673 49.666C16.6741 49.21 16.7948 48.7609 17.0251 48.3562L17.1754 43.5232L19.2696 43.5823L19.2474 48.3884C19.4637 48.7997 19.5688 49.2522 19.5541 49.7082Z" fill="#FFB6B6"/>
<path d="M18.4576 28.367C17.267 28.1896 16.1869 29.0303 16.1909 30.1311L16.8205 47.4441L19.3119 47.3906L20.0952 30.1424C20.1046 29.2628 19.409 28.5087 18.4576 28.367Z" fill="#4B9F46"/>
<path d="M39.5717 41.1865C40.5509 41.8961 40.9435 42.9323 40.4485 43.5009C39.9536 44.0695 38.7587 43.9551 37.7793 43.2452C37.3837 42.9665 37.0671 42.6055 36.8558 42.1922L32.7483 39.1381L34.076 37.6589L38.2382 40.6041C38.7273 40.6983 39.1845 40.898 39.5717 41.1865Z" fill="#FFB6B6"/>
<path d="M20.3613 28.9739C19.4816 29.7271 19.5537 31.0209 20.5126 31.6889L35.9384 41.7848L37.4103 39.9497L22.9019 28.8711C22.1434 28.3283 21.0642 28.3719 20.3613 28.9739Z" fill="#4B9F46"/>
<path d="M24.061 22.1946C24.4257 21.5698 24.5962 21.2977 24.5203 20.9373C24.387 20.3042 23.6117 19.9601 23.2956 19.8197C22.28 19.3689 20.9634 19.3958 19.9276 19.9594C19.3053 20.298 18.9731 20.7276 18.7029 21.077C18.4608 21.3901 17.7079 22.3637 17.7844 23.5915C17.8418 24.5133 18.3039 24.5705 18.2436 25.1282C18.0925 26.5282 15.1441 26.5081 14.4164 28.0619C13.7602 29.4629 15.0752 31.7904 17.0189 32.6719C19.9781 34.0138 23.1813 31.4539 23.7548 30.9955C25.1369 29.891 26.0508 28.371 25.745 28.0619C25.5659 27.8808 25.0945 28.2423 24.3672 28.0619C23.538 27.8561 23.0981 27.1249 22.9894 26.9443C22.3617 25.901 22.7299 24.7596 22.8363 24.4297C22.9351 24.1234 23.3104 23.4804 24.061 22.1946Z" fill="#2F2E41"/>
<path d="M51.5411 52.2488C51.9803 51.8777 51.8636 51.0174 51.2806 50.3272C51.0253 50.0251 50.723 49.8057 50.4269 49.6856L50.0866 49.2928L45.6919 43.7864C45.6919 43.7864 43.2582 38.3087 42.5398 37.7169C41.8214 37.1251 40.9761 37.4332 40.9761 37.4332L40.3167 38.2491L44.4263 45.8974L48.6322 50.1301L49.2 50.7221C49.269 51.0341 49.4348 51.3688 49.69 51.6709C50.2731 52.3611 51.1018 52.6198 51.5411 52.2488Z" fill="#A0616A"/>
<path d="M43.2454 38.7354L44.3467 40.3505L45.9277 42.6904L43.0869 43.6732L40.5786 39.3693L43.2454 38.7354Z" fill="#E6E6E6"/>
<path d="M44.3636 33.2385L43.566 36.2795L40.525 35.6812C40.525 35.6812 41.7215 33.4878 41.4224 32.4907L44.3636 33.2385Z" fill="#A0616A"/>
<path d="M41.1536 72.8224L42.9848 72.8222L43.8559 65.7588L41.1532 65.759L41.1536 72.8224Z" fill="#A0616A"/>
<path d="M47.4274 72.7809C47.4844 72.877 47.5145 73.1869 47.5145 73.2986C47.5145 73.6418 47.2363 73.9201 46.893 73.9201H41.2219C40.9877 73.9201 40.7979 73.7303 40.7979 73.4961V73.26C40.7979 73.26 40.5173 72.5504 41.0949 71.6757C41.0949 71.6757 41.8128 72.3606 42.8855 71.2879L43.2018 70.7148L45.4915 72.3895L46.7607 72.5457C47.0384 72.5799 47.2846 72.5404 47.4274 72.7809Z" fill="#2F2E41"/>
<path d="M46.2382 52.3807L43.7149 69.5519H40.549L40.9699 59.7502L41.1915 54.5963L40.549 52.1431C40.549 52.1431 40.256 51.5978 40.0092 50.9368C39.731 50.1909 39.5113 49.2966 39.8375 48.8726C39.9575 48.7162 40.2695 48.6005 40.6936 48.5144C40.9527 48.4614 41.2543 48.4202 41.5799 48.3882C43.4521 48.2029 46.1152 48.3187 46.1152 48.3187L46.1829 50.5528L46.2204 51.8003L46.2382 52.3807Z" fill="#2F2E41"/>
<path d="M37.9276 71.9825L39.7394 72.2487L41.6287 65.3871L38.9547 64.9941L37.9276 71.9825Z" fill="#A0616A"/>
<path d="M44.141 72.8541C44.1835 72.9574 44.1682 73.2684 44.1519 73.3789C44.102 73.7185 43.7862 73.9533 43.4466 73.9034L37.8358 73.0785C37.6041 73.0444 37.4439 72.829 37.478 72.5973L37.5123 72.3637C37.5123 72.3637 37.338 71.6208 38.0366 70.8395C38.0366 70.8395 38.6472 71.6215 39.8646 70.7163L40.2609 70.1953L42.2827 72.1852L43.5156 72.5244C43.7854 72.5986 44.0347 72.5953 44.141 72.8541Z" fill="#2F2E41"/>
<path d="M46.2779 49.517L45.9318 52.4976L44.0443 58.7786L40.9372 69.1194L37.8053 68.6591L40.6161 53.9561L40.3378 51.435C40.3378 51.435 40.2472 51.1844 40.1433 50.8175C39.9371 50.0916 39.6784 48.9096 39.963 48.3067C40.0014 48.2247 40.0496 48.1536 40.1093 48.096C40.2212 47.9875 40.4487 47.9216 40.7535 47.8866C42.0274 47.7426 44.6509 48.1544 45.8183 48.3566L46.2779 49.517Z" fill="#2F2E41"/>
<path d="M43.865 35.3821L47.3048 39.7192L46.6873 44.241L46.1582 48.842L39.9267 47.8949C39.9267 47.8949 41.2727 44.6545 41.4223 44.5049C41.5718 44.3554 41.9475 44.7248 41.6849 44.241C41.4223 43.7572 41.1232 43.7572 41.3724 43.5079C41.6217 43.2586 39.4282 40.0183 39.4282 38.2735C39.4282 36.5287 40.4751 35.1328 40.4751 35.1328L43.865 35.3821Z" fill="#E6E6E6"/>
<path d="M43.0624 33.8129C44.3422 33.8129 45.3796 32.7754 45.3796 31.4957C45.3796 30.2159 44.3422 29.1785 43.0624 29.1785C41.7827 29.1785 40.7452 30.2159 40.7452 31.4957C40.7452 32.7754 41.7827 33.8129 43.0624 33.8129Z" fill="#A0616A"/>
<path d="M42.9542 35.926C42.9542 35.926 43.301 33.1824 43.3624 32.3846C43.4237 31.5867 44.55 30.341 44.55 30.341L45.3478 30.9855C45.3478 30.9855 46.0229 30.9855 45.5626 30.0035C45.1023 29.0215 44.2431 28.8681 44.2431 28.8681C44.2431 28.8681 44.151 27.5792 42.5553 27.7327C40.9596 27.8861 40.2538 29.1749 40.2538 29.1749C40.2538 29.1749 40.1618 27.5485 39.1491 28.7453C38.1364 29.9421 37.5534 30.4331 38.6274 30.832C39.7014 31.2309 40.4993 30.9241 40.4993 30.9241C40.4993 30.9241 39.456 31.1389 39.6401 31.8754C39.8242 32.6118 37.2158 35.9567 38.4126 36.3249C39.6094 36.6932 42.2791 37.5831 42.586 37C42.8929 36.417 42.9542 35.926 42.9542 35.926Z" fill="#2F2E41"/>
<path d="M41.0066 56.3103C41.5815 56.316 42.0548 55.5882 42.0638 54.6847C42.0677 54.2892 41.9819 53.9257 41.8361 53.6414L41.8347 53.1217L42.1008 46.0816C42.1008 46.0816 43.8335 40.3435 43.6757 39.4262C43.5179 38.5089 42.6765 38.1904 42.6765 38.1904L41.6442 38.3779L39.7639 46.8543L40.1864 52.8064L40.23 53.6255C40.0786 53.9068 39.9856 54.2686 39.9817 54.6641C39.9728 55.5676 40.4316 56.3046 41.0066 56.3103Z" fill="#A0616A"/>
<path d="M42.2511 37.2712C42.2511 37.2712 39.492 42.1738 39.8897 43.5782L42.948 43.7028C42.948 43.7028 43.1151 43.8324 43.1022 43.2395C43.0894 42.6465 43.7827 41.984 43.7827 41.984C43.7827 41.984 43.7697 42.273 43.6814 41.7818C43.5932 41.2905 45.2792 39.8551 45.2792 39.8551L42.2511 37.2712Z" fill="#E6E6E6"/>
</g>
<defs>
<linearGradient id="paint0_linear_1601_6757" x1="83.0392" y1="75.2876" x2="83.0392" y2="20.2611" gradientUnits="userSpaceOnUse">
<stop stop-color="#808080" stop-opacity="0.25"/>
<stop offset="0.54" stop-color="#808080" stop-opacity="0.12"/>
<stop offset="1" stop-color="#808080" stop-opacity="0.1"/>
</linearGradient>
<clipPath id="clip0_1601_6757">
<rect width="102.667" height="77" fill="white"/>
</clipPath>
</defs>
</svg>
