<svg width="33" height="31" viewBox="0 0 33 31" fill="none" xmlns="http://www.w3.org/2000/svg">
<path d="M7.79896 5.32645C9.17786 5.32645 10.2957 4.20863 10.2957 2.82973C10.2957 1.45083 9.17786 0.333008 7.79896 0.333008C6.42006 0.333008 5.30224 1.45083 5.30224 2.82973C5.30224 4.20863 6.42006 5.32645 7.79896 5.32645Z" fill="#F1592A"/>
<path d="M14.87 1.92261L12.9999 6.1285C12.9999 6.1285 10.2907 6.1285 5.71196 6.1285C4.42258 6.1285 3.48543 6.94692 2.92656 8.57333C2.06037 11.094 0.0933273 16.4756 0.0736046 16.5296C-0.154882 17.1545 0.166482 17.8463 0.791355 18.0747C1.41481 18.3027 2.10749 17.9831 2.33642 17.3569C2.35048 17.3184 3.35014 14.5834 4.24153 12.0902C4.09058 13.0231 3.15227 18.8225 3.00094 19.7579C2.92991 20.1679 3.24721 20.5423 3.66029 20.5423H4.5957V29.2217C4.5957 30.02 5.24294 30.6673 6.04132 30.6673C6.8397 30.6673 7.48694 30.02 7.48694 29.2217V20.5422H8.1111V29.2217C8.1111 30.02 8.75834 30.6672 9.55672 30.6672C10.3551 30.6672 11.0023 30.02 11.0023 29.2217V20.5422H11.9377C12.3521 20.5422 12.6682 20.1684 12.597 19.7579L10.9654 8.53453C10.9654 8.53453 13.753 8.54807 13.7748 8.54813C13.777 8.5482 13.7793 8.5482 13.7815 8.5482C14.2575 8.5482 14.6892 8.26776 14.8825 7.83232L16.139 5.00205L15.0202 2.482C14.9391 2.29953 14.8901 2.111 14.87 1.92261Z" fill="#F1592A"/>
<path d="M25.201 5.32645C26.5799 5.32645 27.6978 4.20863 27.6978 2.82973C27.6978 1.45083 26.5799 0.333008 25.201 0.333008C23.8221 0.333008 22.7043 1.45083 22.7043 2.82973C22.7043 4.20863 23.8221 5.32645 25.201 5.32645Z" fill="#F1592A"/>
<path d="M32.9264 16.5295C32.9066 16.4755 30.9397 11.094 30.0734 8.57325C29.5145 6.94684 28.5774 6.12835 27.288 6.12835C22.5783 6.12835 20 6.12835 20 6.12835L17.8254 1.23642C17.5555 0.628307 16.8437 0.354188 16.2355 0.624247C15.6275 0.894177 15.3534 1.606 15.6234 2.21405L18.1176 7.83217C18.3109 8.26768 18.7426 8.54805 19.2186 8.54805C19.2208 8.54805 19.2231 8.54805 19.2253 8.54798C19.2471 8.54786 22.0347 8.53438 22.0347 8.53438L20.4031 19.7578C20.3321 20.1671 20.6467 20.5421 21.0624 20.5421H21.9978V29.2216C21.9978 30.0199 22.645 30.6671 23.4434 30.6671C24.2418 30.6671 24.889 30.0199 24.889 29.2216V20.5421H25.5132V29.2215C25.5132 30.0198 26.1604 30.6671 26.9588 30.6671C27.7572 30.6671 28.4044 30.0198 28.4044 29.2215V20.5421H29.3398C29.7526 20.5421 30.0703 20.168 29.9992 19.7577C29.8479 18.8223 28.9095 13.023 28.7586 12.0901C29.65 14.5832 30.6497 17.3182 30.6637 17.3568C30.8929 17.9836 31.5859 18.3024 32.2088 18.0745C32.8335 17.8461 33.1549 17.1543 32.9264 16.5295Z" fill="#F1592A"/>
</svg>
