<svg width="20" height="20" viewBox="0 0 20 20" fill="none" xmlns="http://www.w3.org/2000/svg">
<path d="M18.9909 18.6382L18.3105 15.9661C18.3097 15.9632 18.309 15.9607 18.3083 15.9578C18.1493 15.3987 17.8405 14.8938 17.4153 14.4976C16.99 14.1014 16.4646 13.829 15.8957 13.71C15.8942 13.7096 15.8928 13.7096 15.8917 13.7092L15.2258 13.579V6.22581C15.2258 3.34435 12.8814 1 9.99997 1C7.11852 1 4.77417 3.34435 4.77417 6.22581V13.579L4.10824 13.7092C4.10715 13.7096 4.1057 13.7096 4.10425 13.71C3.53538 13.829 3.0099 14.1014 2.58467 14.4976C2.15943 14.8938 1.85063 15.3987 1.69167 15.9578C1.69094 15.9607 1.69021 15.9632 1.68949 15.9661L1.00904 18.6382C0.998085 18.681 0.997071 18.7258 1.00608 18.7691C1.01509 18.8124 1.03389 18.8531 1.06103 18.888C1.08817 18.9229 1.12294 18.9512 1.16268 18.9706C1.20242 18.99 1.24607 19 1.29029 19H18.7096C18.7539 19 18.7975 18.99 18.8373 18.9706C18.877 18.9512 18.9118 18.9229 18.9389 18.888C18.9661 18.8531 18.9848 18.8124 18.9939 18.7691C19.0029 18.7258 19.0019 18.681 18.9909 18.6382ZM5.35481 6.22581C5.35481 4.99383 5.84421 3.81232 6.71535 2.94118C7.58648 2.07004 8.768 1.58065 9.99997 1.58065C11.2319 1.58065 12.4135 2.07004 13.2846 2.94118C14.1557 3.81232 14.6451 4.99383 14.6451 6.22581V13.4654L12.0322 12.9544V12.1814C13.1271 11.4473 14.0645 10.2239 14.0645 8.83871V6.51613C14.0646 6.50764 14.0641 6.49915 14.063 6.49073C14.0699 6.41849 14.0494 6.34632 14.0057 6.28842C13.962 6.23052 13.8981 6.19109 13.8268 6.1779C13.0857 6.04181 12.4013 5.5802 11.9488 4.91137C11.9249 4.87615 11.8937 4.84658 11.8572 4.82477C11.8207 4.80296 11.7799 4.78942 11.7376 4.78513C11.6953 4.78084 11.6525 4.78589 11.6124 4.79993C11.5723 4.81397 11.5357 4.83665 11.5053 4.86637C10.6086 5.74314 9.45525 6.22581 8.25804 6.22581C7.5985 6.2275 6.9463 6.08753 6.34554 5.81536C6.27974 5.78564 6.20524 5.78148 6.13654 5.80368C6.06784 5.82589 6.00987 5.87287 5.97392 5.93548C5.96921 5.94347 5.96521 5.95181 5.96122 5.96016C5.94429 5.99782 5.93551 6.03863 5.93546 6.07992V8.83871C5.93546 10.2239 6.87283 11.4473 7.96771 12.1814V12.9544L5.35481 13.4654V6.22581ZM9.99997 12.3226C9.33985 12.3226 8.46126 11.9176 7.76231 11.2912C6.67796 10.3194 6.5161 9.3377 6.5161 8.83871V6.50923C7.07554 6.70696 7.66469 6.80749 8.25804 6.80645C9.50134 6.80645 10.7004 6.34702 11.6679 5.50581C12.1335 6.0829 12.7688 6.49895 13.4838 6.69504V8.83871C13.4838 9.3377 13.322 10.3194 12.2376 11.2912C11.5387 11.9176 10.6601 12.3226 9.99997 12.3226ZM11.4516 12.5178V13.1935C11.4516 13.7513 10.6372 15.0415 9.99997 15.9062C9.36271 15.0415 8.54836 13.7513 8.54836 13.1935V12.5178C9.05098 12.765 9.55796 12.9032 9.99997 12.9032C10.442 12.9032 10.949 12.765 11.4516 12.5178ZM15.2258 18.4194V17.2581C15.2258 17.1811 15.1952 17.1072 15.1407 17.0528C15.0863 16.9983 15.0125 16.9677 14.9355 16.9677C14.8585 16.9677 14.7846 16.9983 14.7302 17.0528C14.6757 17.1072 14.6451 17.1811 14.6451 17.2581V18.4194H5.35481V17.2581C5.35481 17.1811 5.32422 17.1072 5.26978 17.0528C5.21533 16.9983 5.14149 16.9677 5.06449 16.9677C4.98749 16.9677 4.91364 16.9983 4.8592 17.0528C4.80475 17.1072 4.77417 17.1811 4.77417 17.2581V18.4194H1.66372L2.2509 16.1135C2.38141 15.6572 2.63397 15.2452 2.98134 14.9219C3.32872 14.5985 3.75775 14.3761 4.22219 14.2786L8.01453 13.5369C8.2809 14.6325 9.60513 16.3533 9.77098 16.5656C9.79813 16.6005 9.83286 16.6287 9.87255 16.648C9.91223 16.6674 9.95581 16.6775 9.99997 16.6775C10.0441 16.6775 10.0877 16.6674 10.1274 16.648C10.1671 16.6287 10.2018 16.6005 10.229 16.5656C10.3948 16.3533 11.719 14.6325 11.9854 13.5369L15.7778 14.2786C16.2422 14.3761 16.6712 14.5985 17.0186 14.9219C17.366 15.2452 17.6185 15.6572 17.749 16.1135L18.3362 18.4194H15.2258Z" fill="#009688" stroke="#009688" stroke-width="0.8"/>
<path d="M10.2899 10.291H9.70927C9.63227 10.291 9.55842 10.3216 9.50398 10.376C9.44953 10.4305 9.41895 10.5043 9.41895 10.5813C9.41895 10.6583 9.44953 10.7322 9.50398 10.7866C9.55842 10.8411 9.63227 10.8717 9.70927 10.8717H10.2899C10.3669 10.8717 10.4408 10.8411 10.4952 10.7866C10.5496 10.7322 10.5802 10.6583 10.5802 10.5813C10.5802 10.5043 10.5496 10.4305 10.4952 10.376C10.4408 10.3216 10.3669 10.291 10.2899 10.291Z" fill="#009688" stroke="#009688" stroke-width="0.8"/>
<path d="M8.25887 8.25895C8.57955 8.25895 8.83951 7.99898 8.83951 7.6783C8.83951 7.35762 8.57955 7.09766 8.25887 7.09766C7.93819 7.09766 7.67822 7.35762 7.67822 7.6783C7.67822 7.99898 7.93819 8.25895 8.25887 8.25895Z" fill="#009688" stroke="#009688" stroke-width="0.8"/>
<path d="M11.7423 8.25895C12.0629 8.25895 12.3229 7.99898 12.3229 7.6783C12.3229 7.35762 12.0629 7.09766 11.7423 7.09766C11.4216 7.09766 11.1616 7.35762 11.1616 7.6783C11.1616 7.99898 11.4216 8.25895 11.7423 8.25895Z" fill="#009688" stroke="#009688" stroke-width="0.8"/>
</svg>
