<svg width="19" height="19" viewBox="0 0 19 19" fill="none" xmlns="http://www.w3.org/2000/svg">
<path d="M5.6748 7.80005C6.84841 7.80005 7.79981 6.84865 7.79981 5.67505C7.79981 4.50144 6.84841 3.55005 5.6748 3.55005C4.5012 3.55005 3.5498 4.50144 3.5498 5.67505C3.5498 6.84865 4.5012 7.80005 5.6748 7.80005Z" stroke="#FAFAFA" stroke-width="1.5" stroke-linecap="square"/>
<path d="M18 10.3499H1" stroke="#FAFAFA" stroke-width="1.5" stroke-linecap="square"/>
<path d="M14.6001 6.9499H10.3501M14.6001 4.3999H10.3501H14.6001Z" stroke="#FAFAFA" stroke-width="1.5" stroke-linecap="square"/>
<path d="M3.55 1H15.45C16.1263 1 16.7749 1.26866 17.2531 1.74688C17.7313 2.2251 18 2.8737 18 3.55V18H1V3.55C1 2.8737 1.26866 2.2251 1.74688 1.74688C2.2251 1.26866 2.8737 1 3.55 1V1Z" stroke="#FAFAFA" stroke-width="1.5" stroke-linecap="square"/>
</svg>
