<svg width="24" height="10" viewBox="0 0 24 10" fill="none" xmlns="http://www.w3.org/2000/svg">
<path d="M19.5834 2.3906L22.8334 4M20.6667 0.75C20.6667 0.75 20.3198 1.47296 19.5834 2.3906L20.6667 0.75ZM12.0001 6.16667C10.2581 6.16667 8.80193 5.72012 7.61108 5.08333L12.0001 6.16667ZM12.0001 6.16667C13.7421 6.16667 15.1982 5.72012 16.3891 5.08333L12.0001 6.16667ZM12.0001 6.16667V9.95833V6.16667ZM3.33341 0.75C3.33341 0.75 3.71656 1.54822 4.53188 2.53187L3.33341 0.75ZM7.61108 5.08333L4.41675 8.33333L7.61108 5.08333ZM7.61108 5.08333C6.24671 4.35382 5.23059 3.3747 4.53188 2.53187L7.61108 5.08333ZM16.3891 5.08333L19.0417 8.33333L16.3891 5.08333ZM16.3891 5.08333C17.8304 4.31276 18.883 3.26355 19.5834 2.3906L16.3891 5.08333ZM4.53188 2.53187L1.16675 4L4.53188 2.53187Z" stroke="#4B9F46" stroke-width="1.5" stroke-linecap="square"/>
</svg>
