<svg width="21" height="20" viewBox="0 0 21 20" fill="none" xmlns="http://www.w3.org/2000/svg">
<path fill-rule="evenodd" clip-rule="evenodd" d="M7.60266 2.82127C6.98461 3.55713 6.6 4.75841 6.6 6.57143C6.6 9.22007 7.42072 10.4562 8.0414 11.1656C8.18677 11.3317 8.32437 11.4724 8.46242 11.6136C8.48409 11.6357 8.50576 11.6579 8.52748 11.6801C8.6705 11.8268 8.85351 12.0154 8.98831 12.2151C9.13148 12.4272 9.2885 12.7495 9.23394 13.1504C9.18129 13.5371 8.95386 13.8276 8.7364 14.0347C8.03528 14.7024 7.18463 15.1799 6.36499 15.5702C5.95335 15.7662 5.53469 15.9469 5.13852 16.1178L5.13233 16.1205C4.73279 16.2929 4.3574 16.4548 4.00249 16.6238C3.27967 16.968 2.72904 17.3026 2.35761 17.6972C2.01316 18.0631 1.8 18.5039 1.8 19.1429V20H0V19.1429C0 18.0675 0.386841 17.2226 1.01739 16.5528C1.62096 15.9117 2.42033 15.4606 3.19751 15.0905C3.58353 14.9067 3.98573 14.7332 4.37401 14.5657L4.39586 14.5563C4.79656 14.3834 5.18415 14.2159 5.56001 14.0369C6.24249 13.7119 6.83843 13.3707 7.31504 12.9574C7.28483 12.9255 7.24961 12.8889 7.20845 12.8466C7.18947 12.8272 7.16955 12.8068 7.14881 12.7856C7.01161 12.6455 6.83826 12.4683 6.6586 12.263C5.77928 11.2581 4.8 9.63707 4.8 6.57143C4.8 4.5753 5.21519 2.91944 6.19704 1.75044C7.20958 0.544897 8.70114 0 10.5 0C12.2989 0 13.7904 0.544897 14.803 1.75044C15.7848 2.91944 16.2 4.5753 16.2 6.57143C16.2 9.63707 15.2207 11.2581 14.3414 12.263C14.1617 12.4683 13.9884 12.6455 13.8512 12.7856C13.8304 12.8068 13.8105 12.8272 13.7915 12.8466C13.7504 12.8889 13.7152 12.9255 13.685 12.9574C14.1616 13.3707 14.7575 13.7119 15.44 14.0369C15.8159 14.2159 16.2034 14.3834 16.6041 14.5563L16.626 14.5657C17.0143 14.7332 17.4165 14.9067 17.8025 15.0905C18.5797 15.4606 19.379 15.9117 19.9826 16.5528C20.6132 17.2226 21 18.0675 21 19.1429V20H19.2V19.1429C19.2 18.5039 18.9868 18.0631 18.6424 17.6972C18.271 17.3026 17.7203 16.968 16.9975 16.6238C16.6426 16.4548 16.2672 16.2929 15.8677 16.1205L15.8615 16.1178C15.4653 15.9469 15.0467 15.7662 14.635 15.5702C13.8154 15.1799 12.9647 14.7024 12.2636 14.0347C12.0461 13.8276 11.8187 13.5371 11.7661 13.1504C11.7115 12.7495 11.8685 12.4272 12.0117 12.2151C12.1465 12.0154 12.3295 11.8268 12.4725 11.6801C12.4942 11.6579 12.5159 11.6357 12.5376 11.6136C12.6756 11.4724 12.8132 11.3317 12.9586 11.1656C13.5793 10.4562 14.4 9.22007 14.4 6.57143C14.4 4.75841 14.0154 3.55713 13.3973 2.82127C12.81 2.12196 11.9015 1.71429 10.5 1.71429C9.09846 1.71429 8.19002 2.12196 7.60266 2.82127ZM13.4991 12.783C13.4992 12.783 13.4999 12.7839 13.5011 12.7857C13.4997 12.7839 13.4991 12.783 13.4991 12.783ZM7.50087 12.783C7.50092 12.783 7.5003 12.7839 7.49886 12.7857C7.5001 12.7839 7.50082 12.783 7.50087 12.783Z" fill="#4B9F46"/>
</svg>
