<svg width="17" height="11" viewBox="0 0 17 11" fill="none" xmlns="http://www.w3.org/2000/svg">
<path fill-rule="evenodd" clip-rule="evenodd" d="M1.32258 5.25C1.38727 5.35653 1.47321 5.49125 1.58097 5.64644C1.86604 6.05693 2.30072 6.60607 2.89507 7.1547C4.08075 8.24917 5.89017 9.33333 8.42996 9.33333C10.9698 9.33333 12.7792 8.24917 13.9649 7.1547C14.5592 6.60607 14.9939 6.05693 15.279 5.64644C15.3867 5.49125 15.4727 5.35653 15.5373 5.25C15.4727 5.14347 15.3867 5.00875 15.279 4.85356C14.9939 4.44307 14.5592 3.89393 13.9649 3.3453C12.7792 2.25083 10.9698 1.16667 8.42996 1.16667C5.89017 1.16667 4.08075 2.25083 2.89507 3.3453C2.30072 3.89393 1.86604 4.44307 1.58097 4.85356C1.47321 5.00875 1.38727 5.14347 1.32258 5.25ZM16.2077 5.25C16.7295 4.98913 16.7294 4.98887 16.7292 4.9886L16.7289 4.98796L16.7281 4.98636L16.7258 4.9819L16.7187 4.96797C16.7127 4.9565 16.7044 4.9407 16.6937 4.92086C16.6723 4.88119 16.6414 4.82531 16.6007 4.75555C16.5194 4.61611 16.3988 4.42073 16.2372 4.1881C15.9147 3.7236 15.4257 3.10607 14.7562 2.48803C13.4141 1.24917 11.3346 0 8.42996 0C5.52531 0 3.44584 1.24917 2.10375 2.48803C1.4342 3.10607 0.945278 3.7236 0.622707 4.1881C0.461158 4.42073 0.340554 4.61611 0.25921 4.75555C0.218516 4.82531 0.187583 4.88119 0.166204 4.92086C0.155512 4.9407 0.147203 4.9565 0.141253 4.96797L0.134089 4.9819L0.131825 4.98636L0.131022 4.98796L0.130702 4.9886C0.130565 4.98887 0.130437 4.98913 0.652186 5.25L0.130437 4.98913L0 5.25L0.130437 5.51087L0.652186 5.25C0.130437 5.51087 0.130565 5.51113 0.130702 5.5114L0.131022 5.51204L0.131825 5.51364L0.134089 5.5181L0.141253 5.53203C0.147203 5.5435 0.155512 5.5593 0.166204 5.57914C0.187583 5.61881 0.218516 5.67469 0.25921 5.74445C0.340554 5.88389 0.461158 6.07927 0.622707 6.3119C0.945278 6.7764 1.4342 7.39393 2.10375 8.01197C3.44584 9.25083 5.52531 10.5 8.42996 10.5C11.3346 10.5 13.4141 9.25083 14.7562 8.01197C15.4257 7.39393 15.9147 6.7764 16.2372 6.3119C16.3988 6.07927 16.5194 5.88389 16.6007 5.74445C16.6414 5.67469 16.6723 5.61881 16.6937 5.57914C16.7044 5.5593 16.7127 5.5435 16.7187 5.53203L16.7258 5.5181L16.7281 5.51364L16.7289 5.51204L16.7292 5.5114C16.7294 5.51113 16.7295 5.51087 16.2077 5.25ZM16.2077 5.25L16.7295 5.51087L16.8599 5.25L16.7295 4.98913L16.2077 5.25Z" fill="#4B9F46"/>
<path fill-rule="evenodd" clip-rule="evenodd" d="M8.42997 3.49992C7.46347 3.49992 6.67997 4.28342 6.67997 5.24992C6.67997 6.21642 7.46347 6.99992 8.42997 6.99992C9.39647 6.99992 10.18 6.21642 10.18 5.24992C10.18 4.28342 9.39647 3.49992 8.42997 3.49992ZM5.51331 5.24992C5.51331 3.63909 6.81914 2.33325 8.42997 2.33325C10.0408 2.33325 11.3466 3.63909 11.3466 5.24992C11.3466 6.86075 10.0408 8.16659 8.42997 8.16659C6.81914 8.16659 5.51331 6.86075 5.51331 5.24992Z" fill="#4B9F46"/>
</svg>
