<svg width="53" height="53" viewBox="0 0 53 53" fill="none" xmlns="http://www.w3.org/2000/svg">
<path fill-rule="evenodd" clip-rule="evenodd" d="M20.3545 15.7952C19.0968 17.3674 18.3139 19.9341 18.3139 23.8082C18.3139 29.4673 19.984 32.1085 21.247 33.6241C21.5428 33.9791 21.8228 34.2797 22.1037 34.5813C22.1478 34.6286 22.1919 34.676 22.2361 34.7236C22.5272 35.037 22.8996 35.4398 23.1739 35.8665C23.4652 36.3197 23.7847 37.0084 23.6737 37.8649C23.5666 38.6913 23.1038 39.3118 22.6612 39.7543C21.6663 40.7492 20.1673 41.7631 18.2876 42.8073C16.3826 43.8657 13.9811 45.0122 11.0993 46.2473C10.1696 46.6457 9.093 46.2151 8.69457 45.2854C8.29614 44.3557 8.72679 43.2791 9.65646 42.8806C12.4723 41.6739 14.7511 40.582 16.5088 39.6055C18.0353 38.7574 19.0952 38.0362 19.7657 37.449C19.705 37.3816 19.6344 37.3046 19.5521 37.2159C19.5134 37.1743 19.4729 37.1309 19.4307 37.0856C19.1515 36.7861 18.7988 36.4077 18.4332 35.969C16.6439 33.8218 14.6511 30.3583 14.6511 23.8082C14.6511 19.5427 15.4962 16.0047 17.4943 13.5071C19.5548 10.9315 22.59 9.76746 26.25 9.76746C29.91 9.76746 32.9451 10.9315 35.0056 13.5071C37.0037 16.0047 37.8488 19.5427 37.8488 23.8082C37.8488 30.3583 35.8561 33.8218 34.0668 35.969C33.7012 36.4077 33.3484 36.7861 33.0692 37.0856C33.027 37.1309 32.9865 37.1743 32.9479 37.2159C32.8656 37.3046 32.795 37.3816 32.7342 37.449C33.4048 38.0362 34.4646 38.7574 35.9911 39.6055C37.7489 40.582 40.0276 41.6739 42.8435 42.8806C43.7732 43.2791 44.2038 44.3557 43.8054 45.2854C43.407 46.2151 42.3303 46.6457 41.4007 46.2473C38.5188 45.0122 36.1174 43.8657 34.2123 42.8073C32.3326 41.7631 30.8336 40.7492 29.8387 39.7543C29.3962 39.3118 28.9334 38.6913 28.8263 37.8649C28.7152 37.0084 29.0348 36.3197 29.3261 35.8665C29.6004 35.4398 29.9728 35.037 30.2638 34.7236C30.308 34.676 30.3521 34.6286 30.3962 34.5813C30.6771 34.2797 30.9571 33.9791 31.2529 33.6241C32.516 32.1085 34.186 29.4673 34.186 23.8082C34.186 19.9341 33.4032 17.3674 32.1455 15.7952C30.9502 14.3011 29.1016 13.4302 26.25 13.4302C23.3984 13.4302 21.5498 14.3011 20.3545 15.7952ZM32.3529 37.08C32.353 37.0801 32.3544 37.0819 32.3569 37.0857C32.354 37.0819 32.3528 37.08 32.3529 37.08ZM20.1471 37.08C20.1472 37.08 20.1459 37.0819 20.143 37.0857C20.1455 37.0819 20.147 37.08 20.1471 37.08Z" fill="#B3EFA0"/>
<path fill-rule="evenodd" clip-rule="evenodd" d="M26.25 3.66279C13.7754 3.66279 3.66279 13.7754 3.66279 26.25C3.66279 38.7246 13.7754 48.8372 26.25 48.8372C38.7246 48.8372 48.8372 38.7246 48.8372 26.25C48.8372 13.7754 38.7246 3.66279 26.25 3.66279ZM0 26.25C0 11.7525 11.7525 0 26.25 0C40.7475 0 52.5 11.7525 52.5 26.25C52.5 40.7475 40.7475 52.5 26.25 52.5C11.7525 52.5 0 40.7475 0 26.25Z" fill="#B3EFA0"/>
</svg>
