<svg width="18" height="20" viewBox="0 0 18 20" fill="none" xmlns="http://www.w3.org/2000/svg">
<path fill-rule="evenodd" clip-rule="evenodd" d="M8.01435 1.03877C7.84514 1.06647 7.53664 1.14603 7.3288 1.21557C5.77317 1.73606 4.60493 3.03135 4.33148 4.53889C4.23505 5.07038 4.30469 6.0081 4.49376 6.72501L4.58566 7.07334L4.51317 7.15051C4.35156 7.32253 4.28279 7.55547 4.2675 7.98266C4.22837 9.0763 4.52748 9.84165 5.17038 10.2928C5.29888 10.383 5.41085 10.4619 5.41915 10.4682C5.42748 10.4746 5.44703 10.5855 5.4626 10.7148C5.52303 11.2167 5.76565 11.6911 6.17269 12.1032L6.37083 12.3038V13.1812V14.0586L6.08079 14.3282C5.72364 14.6603 5.07774 15.1504 4.84153 15.2687C4.66097 15.3591 4.42257 15.4367 3.83958 15.5949C3.44108 15.703 3.05151 15.8862 2.06418 16.4299C1.02472 17.0023 1.03797 16.9937 1.01083 17.1171C0.964143 17.3297 1.05288 17.4166 1.58553 17.6801C3.65254 18.7026 7.36916 19.1744 11.1697 18.8968C13.2916 18.7418 14.9366 18.403 16.2036 17.86C17.0248 17.5081 17.2397 17.3246 17.1208 17.0768C17.0777 16.9869 16.9684 16.9117 16.5618 16.692C16.2838 16.5418 15.827 16.2927 15.5466 16.1384C14.9008 15.7831 14.6448 15.6766 14.0635 15.522C13.8061 15.4535 13.5101 15.3585 13.4058 15.3108C13.0664 15.1556 12.5705 14.7867 12.0398 14.2945L11.7849 14.0581V13.1779V12.2977L11.9831 12.1001C12.3867 11.6979 12.6325 11.2182 12.6931 10.7148C12.7087 10.5855 12.7282 10.4746 12.7366 10.4682C12.7449 10.4619 12.8591 10.3814 12.9903 10.2893C13.3327 10.0489 13.5881 9.70271 13.7394 9.27398C13.8231 9.03685 13.8989 8.47235 13.8991 8.08556C13.8992 7.79967 13.882 7.66284 13.8248 7.49282L13.7503 7.2718L13.8546 7.02078C13.9797 6.71977 14.0852 6.31389 14.1429 5.91156C14.1942 5.5535 14.1667 4.86159 14.0882 4.53734C13.837 3.49925 13.1807 2.7925 12.2682 2.57713C12.0006 2.51399 11.9913 2.50809 11.7584 2.25285C11.2314 1.67523 10.5304 1.28324 9.67552 1.08809C9.27031 0.995559 8.43021 0.970633 8.01435 1.03877ZM9.5222 1.66785C10.2542 1.82644 10.8926 2.17628 11.297 2.64049C11.401 2.75981 11.5336 2.9121 11.5916 2.97886C11.687 3.08869 11.7223 3.10346 11.9607 3.13292C12.5245 3.2026 13.0581 3.59431 13.3083 4.12218C13.5108 4.54951 13.5579 4.79609 13.5554 5.41625C13.5536 5.88439 13.5406 6.00863 13.4636 6.298C13.4143 6.48328 13.3396 6.71474 13.2976 6.81241C13.2219 6.98837 13.2196 6.99016 13.0392 7.00714C12.9391 7.01656 12.8304 7.03555 12.7978 7.04936C12.7496 7.06975 12.7345 7.04908 12.7178 6.93971C12.6441 6.45867 12.5043 5.82079 12.412 5.54538C12.2065 4.93162 11.8637 4.36455 11.5692 4.15122C11.3287 3.97702 11.2108 4.01485 10.9678 4.34398C10.5673 4.88648 9.92284 5.28582 9.03254 5.54323C8.72324 5.63267 8.65753 5.63805 7.56614 5.6635C6.92675 5.67841 6.35655 5.70759 6.27141 5.72977C5.70996 5.87602 5.36993 6.26119 5.30078 6.82932C5.26632 7.11243 5.20863 7.06339 5.09515 6.65452C4.87612 5.86523 4.83112 5.00626 4.97836 4.42583C5.33836 3.00667 6.64624 1.86483 8.19241 1.61976C8.4711 1.57557 9.22154 1.60274 9.5222 1.66785ZM11.6305 5.21294C11.9457 5.83865 12.1354 6.74649 12.1912 7.89476C12.2096 8.27459 12.2019 8.46925 12.1574 8.74748C12.1142 9.01801 12.1015 9.30766 12.1069 9.90764C12.1136 10.6535 12.1088 10.7222 12.0361 10.9298C11.9222 11.2546 11.8201 11.3979 11.3665 11.8699C11.1422 12.1033 10.865 12.4276 10.7504 12.5906C10.0646 13.5664 10.0836 13.5535 9.28317 13.586C8.6345 13.6123 8.27225 13.572 8.09352 13.4536C8.02584 13.4087 7.87552 13.2405 7.7595 13.0797C7.29691 12.4386 7.13583 12.2382 6.77685 11.8574C6.09808 11.1373 6.04426 10.9952 6.0514 9.94241C6.0541 9.54106 6.0406 9.08227 6.02134 8.92287C5.95651 8.38639 5.9145 7.75744 5.90887 7.23945C5.90364 6.75785 5.90849 6.71636 5.98453 6.59331C6.04096 6.50198 6.12575 6.43388 6.26223 6.37018C6.45777 6.27898 6.46431 6.27842 7.6013 6.2575C8.73801 6.23658 8.74599 6.23592 9.15201 6.12707C9.95396 5.91213 10.5933 5.5747 11.079 5.11011L11.3806 4.82151L11.4461 4.89917C11.4821 4.94185 11.5651 5.08307 11.6305 5.21294ZM5.24027 7.65746C5.30303 7.71072 5.318 7.78515 5.35147 8.21117C5.37278 8.48187 5.40505 8.79828 5.42319 8.9143C5.46668 9.19196 5.4664 9.74047 5.42273 9.74047C5.37172 9.74047 5.11733 9.39017 5.03858 9.21151C4.94053 8.98904 4.85928 8.47867 4.8597 8.08812C4.8602 7.62775 4.87155 7.59594 5.0351 7.59594C5.11033 7.59594 5.1991 7.62255 5.24027 7.65746ZM13.2745 7.67504C13.3147 7.82516 13.2962 8.42302 13.2416 8.73851C13.2115 8.91254 13.1479 9.14084 13.1002 9.24582C13.0104 9.44354 12.7892 9.74047 12.7318 9.74047C12.6816 9.74047 12.6951 9.12509 12.7522 8.80883C12.7802 8.65414 12.8034 8.35679 12.8037 8.14807C12.8044 7.79242 12.8099 7.76307 12.8907 7.68224C13.0098 7.56317 13.2433 7.55881 13.2745 7.67504ZM7.20062 13.3346C7.47146 13.7211 7.70128 13.9445 7.94108 14.0543C8.10547 14.1296 8.22184 14.1506 8.62375 14.1776C9.25484 14.2201 9.94896 14.1729 10.1772 14.0719C10.3949 13.9756 10.6523 13.7297 10.9367 13.3463L11.1697 13.0323L11.1872 14.2899L11.2048 15.5475L11.2878 15.6147C11.4107 15.7141 11.5607 15.7006 11.6821 15.5791C11.7787 15.4825 11.7849 15.4594 11.7849 15.1924C11.7849 15.0362 11.798 14.9084 11.8139 14.9084C11.8299 14.9084 11.8813 14.9496 11.9282 14.9999C12.0304 15.1096 12.5935 15.5373 12.7827 15.6489C12.9162 15.7277 12.9172 15.73 12.8948 15.899C12.8587 16.1712 12.7057 16.6591 12.5568 16.977C12.2838 17.5593 11.9082 17.975 11.4581 18.1928L11.2048 18.3153L10.4269 18.3521C9.44514 18.3985 8.763 18.3986 7.75113 18.3523L6.95091 18.3156L6.6976 18.1929C6.24736 17.9748 5.87182 17.5592 5.59897 16.977C5.44994 16.6589 5.29701 16.1712 5.26084 15.8985C5.23837 15.729 5.23936 15.7268 5.37383 15.6456C5.57623 15.5234 6.13004 15.1046 6.22753 14.9999C6.27443 14.9496 6.32583 14.9084 6.34179 14.9084C6.35775 14.9084 6.37083 15.0362 6.37083 15.1924C6.37083 15.4594 6.37698 15.4825 6.47359 15.5791C6.60472 15.7102 6.76124 15.7165 6.88217 15.5956L6.96848 15.5093V14.2772C6.96848 13.5996 6.97509 13.0452 6.98314 13.0452C6.9912 13.0452 7.08907 13.1754 7.20062 13.3346ZM4.73624 16.336C4.88301 16.9167 5.08541 17.3553 5.44428 17.8704L5.63413 18.1428H5.53667C5.21376 18.1428 3.96983 17.8836 3.26491 17.6694C2.742 17.5105 1.97629 17.2297 1.97629 17.1969C1.97629 17.161 3.365 16.4015 3.62016 16.2978C3.83627 16.21 4.56903 16.0023 4.6257 16.0128C4.64233 16.0159 4.69208 16.1613 4.73624 16.336ZM13.9742 16.1238C14.1687 16.1731 14.4241 16.2525 14.5417 16.3002C14.7832 16.3982 16.1794 17.163 16.1794 17.1972C16.1794 17.2591 14.8932 17.6893 14.1949 17.8611C13.736 17.974 12.7974 18.1428 12.6285 18.1428H12.5285L12.7826 17.7625C12.9223 17.5533 13.0943 17.248 13.1647 17.0841C13.2945 16.7819 13.4724 16.2163 13.4724 16.1057C13.4724 16.026 13.5098 15.9916 13.571 16.0151C13.5983 16.0256 13.7797 16.0745 13.9742 16.1238Z" fill="#009688" stroke="#009688" stroke-width="0.8"/>
</svg>
