<svg width="18" height="20" viewBox="0 0 18 20" fill="none" xmlns="http://www.w3.org/2000/svg">
<path d="M5.00195 0.75V18.75" stroke="#737373" stroke-width="1.5" stroke-linecap="square"/>
<path d="M17 0.75V18.75H3C1.89543 18.75 1 17.8546 1 16.75V2.75C1 1.64543 1.89543 0.75 3 0.75H17Z" stroke="#737373" stroke-width="1.5" stroke-linecap="square"/>
<path d="M5.00195 14.7503C5.00195 12.7503 8.33529 13.0837 9.66862 11.7503C10.3353 11.0837 8.33529 11.0837 8.33529 7.75033C8.33529 5.52833 9.22395 4.41699 11.002 4.41699C12.78 4.41699 13.6686 5.52833 13.6686 7.75033C13.6686 11.0837 11.6686 11.0837 12.3353 11.7503C13.6686 13.0837 17.002 12.7503 17.002 14.7503" stroke="#737373" stroke-width="1.5" stroke-linecap="square"/>
</svg>
