<svg width="33" height="31" viewBox="0 0 33 31" fill="none" xmlns="http://www.w3.org/2000/svg">
<path d="M7.79897 5.32645C9.17787 5.32645 10.2957 4.20863 10.2957 2.82973C10.2957 1.45083 9.17787 0.333008 7.79897 0.333008C6.42007 0.333008 5.30225 1.45083 5.30225 2.82973C5.30225 4.20863 6.42007 5.32645 7.79897 5.32645Z" fill="#F05A2A"/>
<path d="M14.87 1.92236L12.9999 6.12825C12.9999 6.12825 10.2907 6.12825 5.71195 6.12825C4.42256 6.12825 3.48542 6.94668 2.92654 8.57309C2.06036 11.0937 0.093312 16.4754 0.0735894 16.5294C-0.154897 17.1542 0.166466 17.846 0.791339 18.0744C1.41479 18.3024 2.10747 17.9829 2.33641 17.3567C2.35046 17.3182 3.35013 14.5831 4.24152 12.09C4.09057 13.0229 3.15226 18.8222 3.00092 19.7577C2.92989 20.1677 3.2472 20.542 3.66028 20.542H4.59569V29.2215C4.59569 30.0198 5.24292 30.667 6.0413 30.667C6.83968 30.667 7.48692 30.0198 7.48692 29.2215V20.542H8.11109V29.2214C8.11109 30.0197 8.75833 30.667 9.55671 30.667C10.3551 30.667 11.0023 30.0197 11.0023 29.2214V20.542H11.9377C12.3521 20.542 12.6682 20.1681 12.597 19.7576L10.9654 8.53429C10.9654 8.53429 13.753 8.54782 13.7748 8.54789C13.777 8.54795 13.7793 8.54795 13.7815 8.54795C14.2575 8.54795 14.6892 8.26752 14.8825 7.83207L16.139 5.00181L15.0202 2.48175C14.9391 2.29929 14.8901 2.11076 14.87 1.92236Z" fill="#F05A2A"/>
<path d="M25.2008 5.32645C26.5797 5.32645 27.6975 4.20863 27.6975 2.82973C27.6975 1.45083 26.5797 0.333008 25.2008 0.333008C23.8219 0.333008 22.7041 1.45083 22.7041 2.82973C22.7041 4.20863 23.8219 5.32645 25.2008 5.32645Z" fill="#F05A2A"/>
<path d="M32.9265 16.5297C32.9067 16.4757 30.9398 11.0943 30.0735 8.57349C29.5146 6.94708 28.5775 6.12859 27.2881 6.12859C22.5784 6.12859 20.0001 6.12859 20.0001 6.12859L17.8255 1.23667C17.5556 0.628552 16.8438 0.354432 16.2357 0.624491C15.6276 0.894421 15.3535 1.60624 15.6235 2.21429L18.1177 7.83241C18.311 8.26792 18.7427 8.54829 19.2187 8.54829C19.2209 8.54829 19.2232 8.54829 19.2254 8.54823C19.2472 8.5481 22.0348 8.53463 22.0348 8.53463L20.4032 19.758C20.3322 20.1673 20.6468 20.5424 21.0625 20.5424H21.9979V29.2218C21.9979 30.0201 22.6451 30.6674 23.4435 30.6674C24.2419 30.6674 24.8891 30.0201 24.8891 29.2218V20.5423H25.5133V29.2218C25.5133 30.0201 26.1605 30.6673 26.9589 30.6673C27.7573 30.6673 28.4045 30.0201 28.4045 29.2218V20.5423H29.3399C29.7527 20.5423 30.0704 20.1683 29.9993 19.758C29.848 18.8225 28.9096 13.0232 28.7587 12.0903C29.6501 14.5835 30.6498 17.3185 30.6638 17.357C30.893 17.9838 31.586 18.3026 32.2089 18.0748C32.8336 17.8464 33.155 17.1546 32.9265 16.5297Z" fill="#F05A2A"/>
</svg>
