<svg width="37" height="30" viewBox="0 0 37 30" fill="none" xmlns="http://www.w3.org/2000/svg">
<path d="M35.9557 8.80075C35.948 7.26813 34.6788 6.02148 33.1263 6.02148C32.5751 6.02148 27.72 6.02148 27.1406 6.02148C25.939 6.02148 24.8372 6.6691 24.2648 7.71167L23.8493 8.46896C24.0089 8.84379 24.0975 9.25471 24.0975 9.68576C24.0975 10.3736 23.8718 11.0101 23.4907 11.5287C23.9231 11.5648 24.3309 11.6869 24.6973 11.8778L26.3672 8.83685C26.4094 8.7598 26.4994 8.72093 26.5852 8.74245C26.6709 8.76396 26.7314 8.84032 26.7314 8.92778L26.7321 28.5784C26.7321 29.3607 27.3748 29.9951 28.1672 29.9951C28.9596 29.9951 29.6023 29.3607 29.6023 28.5784V17.2566H30.2217V28.5784C30.2217 29.3607 30.8644 29.9951 31.6568 29.9951C32.4492 29.9951 33.0919 29.3607 33.0919 28.5784C33.0919 10.2869 33.0666 19.9768 33.0659 8.81949C33.0659 8.68414 33.1763 8.57447 33.3127 8.57239C33.4491 8.5703 33.5623 8.67789 33.5665 8.81255L33.6108 17.4842C33.6143 18.1339 34.1487 18.6587 34.8061 18.6587C34.8082 18.6587 34.8103 18.6587 34.8124 18.6587C35.4727 18.6552 36.0056 18.1242 36.0021 17.4724L35.9557 8.80075Z" fill="#4B9F46"/>
<path d="M25.264 14.6439C25.2584 13.5382 24.3422 12.6379 23.2221 12.6379H18.5892C17.4691 12.6379 16.553 13.5375 16.5473 14.6439C16.5459 14.9882 16.5473 14.6953 16.5375 16.3168L15.5862 16.1238C15.5862 16.1238 13.4571 10.3383 12.6949 8.14971C12.1352 6.54142 11.1959 5.72583 9.90422 5.72583C8.11336 5.72583 7.55227 5.72583 5.72274 5.72583C4.43109 5.72583 3.49242 6.54142 2.93203 8.14971C2.06438 10.6423 0.0935154 15.9648 0.0738279 16.0183C-0.155391 16.6361 0.16664 17.3205 0.793125 17.546C1.41961 17.7716 2.11219 17.4537 2.3407 16.836C2.35758 16.7908 3.77227 12.9683 4.73906 10.2675C4.67438 10.7908 4.87899 9.68927 3.02484 19.1398C2.94469 19.5493 3.26461 19.9283 3.68297 19.9283C3.94242 19.9283 4.25531 19.9283 4.60406 19.9283V28.5708C4.60406 29.3607 5.25234 30.0007 6.0525 30.0007C6.85266 30.0007 7.50094 29.3607 7.50094 28.5708V19.9283C7.70906 19.9283 7.91789 19.9283 8.12602 19.9283V28.5708C8.12602 29.3607 8.7743 30.0007 9.57445 30.0007C10.3746 30.0007 11.0229 29.3607 11.0229 28.5708V19.9283C11.3716 19.9283 11.6845 19.9283 11.944 19.9283C12.3652 19.9283 12.6823 19.5493 12.6021 19.1398C10.748 9.68858 10.9526 10.7915 10.8879 10.2675C11.8547 12.969 13.2694 16.7908 13.2863 16.836C13.4599 17.3045 13.9001 17.5995 14.3754 17.6168C15.3422 17.8133 16.0516 17.957 17.2209 18.1944C17.7539 18.3026 18.2545 17.9021 18.2573 17.3649C18.2573 17.3649 18.2714 14.9722 18.2735 14.6883C18.2742 14.5974 18.3488 14.5245 18.4409 14.5245C18.533 14.5245 18.6068 14.5981 18.6068 14.689C18.6068 16.9852 18.6075 28.0169 18.6075 28.972C18.6075 29.5363 19.0709 29.9944 19.6432 29.9944C20.2155 29.9944 20.6789 29.537 20.6789 28.972C20.6789 27.9607 20.6789 21.8288 20.6789 20.8008H21.1261C21.1261 21.8288 21.1261 27.96 21.1261 28.972C21.1261 29.5363 21.5895 29.9944 22.1618 29.9944C22.7341 29.9944 23.1975 29.537 23.1975 28.972C23.1975 23.0963 23.1827 16.187 23.1792 14.6529C23.1792 14.5551 23.2594 14.4752 23.3585 14.4746C23.4577 14.4739 23.5392 14.553 23.5392 14.6516L23.5709 20.9098C23.573 21.379 23.959 21.7573 24.4336 21.7573C24.435 21.7573 24.4364 21.7573 24.4378 21.7573C24.9131 21.7552 25.297 21.3734 25.2963 20.9042C25.2963 20.9028 25.2963 20.9021 25.2963 20.9007C25.2886 19.6013 25.2696 15.8135 25.264 14.6439Z" fill="#4B9F46"/>
<path d="M29.9271 4.95456C31.2956 4.95456 32.4049 3.85941 32.4049 2.50847C32.4049 1.15753 31.2956 0.0623779 29.9271 0.0623779C28.5586 0.0623779 27.4493 1.15753 27.4493 2.50847C27.4493 3.85941 28.5586 4.95456 29.9271 4.95456Z" fill="#4B9F46"/>
<path d="M20.9123 11.9083C22.155 11.9083 23.1623 10.9139 23.1623 9.68714C23.1623 8.4604 22.155 7.46594 20.9123 7.46594C19.6697 7.46594 18.6623 8.4604 18.6623 9.68714C18.6623 10.9139 19.6697 11.9083 20.9123 11.9083Z" fill="#4B9F46"/>
<path d="M7.81313 0C6.43149 0 5.31212 1.10504 5.31212 2.469C5.31212 3.82739 6.42657 4.93799 7.81313 4.93799C9.19899 4.93799 10.3141 3.82601 10.3141 2.469C10.3141 1.1099 9.19618 0 7.81313 0Z" fill="#4B9F46"/>
</svg>
