<svg width="17" height="13" viewBox="0 0 17 13" fill="none" xmlns="http://www.w3.org/2000/svg">
<path fill-rule="evenodd" clip-rule="evenodd" d="M15.122 0C15.3895 5.96046e-08 15.6457 0.107107 15.8336 0.297396L16.7116 1.18658C17.0961 1.57605 17.0961 2.20232 16.7116 2.59179L6.72832 12.7026C6.54043 12.8929 6.28415 13 6.01674 13C5.74932 13 5.49304 12.8929 5.30516 12.7026L0.288419 7.62177C-0.0961396 7.2323 -0.0961396 6.60603 0.288419 6.21656L1.16638 5.32738C1.35427 5.13709 1.61055 5.02998 1.87797 5.02998C2.14538 5.02998 2.40166 5.13709 2.58955 5.32738L6.01674 8.79836L14.4105 0.297396C14.5983 0.107107 14.8546 0 15.122 0Z" fill="white"/>
</svg>
